<?xml version="1.0" encoding="utf-8" standalone="no"?>
<!DOCTYPE svg PUBLIC "-//W3C//DTD SVG 1.1//EN"
  "http://www.w3.org/Graphics/SVG/1.1/DTD/svg11.dtd">
<svg height="288pt" version="1.1" viewBox="0 0 432 288" width="432pt" xmlns="http://www.w3.org/2000/svg" xmlns:xlink="http://www.w3.org/1999/xlink">
 <metadata>
  <rdf:RDF xmlns:cc="http://creativecommons.org/ns#" xmlns:dc="http://purl.org/dc/elements/1.1/" xmlns:rdf="http://www.w3.org/1999/02/22-rdf-syntax-ns#">
   <cc:Work>
    <dc:type rdf:resource="http://purl.org/dc/dcmitype/StillImage"/>
    <dc:date>2021-11-13T20:04:21.778846</dc:date>
    <dc:format>image/svg+xml</dc:format>
    <dc:creator>
     <cc:Agent>
      <dc:title>Matplotlib v3.4.3, https://matplotlib.org/</dc:title>
     </cc:Agent>
    </dc:creator>
   </cc:Work>
  </rdf:RDF>
 </metadata>
 <defs>
  <style type="text/css">*{stroke-linecap:butt;stroke-linejoin:round;}</style>
 </defs>
 <g id="figure_1">
  <g id="patch_1">
   <path d="M 0 288
L 432 288
L 432 0
L 0 0
z
" style="fill:#ffffff;"/>
  </g>
  <g id="axes_1">
   <g id="patch_2">
    <path d="M 42.41 242.44
L 409.5 242.44
L 409.5 17.28
L 42.41 17.28
z
" style="fill:#ffffff;"/>
   </g>
   <g id="PolyCollection_1">
    <defs>
     <path d="M 182.778749 -45.56
L 182.778749 -80.0546
L 183.146206 -80.882602
L 183.513664 -81.724271
L 183.881121 -82.579657
L 184.248579 -83.448811
L 184.616036 -84.331775
L 184.983493 -85.228588
L 185.350951 -86.139284
L 185.718408 -87.063891
L 186.085866 -88.002431
L 186.453323 -88.954923
L 186.820781 -89.921379
L 187.188238 -90.901805
L 187.555696 -91.896201
L 187.923153 -92.904564
L 188.290611 -93.926881
L 188.658068 -94.963136
L 189.025526 -96.013305
L 189.392983 -97.077359
L 189.76044 -98.155261
L 190.127898 -99.246971
L 190.495355 -100.352438
L 190.862813 -101.471608
L 191.23027 -102.604418
L 191.597728 -103.7508
L 191.965185 -104.910677
L 192.332643 -106.083967
L 192.7001 -107.270581
L 193.067558 -108.47042
L 193.435015 -109.683383
L 193.802472 -110.909357
L 194.16993 -112.148224
L 194.537387 -113.399858
L 194.904845 -114.664127
L 195.272302 -115.94089
L 195.63976 -117.229998
L 196.007217 -118.531297
L 196.374675 -119.844624
L 196.742132 -121.169807
L 197.10959 -122.50667
L 197.477047 -123.855026
L 197.844505 -125.214682
L 198.211962 -126.585437
L 198.579419 -127.967083
L 198.946877 -129.359404
L 199.314334 -130.762175
L 199.681792 -132.175165
L 200.049249 -133.598135
L 200.416707 -135.030839
L 200.784164 -136.473023
L 201.151622 -137.924424
L 201.519079 -139.384773
L 201.886537 -140.853794
L 202.253994 -142.331203
L 202.621451 -143.816708
L 202.988909 -145.310009
L 203.356366 -146.810802
L 203.723824 -148.318773
L 204.091281 -149.833601
L 204.458739 -151.354959
L 204.826196 -152.882513
L 205.193654 -154.415921
L 205.561111 -155.954835
L 205.928569 -157.498901
L 206.296026 -159.047756
L 206.663483 -160.601034
L 207.030941 -162.15836
L 207.398398 -163.719353
L 207.765856 -165.283627
L 208.133313 -166.85079
L 208.500771 -168.420443
L 208.868228 -169.992182
L 209.235686 -171.565596
L 209.603143 -173.140272
L 209.970601 -174.715789
L 210.338058 -176.291721
L 210.705516 -177.867638
L 211.072973 -179.443105
L 211.44043 -181.017682
L 211.807888 -182.590924
L 212.175345 -184.162384
L 212.542803 -185.731609
L 212.91026 -187.298142
L 213.277718 -188.861525
L 213.645175 -190.421292
L 214.012633 -191.976979
L 214.38009 -193.528114
L 214.747548 -195.074227
L 215.115005 -196.614841
L 215.482462 -198.149479
L 215.84992 -199.677662
L 216.217377 -201.198908
L 216.584835 -202.712734
L 216.952292 -204.218655
L 217.31975 -205.716186
L 217.687207 -207.204839
L 218.054665 -208.684128
L 218.422122 -210.153563
L 218.78958 -211.612657
L 219.157037 -213.060922
L 219.524494 -214.497868
L 219.891952 -215.92301
L 220.259409 -217.335859
L 220.626867 -218.735931
L 220.994324 -220.122741
L 221.361782 -221.495805
L 221.729239 -222.854643
L 222.096697 -224.198776
L 222.464154 -225.527727
L 222.831612 -226.841022
L 223.199069 -228.138189
L 223.566527 -229.418761
L 223.933984 -230.682273
L 224.301441 -231.928263
L 224.668899 -233.156274
L 225.036356 -234.365853
L 225.403814 -235.556552
L 225.771271 -236.727927
L 226.138729 -237.879538
L 226.506186 -239.010951
L 226.873644 -240.121739
L 227.241101 -241.211478
L 227.608559 -242.279752
L 227.976016 -243.326151
L 228.343473 -244.350269
L 228.710931 -245.351711
L 229.078388 -246.330084
L 229.445846 -247.285007
L 229.813303 -248.216102
L 230.180761 -249.123003
L 230.548218 -250.005347
L 230.915676 -250.862784
L 231.283133 -251.694969
L 231.650591 -252.501566
L 232.018048 -253.282249
L 232.385506 -254.0367
L 232.752963 -254.76461
L 233.12042 -255.46568
L 233.487878 -256.13962
L 233.855335 -256.786149
L 234.222793 -257.404999
L 234.59025 -257.995907
L 234.957708 -258.558625
L 235.325165 -259.092913
L 235.692623 -259.598542
L 236.06008 -260.075294
L 236.427538 -260.522961
L 236.794995 -260.941347
L 237.162452 -261.330267
L 237.52991 -261.689547
L 237.897367 -262.019024
L 238.264825 -262.318548
L 238.632282 -262.587978
L 238.99974 -262.827187
L 239.367197 -263.036059
L 239.734655 -263.21449
L 240.102112 -263.362388
L 240.46957 -263.479673
L 240.837027 -263.566277
L 241.204484 -263.622144
L 241.571942 -263.647231
L 241.939399 -263.641506
L 242.306857 -263.604951
L 242.674314 -263.537558
L 243.041772 -263.439333
L 243.409229 -263.310294
L 243.776687 -263.150472
L 244.144144 -262.959909
L 244.511602 -262.73866
L 244.879059 -262.486793
L 245.246517 -262.204387
L 245.613974 -261.891533
L 245.981431 -261.548336
L 246.348889 -261.174913
L 246.716346 -260.77139
L 247.083804 -260.33791
L 247.451261 -259.874623
L 247.818719 -259.381695
L 248.186176 -258.8593
L 248.553634 -258.307627
L 248.921091 -257.726876
L 249.288549 -257.117255
L 249.656006 -256.478989
L 250.023463 -255.812309
L 250.390921 -255.117461
L 250.758378 -254.394699
L 251.125836 -253.644291
L 251.493293 -252.866512
L 251.860751 -252.06165
L 252.228208 -251.230003
L 252.595666 -250.371879
L 252.963123 -249.487595
L 253.330581 -248.577479
L 253.698038 -247.641868
L 254.065495 -246.68111
L 254.432953 -245.695559
L 254.80041 -244.685581
L 255.167868 -243.65155
L 255.535325 -242.593848
L 255.902783 -241.512865
L 256.27024 -240.409
L 256.637698 -239.28266
L 257.005155 -238.134259
L 257.372613 -236.964219
L 257.74007 -235.772969
L 258.107528 -234.560944
L 258.474985 -233.328587
L 258.842442 -232.076347
L 259.2099 -230.804679
L 259.577357 -229.514044
L 259.944815 -228.204908
L 260.312272 -226.877743
L 260.67973 -225.533026
L 261.047187 -224.171239
L 261.414645 -222.792869
L 261.782102 -221.398404
L 262.14956 -219.988341
L 262.517017 -218.563178
L 262.884474 -217.123415
L 263.251932 -215.669558
L 263.619389 -214.202113
L 263.986847 -212.721592
L 264.354304 -211.228507
L 264.721762 -209.723371
L 265.089219 -208.206701
L 265.456677 -206.679014
L 265.824134 -205.140829
L 266.191592 -203.592666
L 266.559049 -202.035043
L 266.926507 -200.468482
L 267.293964 -198.893502
L 267.661421 -197.310624
L 268.028879 -195.720366
L 268.396336 -194.123247
L 268.763794 -192.519785
L 269.131251 -190.910496
L 269.498709 -189.295893
L 269.866166 -187.676489
L 270.233624 -186.052795
L 270.601081 -184.425318
L 270.968539 -182.794564
L 271.335996 -181.161033
L 271.703453 -179.525226
L 272.070911 -177.887637
L 272.438368 -176.248759
L 272.805826 -174.609078
L 273.173283 -172.96908
L 273.540741 -171.329242
L 273.908198 -169.690039
L 274.275656 -168.051941
L 274.643113 -166.415414
L 275.010571 -164.780915
L 275.378028 -163.148899
L 275.745485 -161.519815
L 276.112943 -159.894104
L 276.4804 -158.272203
L 276.847858 -156.654541
L 277.215315 -155.041543
L 277.582773 -153.433626
L 277.95023 -151.831199
L 278.317688 -150.234666
L 278.685145 -148.644424
L 279.052603 -147.06086
L 279.42006 -145.484357
L 279.787518 -143.91529
L 280.154975 -142.354023
L 280.522432 -140.800917
L 280.88989 -139.256322
L 281.257347 -137.72058
L 281.624805 -136.194028
L 281.992262 -134.67699
L 282.35972 -133.169786
L 282.727177 -131.672725
L 283.094635 -130.186109
L 283.462092 -128.710231
L 283.82955 -127.245376
L 284.197007 -125.791819
L 284.564464 -124.349826
L 284.931922 -122.919658
L 285.299379 -121.501562
L 285.666837 -120.095781
L 286.034294 -118.702546
L 286.401752 -117.322079
L 286.769209 -115.954596
L 287.136667 -114.600302
L 287.504124 -113.259393
L 287.871582 -111.932058
L 288.239039 -110.618474
L 288.606496 -109.318811
L 288.973954 -108.033232
L 289.341411 -106.761889
L 289.708869 -105.504924
L 290.076326 -104.262474
L 290.443784 -103.034664
L 290.811241 -101.821612
L 291.178699 -100.623428
L 291.546156 -99.440212
L 291.913614 -98.272056
L 292.281071 -97.119045
L 292.648529 -95.981254
L 293.015986 -94.85875
L 293.383443 -93.751593
L 293.750901 -92.659835
L 294.118358 -91.583519
L 294.485816 -90.52268
L 294.853273 -89.477348
L 295.220731 -88.447541
L 295.588188 -87.433273
L 295.955646 -86.43455
L 296.323103 -85.451371
L 296.690561 -84.483725
L 297.058018 -83.531598
L 297.425475 -82.594967
L 297.792933 -81.673802
L 297.792933 -45.56
L 297.792933 -45.56
L 297.425475 -45.56
L 297.058018 -45.56
L 296.690561 -45.56
L 296.323103 -45.56
L 295.955646 -45.56
L 295.588188 -45.56
L 295.220731 -45.56
L 294.853273 -45.56
L 294.485816 -45.56
L 294.118358 -45.56
L 293.750901 -45.56
L 293.383443 -45.56
L 293.015986 -45.56
L 292.648529 -45.56
L 292.281071 -45.56
L 291.913614 -45.56
L 291.546156 -45.56
L 291.178699 -45.56
L 290.811241 -45.56
L 290.443784 -45.56
L 290.076326 -45.56
L 289.708869 -45.56
L 289.341411 -45.56
L 288.973954 -45.56
L 288.606496 -45.56
L 288.239039 -45.56
L 287.871582 -45.56
L 287.504124 -45.56
L 287.136667 -45.56
L 286.769209 -45.56
L 286.401752 -45.56
L 286.034294 -45.56
L 285.666837 -45.56
L 285.299379 -45.56
L 284.931922 -45.56
L 284.564464 -45.56
L 284.197007 -45.56
L 283.82955 -45.56
L 283.462092 -45.56
L 283.094635 -45.56
L 282.727177 -45.56
L 282.35972 -45.56
L 281.992262 -45.56
L 281.624805 -45.56
L 281.257347 -45.56
L 280.88989 -45.56
L 280.522432 -45.56
L 280.154975 -45.56
L 279.787518 -45.56
L 279.42006 -45.56
L 279.052603 -45.56
L 278.685145 -45.56
L 278.317688 -45.56
L 277.95023 -45.56
L 277.582773 -45.56
L 277.215315 -45.56
L 276.847858 -45.56
L 276.4804 -45.56
L 276.112943 -45.56
L 275.745485 -45.56
L 275.378028 -45.56
L 275.010571 -45.56
L 274.643113 -45.56
L 274.275656 -45.56
L 273.908198 -45.56
L 273.540741 -45.56
L 273.173283 -45.56
L 272.805826 -45.56
L 272.438368 -45.56
L 272.070911 -45.56
L 271.703453 -45.56
L 271.335996 -45.56
L 270.968539 -45.56
L 270.601081 -45.56
L 270.233624 -45.56
L 269.866166 -45.56
L 269.498709 -45.56
L 269.131251 -45.56
L 268.763794 -45.56
L 268.396336 -45.56
L 268.028879 -45.56
L 267.661421 -45.56
L 267.293964 -45.56
L 266.926507 -45.56
L 266.559049 -45.56
L 266.191592 -45.56
L 265.824134 -45.56
L 265.456677 -45.56
L 265.089219 -45.56
L 264.721762 -45.56
L 264.354304 -45.56
L 263.986847 -45.56
L 263.619389 -45.56
L 263.251932 -45.56
L 262.884474 -45.56
L 262.517017 -45.56
L 262.14956 -45.56
L 261.782102 -45.56
L 261.414645 -45.56
L 261.047187 -45.56
L 260.67973 -45.56
L 260.312272 -45.56
L 259.944815 -45.56
L 259.577357 -45.56
L 259.2099 -45.56
L 258.842442 -45.56
L 258.474985 -45.56
L 258.107528 -45.56
L 257.74007 -45.56
L 257.372613 -45.56
L 257.005155 -45.56
L 256.637698 -45.56
L 256.27024 -45.56
L 255.902783 -45.56
L 255.535325 -45.56
L 255.167868 -45.56
L 254.80041 -45.56
L 254.432953 -45.56
L 254.065495 -45.56
L 253.698038 -45.56
L 253.330581 -45.56
L 252.963123 -45.56
L 252.595666 -45.56
L 252.228208 -45.56
L 251.860751 -45.56
L 251.493293 -45.56
L 251.125836 -45.56
L 250.758378 -45.56
L 250.390921 -45.56
L 250.023463 -45.56
L 249.656006 -45.56
L 249.288549 -45.56
L 248.921091 -45.56
L 248.553634 -45.56
L 248.186176 -45.56
L 247.818719 -45.56
L 247.451261 -45.56
L 247.083804 -45.56
L 246.716346 -45.56
L 246.348889 -45.56
L 245.981431 -45.56
L 245.613974 -45.56
L 245.246517 -45.56
L 244.879059 -45.56
L 244.511602 -45.56
L 244.144144 -45.56
L 243.776687 -45.56
L 243.409229 -45.56
L 243.041772 -45.56
L 242.674314 -45.56
L 242.306857 -45.56
L 241.939399 -45.56
L 241.571942 -45.56
L 241.204484 -45.56
L 240.837027 -45.56
L 240.46957 -45.56
L 240.102112 -45.56
L 239.734655 -45.56
L 239.367197 -45.56
L 238.99974 -45.56
L 238.632282 -45.56
L 238.264825 -45.56
L 237.897367 -45.56
L 237.52991 -45.56
L 237.162452 -45.56
L 236.794995 -45.56
L 236.427538 -45.56
L 236.06008 -45.56
L 235.692623 -45.56
L 235.325165 -45.56
L 234.957708 -45.56
L 234.59025 -45.56
L 234.222793 -45.56
L 233.855335 -45.56
L 233.487878 -45.56
L 233.12042 -45.56
L 232.752963 -45.56
L 232.385506 -45.56
L 232.018048 -45.56
L 231.650591 -45.56
L 231.283133 -45.56
L 230.915676 -45.56
L 230.548218 -45.56
L 230.180761 -45.56
L 229.813303 -45.56
L 229.445846 -45.56
L 229.078388 -45.56
L 228.710931 -45.56
L 228.343473 -45.56
L 227.976016 -45.56
L 227.608559 -45.56
L 227.241101 -45.56
L 226.873644 -45.56
L 226.506186 -45.56
L 226.138729 -45.56
L 225.771271 -45.56
L 225.403814 -45.56
L 225.036356 -45.56
L 224.668899 -45.56
L 224.301441 -45.56
L 223.933984 -45.56
L 223.566527 -45.56
L 223.199069 -45.56
L 222.831612 -45.56
L 222.464154 -45.56
L 222.096697 -45.56
L 221.729239 -45.56
L 221.361782 -45.56
L 220.994324 -45.56
L 220.626867 -45.56
L 220.259409 -45.56
L 219.891952 -45.56
L 219.524494 -45.56
L 219.157037 -45.56
L 218.78958 -45.56
L 218.422122 -45.56
L 218.054665 -45.56
L 217.687207 -45.56
L 217.31975 -45.56
L 216.952292 -45.56
L 216.584835 -45.56
L 216.217377 -45.56
L 215.84992 -45.56
L 215.482462 -45.56
L 215.115005 -45.56
L 214.747548 -45.56
L 214.38009 -45.56
L 214.012633 -45.56
L 213.645175 -45.56
L 213.277718 -45.56
L 212.91026 -45.56
L 212.542803 -45.56
L 212.175345 -45.56
L 211.807888 -45.56
L 211.44043 -45.56
L 211.072973 -45.56
L 210.705516 -45.56
L 210.338058 -45.56
L 209.970601 -45.56
L 209.603143 -45.56
L 209.235686 -45.56
L 208.868228 -45.56
L 208.500771 -45.56
L 208.133313 -45.56
L 207.765856 -45.56
L 207.398398 -45.56
L 207.030941 -45.56
L 206.663483 -45.56
L 206.296026 -45.56
L 205.928569 -45.56
L 205.561111 -45.56
L 205.193654 -45.56
L 204.826196 -45.56
L 204.458739 -45.56
L 204.091281 -45.56
L 203.723824 -45.56
L 203.356366 -45.56
L 202.988909 -45.56
L 202.621451 -45.56
L 202.253994 -45.56
L 201.886537 -45.56
L 201.519079 -45.56
L 201.151622 -45.56
L 200.784164 -45.56
L 200.416707 -45.56
L 200.049249 -45.56
L 199.681792 -45.56
L 199.314334 -45.56
L 198.946877 -45.56
L 198.579419 -45.56
L 198.211962 -45.56
L 197.844505 -45.56
L 197.477047 -45.56
L 197.10959 -45.56
L 196.742132 -45.56
L 196.374675 -45.56
L 196.007217 -45.56
L 195.63976 -45.56
L 195.272302 -45.56
L 194.904845 -45.56
L 194.537387 -45.56
L 194.16993 -45.56
L 193.802472 -45.56
L 193.435015 -45.56
L 193.067558 -45.56
L 192.7001 -45.56
L 192.332643 -45.56
L 191.965185 -45.56
L 191.597728 -45.56
L 191.23027 -45.56
L 190.862813 -45.56
L 190.495355 -45.56
L 190.127898 -45.56
L 189.76044 -45.56
L 189.392983 -45.56
L 189.025526 -45.56
L 188.658068 -45.56
L 188.290611 -45.56
L 187.923153 -45.56
L 187.555696 -45.56
L 187.188238 -45.56
L 186.820781 -45.56
L 186.453323 -45.56
L 186.085866 -45.56
L 185.718408 -45.56
L 185.350951 -45.56
L 184.983493 -45.56
L 184.616036 -45.56
L 184.248579 -45.56
L 183.881121 -45.56
L 183.513664 -45.56
L 183.146206 -45.56
L 182.778749 -45.56
z
" id="m1645a4d1ca" style="stroke:#008000;stroke-opacity:0.3;"/>
    </defs>
    <g clip-path="url(#pa4bcce1adf)">
     <use style="fill:#008000;fill-opacity:0.3;stroke:#008000;stroke-opacity:0.3;" x="0" xlink:href="#m1645a4d1ca" y="288"/>
    </g>
   </g>
   <g id="matplotlib.axis_1">
    <g id="xtick_1">
     <g id="line2d_1">
      <path clip-path="url(#pa4bcce1adf)" d="M 42.41 242.44
L 42.41 17.28
" style="fill:none;stroke:#b0b0b0;stroke-linecap:square;stroke-width:0.8;"/>
     </g>
     <g id="line2d_2">
      <defs>
       <path d="M 0 0
L 0 3.5
" id="mda7ae9734d" style="stroke:#000000;stroke-width:0.8;"/>
      </defs>
      <g>
       <use style="stroke:#000000;stroke-width:0.8;" x="42.41" xlink:href="#mda7ae9734d" y="242.44"/>
      </g>
     </g>
     <g id="text_1">
      <!-- 0.0 -->
      <g transform="translate(32.868125 258.558125)scale(0.12 -0.12)">
       <defs>
        <path d="M 2034 4250
Q 1547 4250 1301 3770
Q 1056 3291 1056 2328
Q 1056 1369 1301 889
Q 1547 409 2034 409
Q 2525 409 2770 889
Q 3016 1369 3016 2328
Q 3016 3291 2770 3770
Q 2525 4250 2034 4250
z
M 2034 4750
Q 2819 4750 3233 4129
Q 3647 3509 3647 2328
Q 3647 1150 3233 529
Q 2819 -91 2034 -91
Q 1250 -91 836 529
Q 422 1150 422 2328
Q 422 3509 836 4129
Q 1250 4750 2034 4750
z
" id="DejaVuSans-30" transform="scale(0.015625)"/>
        <path d="M 684 794
L 1344 794
L 1344 0
L 684 0
L 684 794
z
" id="DejaVuSans-2e" transform="scale(0.015625)"/>
       </defs>
       <use xlink:href="#DejaVuSans-30"/>
       <use x="63.623047" xlink:href="#DejaVuSans-2e"/>
       <use x="95.410156" xlink:href="#DejaVuSans-30"/>
      </g>
     </g>
    </g>
    <g id="xtick_2">
     <g id="line2d_3">
      <path clip-path="url(#pa4bcce1adf)" d="M 115.828 242.44
L 115.828 17.28
" style="fill:none;stroke:#b0b0b0;stroke-linecap:square;stroke-width:0.8;"/>
     </g>
     <g id="line2d_4">
      <g>
       <use style="stroke:#000000;stroke-width:0.8;" x="115.828" xlink:href="#mda7ae9734d" y="242.44"/>
      </g>
     </g>
     <g id="text_2">
      <!-- 0.2 -->
      <g transform="translate(106.286125 258.558125)scale(0.12 -0.12)">
       <defs>
        <path d="M 1228 531
L 3431 531
L 3431 0
L 469 0
L 469 531
Q 828 903 1448 1529
Q 2069 2156 2228 2338
Q 2531 2678 2651 2914
Q 2772 3150 2772 3378
Q 2772 3750 2511 3984
Q 2250 4219 1831 4219
Q 1534 4219 1204 4116
Q 875 4013 500 3803
L 500 4441
Q 881 4594 1212 4672
Q 1544 4750 1819 4750
Q 2544 4750 2975 4387
Q 3406 4025 3406 3419
Q 3406 3131 3298 2873
Q 3191 2616 2906 2266
Q 2828 2175 2409 1742
Q 1991 1309 1228 531
z
" id="DejaVuSans-32" transform="scale(0.015625)"/>
       </defs>
       <use xlink:href="#DejaVuSans-30"/>
       <use x="63.623047" xlink:href="#DejaVuSans-2e"/>
       <use x="95.410156" xlink:href="#DejaVuSans-32"/>
      </g>
     </g>
    </g>
    <g id="xtick_3">
     <g id="line2d_5">
      <path clip-path="url(#pa4bcce1adf)" d="M 189.246 242.44
L 189.246 17.28
" style="fill:none;stroke:#b0b0b0;stroke-linecap:square;stroke-width:0.8;"/>
     </g>
     <g id="line2d_6">
      <g>
       <use style="stroke:#000000;stroke-width:0.8;" x="189.246" xlink:href="#mda7ae9734d" y="242.44"/>
      </g>
     </g>
     <g id="text_3">
      <!-- 0.4 -->
      <g transform="translate(179.704125 258.558125)scale(0.12 -0.12)">
       <defs>
        <path d="M 2419 4116
L 825 1625
L 2419 1625
L 2419 4116
z
M 2253 4666
L 3047 4666
L 3047 1625
L 3713 1625
L 3713 1100
L 3047 1100
L 3047 0
L 2419 0
L 2419 1100
L 313 1100
L 313 1709
L 2253 4666
z
" id="DejaVuSans-34" transform="scale(0.015625)"/>
       </defs>
       <use xlink:href="#DejaVuSans-30"/>
       <use x="63.623047" xlink:href="#DejaVuSans-2e"/>
       <use x="95.410156" xlink:href="#DejaVuSans-34"/>
      </g>
     </g>
    </g>
    <g id="xtick_4">
     <g id="line2d_7">
      <path clip-path="url(#pa4bcce1adf)" d="M 262.664 242.44
L 262.664 17.28
" style="fill:none;stroke:#b0b0b0;stroke-linecap:square;stroke-width:0.8;"/>
     </g>
     <g id="line2d_8">
      <g>
       <use style="stroke:#000000;stroke-width:0.8;" x="262.664" xlink:href="#mda7ae9734d" y="242.44"/>
      </g>
     </g>
     <g id="text_4">
      <!-- 0.6 -->
      <g transform="translate(253.122125 258.558125)scale(0.12 -0.12)">
       <defs>
        <path d="M 2113 2584
Q 1688 2584 1439 2293
Q 1191 2003 1191 1497
Q 1191 994 1439 701
Q 1688 409 2113 409
Q 2538 409 2786 701
Q 3034 994 3034 1497
Q 3034 2003 2786 2293
Q 2538 2584 2113 2584
z
M 3366 4563
L 3366 3988
Q 3128 4100 2886 4159
Q 2644 4219 2406 4219
Q 1781 4219 1451 3797
Q 1122 3375 1075 2522
Q 1259 2794 1537 2939
Q 1816 3084 2150 3084
Q 2853 3084 3261 2657
Q 3669 2231 3669 1497
Q 3669 778 3244 343
Q 2819 -91 2113 -91
Q 1303 -91 875 529
Q 447 1150 447 2328
Q 447 3434 972 4092
Q 1497 4750 2381 4750
Q 2619 4750 2861 4703
Q 3103 4656 3366 4563
z
" id="DejaVuSans-36" transform="scale(0.015625)"/>
       </defs>
       <use xlink:href="#DejaVuSans-30"/>
       <use x="63.623047" xlink:href="#DejaVuSans-2e"/>
       <use x="95.410156" xlink:href="#DejaVuSans-36"/>
      </g>
     </g>
    </g>
    <g id="xtick_5">
     <g id="line2d_9">
      <path clip-path="url(#pa4bcce1adf)" d="M 336.082 242.44
L 336.082 17.28
" style="fill:none;stroke:#b0b0b0;stroke-linecap:square;stroke-width:0.8;"/>
     </g>
     <g id="line2d_10">
      <g>
       <use style="stroke:#000000;stroke-width:0.8;" x="336.082" xlink:href="#mda7ae9734d" y="242.44"/>
      </g>
     </g>
     <g id="text_5">
      <!-- 0.8 -->
      <g transform="translate(326.540125 258.558125)scale(0.12 -0.12)">
       <defs>
        <path d="M 2034 2216
Q 1584 2216 1326 1975
Q 1069 1734 1069 1313
Q 1069 891 1326 650
Q 1584 409 2034 409
Q 2484 409 2743 651
Q 3003 894 3003 1313
Q 3003 1734 2745 1975
Q 2488 2216 2034 2216
z
M 1403 2484
Q 997 2584 770 2862
Q 544 3141 544 3541
Q 544 4100 942 4425
Q 1341 4750 2034 4750
Q 2731 4750 3128 4425
Q 3525 4100 3525 3541
Q 3525 3141 3298 2862
Q 3072 2584 2669 2484
Q 3125 2378 3379 2068
Q 3634 1759 3634 1313
Q 3634 634 3220 271
Q 2806 -91 2034 -91
Q 1263 -91 848 271
Q 434 634 434 1313
Q 434 1759 690 2068
Q 947 2378 1403 2484
z
M 1172 3481
Q 1172 3119 1398 2916
Q 1625 2713 2034 2713
Q 2441 2713 2670 2916
Q 2900 3119 2900 3481
Q 2900 3844 2670 4047
Q 2441 4250 2034 4250
Q 1625 4250 1398 4047
Q 1172 3844 1172 3481
z
" id="DejaVuSans-38" transform="scale(0.015625)"/>
       </defs>
       <use xlink:href="#DejaVuSans-30"/>
       <use x="63.623047" xlink:href="#DejaVuSans-2e"/>
       <use x="95.410156" xlink:href="#DejaVuSans-38"/>
      </g>
     </g>
    </g>
    <g id="xtick_6">
     <g id="line2d_11">
      <path clip-path="url(#pa4bcce1adf)" d="M 409.5 242.44
L 409.5 17.28
" style="fill:none;stroke:#b0b0b0;stroke-linecap:square;stroke-width:0.8;"/>
     </g>
     <g id="line2d_12">
      <g>
       <use style="stroke:#000000;stroke-width:0.8;" x="409.5" xlink:href="#mda7ae9734d" y="242.44"/>
      </g>
     </g>
     <g id="text_6">
      <!-- 1.0 -->
      <g transform="translate(399.958125 258.558125)scale(0.12 -0.12)">
       <defs>
        <path d="M 794 531
L 1825 531
L 1825 4091
L 703 3866
L 703 4441
L 1819 4666
L 2450 4666
L 2450 531
L 3481 531
L 3481 0
L 794 0
L 794 531
z
" id="DejaVuSans-31" transform="scale(0.015625)"/>
       </defs>
       <use xlink:href="#DejaVuSans-31"/>
       <use x="63.623047" xlink:href="#DejaVuSans-2e"/>
       <use x="95.410156" xlink:href="#DejaVuSans-30"/>
      </g>
     </g>
    </g>
    <g id="text_7">
     <!-- p -->
     <g transform="translate(222.145937 274.171875)scale(0.12 -0.12)">
      <defs>
       <path d="M 1159 525
L 1159 -1331
L 581 -1331
L 581 3500
L 1159 3500
L 1159 2969
Q 1341 3281 1617 3432
Q 1894 3584 2278 3584
Q 2916 3584 3314 3078
Q 3713 2572 3713 1747
Q 3713 922 3314 415
Q 2916 -91 2278 -91
Q 1894 -91 1617 61
Q 1341 213 1159 525
z
M 3116 1747
Q 3116 2381 2855 2742
Q 2594 3103 2138 3103
Q 1681 3103 1420 2742
Q 1159 2381 1159 1747
Q 1159 1113 1420 752
Q 1681 391 2138 391
Q 2594 391 2855 752
Q 3116 1113 3116 1747
z
" id="DejaVuSans-70" transform="scale(0.015625)"/>
      </defs>
      <use xlink:href="#DejaVuSans-70"/>
     </g>
    </g>
   </g>
   <g id="matplotlib.axis_2">
    <g id="ytick_1">
     <g id="line2d_13">
      <path clip-path="url(#pa4bcce1adf)" d="M 42.41 242.44
L 409.5 242.44
" style="fill:none;stroke:#b0b0b0;stroke-linecap:square;stroke-width:0.8;"/>
     </g>
     <g id="line2d_14">
      <defs>
       <path d="M 0 0
L -3.5 0
" id="m875df8797a" style="stroke:#000000;stroke-width:0.8;"/>
      </defs>
      <g>
       <use style="stroke:#000000;stroke-width:0.8;" x="42.41" xlink:href="#m875df8797a" y="242.44"/>
      </g>
     </g>
     <g id="text_8">
      <!-- 0 -->
      <g transform="translate(27.775 246.999063)scale(0.12 -0.12)">
       <use xlink:href="#DejaVuSans-30"/>
      </g>
     </g>
    </g>
    <g id="ytick_2">
     <g id="line2d_15">
      <path clip-path="url(#pa4bcce1adf)" d="M 42.41 197.408
L 409.5 197.408
" style="fill:none;stroke:#b0b0b0;stroke-linecap:square;stroke-width:0.8;"/>
     </g>
     <g id="line2d_16">
      <g>
       <use style="stroke:#000000;stroke-width:0.8;" x="42.41" xlink:href="#m875df8797a" y="197.408"/>
      </g>
     </g>
     <g id="text_9">
      <!-- 1 -->
      <g transform="translate(27.775 201.967062)scale(0.12 -0.12)">
       <use xlink:href="#DejaVuSans-31"/>
      </g>
     </g>
    </g>
    <g id="ytick_3">
     <g id="line2d_17">
      <path clip-path="url(#pa4bcce1adf)" d="M 42.41 152.376
L 409.5 152.376
" style="fill:none;stroke:#b0b0b0;stroke-linecap:square;stroke-width:0.8;"/>
     </g>
     <g id="line2d_18">
      <g>
       <use style="stroke:#000000;stroke-width:0.8;" x="42.41" xlink:href="#m875df8797a" y="152.376"/>
      </g>
     </g>
     <g id="text_10">
      <!-- 2 -->
      <g transform="translate(27.775 156.935063)scale(0.12 -0.12)">
       <use xlink:href="#DejaVuSans-32"/>
      </g>
     </g>
    </g>
    <g id="ytick_4">
     <g id="line2d_19">
      <path clip-path="url(#pa4bcce1adf)" d="M 42.41 107.344
L 409.5 107.344
" style="fill:none;stroke:#b0b0b0;stroke-linecap:square;stroke-width:0.8;"/>
     </g>
     <g id="line2d_20">
      <g>
       <use style="stroke:#000000;stroke-width:0.8;" x="42.41" xlink:href="#m875df8797a" y="107.344"/>
      </g>
     </g>
     <g id="text_11">
      <!-- 3 -->
      <g transform="translate(27.775 111.903063)scale(0.12 -0.12)">
       <defs>
        <path d="M 2597 2516
Q 3050 2419 3304 2112
Q 3559 1806 3559 1356
Q 3559 666 3084 287
Q 2609 -91 1734 -91
Q 1441 -91 1130 -33
Q 819 25 488 141
L 488 750
Q 750 597 1062 519
Q 1375 441 1716 441
Q 2309 441 2620 675
Q 2931 909 2931 1356
Q 2931 1769 2642 2001
Q 2353 2234 1838 2234
L 1294 2234
L 1294 2753
L 1863 2753
Q 2328 2753 2575 2939
Q 2822 3125 2822 3475
Q 2822 3834 2567 4026
Q 2313 4219 1838 4219
Q 1578 4219 1281 4162
Q 984 4106 628 3988
L 628 4550
Q 988 4650 1302 4700
Q 1616 4750 1894 4750
Q 2613 4750 3031 4423
Q 3450 4097 3450 3541
Q 3450 3153 3228 2886
Q 3006 2619 2597 2516
z
" id="DejaVuSans-33" transform="scale(0.015625)"/>
       </defs>
       <use xlink:href="#DejaVuSans-33"/>
      </g>
     </g>
    </g>
    <g id="ytick_5">
     <g id="line2d_21">
      <path clip-path="url(#pa4bcce1adf)" d="M 42.41 62.312
L 409.5 62.312
" style="fill:none;stroke:#b0b0b0;stroke-linecap:square;stroke-width:0.8;"/>
     </g>
     <g id="line2d_22">
      <g>
       <use style="stroke:#000000;stroke-width:0.8;" x="42.41" xlink:href="#m875df8797a" y="62.312"/>
      </g>
     </g>
     <g id="text_12">
      <!-- 4 -->
      <g transform="translate(27.775 66.871063)scale(0.12 -0.12)">
       <use xlink:href="#DejaVuSans-34"/>
      </g>
     </g>
    </g>
    <g id="ytick_6">
     <g id="line2d_23">
      <path clip-path="url(#pa4bcce1adf)" d="M 42.41 17.28
L 409.5 17.28
" style="fill:none;stroke:#b0b0b0;stroke-linecap:square;stroke-width:0.8;"/>
     </g>
     <g id="line2d_24">
      <g>
       <use style="stroke:#000000;stroke-width:0.8;" x="42.41" xlink:href="#m875df8797a" y="17.28"/>
      </g>
     </g>
     <g id="text_13">
      <!-- 5 -->
      <g transform="translate(27.775 21.839063)scale(0.12 -0.12)">
       <defs>
        <path d="M 691 4666
L 3169 4666
L 3169 4134
L 1269 4134
L 1269 2991
Q 1406 3038 1543 3061
Q 1681 3084 1819 3084
Q 2600 3084 3056 2656
Q 3513 2228 3513 1497
Q 3513 744 3044 326
Q 2575 -91 1722 -91
Q 1428 -91 1123 -41
Q 819 9 494 109
L 494 744
Q 775 591 1075 516
Q 1375 441 1709 441
Q 2250 441 2565 725
Q 2881 1009 2881 1497
Q 2881 1984 2565 2268
Q 2250 2553 1709 2553
Q 1456 2553 1204 2497
Q 953 2441 691 2322
L 691 4666
z
" id="DejaVuSans-35" transform="scale(0.015625)"/>
       </defs>
       <use xlink:href="#DejaVuSans-35"/>
      </g>
     </g>
    </g>
    <g id="text_14">
     <!-- Probability Density -->
     <g transform="translate(21.279375 186.291875)rotate(-90)scale(0.12 -0.12)">
      <defs>
       <path d="M 1259 4147
L 1259 2394
L 2053 2394
Q 2494 2394 2734 2622
Q 2975 2850 2975 3272
Q 2975 3691 2734 3919
Q 2494 4147 2053 4147
L 1259 4147
z
M 628 4666
L 2053 4666
Q 2838 4666 3239 4311
Q 3641 3956 3641 3272
Q 3641 2581 3239 2228
Q 2838 1875 2053 1875
L 1259 1875
L 1259 0
L 628 0
L 628 4666
z
" id="DejaVuSans-50" transform="scale(0.015625)"/>
       <path d="M 2631 2963
Q 2534 3019 2420 3045
Q 2306 3072 2169 3072
Q 1681 3072 1420 2755
Q 1159 2438 1159 1844
L 1159 0
L 581 0
L 581 3500
L 1159 3500
L 1159 2956
Q 1341 3275 1631 3429
Q 1922 3584 2338 3584
Q 2397 3584 2469 3576
Q 2541 3569 2628 3553
L 2631 2963
z
" id="DejaVuSans-72" transform="scale(0.015625)"/>
       <path d="M 1959 3097
Q 1497 3097 1228 2736
Q 959 2375 959 1747
Q 959 1119 1226 758
Q 1494 397 1959 397
Q 2419 397 2687 759
Q 2956 1122 2956 1747
Q 2956 2369 2687 2733
Q 2419 3097 1959 3097
z
M 1959 3584
Q 2709 3584 3137 3096
Q 3566 2609 3566 1747
Q 3566 888 3137 398
Q 2709 -91 1959 -91
Q 1206 -91 779 398
Q 353 888 353 1747
Q 353 2609 779 3096
Q 1206 3584 1959 3584
z
" id="DejaVuSans-6f" transform="scale(0.015625)"/>
       <path d="M 3116 1747
Q 3116 2381 2855 2742
Q 2594 3103 2138 3103
Q 1681 3103 1420 2742
Q 1159 2381 1159 1747
Q 1159 1113 1420 752
Q 1681 391 2138 391
Q 2594 391 2855 752
Q 3116 1113 3116 1747
z
M 1159 2969
Q 1341 3281 1617 3432
Q 1894 3584 2278 3584
Q 2916 3584 3314 3078
Q 3713 2572 3713 1747
Q 3713 922 3314 415
Q 2916 -91 2278 -91
Q 1894 -91 1617 61
Q 1341 213 1159 525
L 1159 0
L 581 0
L 581 4863
L 1159 4863
L 1159 2969
z
" id="DejaVuSans-62" transform="scale(0.015625)"/>
       <path d="M 2194 1759
Q 1497 1759 1228 1600
Q 959 1441 959 1056
Q 959 750 1161 570
Q 1363 391 1709 391
Q 2188 391 2477 730
Q 2766 1069 2766 1631
L 2766 1759
L 2194 1759
z
M 3341 1997
L 3341 0
L 2766 0
L 2766 531
Q 2569 213 2275 61
Q 1981 -91 1556 -91
Q 1019 -91 701 211
Q 384 513 384 1019
Q 384 1609 779 1909
Q 1175 2209 1959 2209
L 2766 2209
L 2766 2266
Q 2766 2663 2505 2880
Q 2244 3097 1772 3097
Q 1472 3097 1187 3025
Q 903 2953 641 2809
L 641 3341
Q 956 3463 1253 3523
Q 1550 3584 1831 3584
Q 2591 3584 2966 3190
Q 3341 2797 3341 1997
z
" id="DejaVuSans-61" transform="scale(0.015625)"/>
       <path d="M 603 3500
L 1178 3500
L 1178 0
L 603 0
L 603 3500
z
M 603 4863
L 1178 4863
L 1178 4134
L 603 4134
L 603 4863
z
" id="DejaVuSans-69" transform="scale(0.015625)"/>
       <path d="M 603 4863
L 1178 4863
L 1178 0
L 603 0
L 603 4863
z
" id="DejaVuSans-6c" transform="scale(0.015625)"/>
       <path d="M 1172 4494
L 1172 3500
L 2356 3500
L 2356 3053
L 1172 3053
L 1172 1153
Q 1172 725 1289 603
Q 1406 481 1766 481
L 2356 481
L 2356 0
L 1766 0
Q 1100 0 847 248
Q 594 497 594 1153
L 594 3053
L 172 3053
L 172 3500
L 594 3500
L 594 4494
L 1172 4494
z
" id="DejaVuSans-74" transform="scale(0.015625)"/>
       <path d="M 2059 -325
Q 1816 -950 1584 -1140
Q 1353 -1331 966 -1331
L 506 -1331
L 506 -850
L 844 -850
Q 1081 -850 1212 -737
Q 1344 -625 1503 -206
L 1606 56
L 191 3500
L 800 3500
L 1894 763
L 2988 3500
L 3597 3500
L 2059 -325
z
" id="DejaVuSans-79" transform="scale(0.015625)"/>
       <path id="DejaVuSans-20" transform="scale(0.015625)"/>
       <path d="M 1259 4147
L 1259 519
L 2022 519
Q 2988 519 3436 956
Q 3884 1394 3884 2338
Q 3884 3275 3436 3711
Q 2988 4147 2022 4147
L 1259 4147
z
M 628 4666
L 1925 4666
Q 3281 4666 3915 4102
Q 4550 3538 4550 2338
Q 4550 1131 3912 565
Q 3275 0 1925 0
L 628 0
L 628 4666
z
" id="DejaVuSans-44" transform="scale(0.015625)"/>
       <path d="M 3597 1894
L 3597 1613
L 953 1613
Q 991 1019 1311 708
Q 1631 397 2203 397
Q 2534 397 2845 478
Q 3156 559 3463 722
L 3463 178
Q 3153 47 2828 -22
Q 2503 -91 2169 -91
Q 1331 -91 842 396
Q 353 884 353 1716
Q 353 2575 817 3079
Q 1281 3584 2069 3584
Q 2775 3584 3186 3129
Q 3597 2675 3597 1894
z
M 3022 2063
Q 3016 2534 2758 2815
Q 2500 3097 2075 3097
Q 1594 3097 1305 2825
Q 1016 2553 972 2059
L 3022 2063
z
" id="DejaVuSans-65" transform="scale(0.015625)"/>
       <path d="M 3513 2113
L 3513 0
L 2938 0
L 2938 2094
Q 2938 2591 2744 2837
Q 2550 3084 2163 3084
Q 1697 3084 1428 2787
Q 1159 2491 1159 1978
L 1159 0
L 581 0
L 581 3500
L 1159 3500
L 1159 2956
Q 1366 3272 1645 3428
Q 1925 3584 2291 3584
Q 2894 3584 3203 3211
Q 3513 2838 3513 2113
z
" id="DejaVuSans-6e" transform="scale(0.015625)"/>
       <path d="M 2834 3397
L 2834 2853
Q 2591 2978 2328 3040
Q 2066 3103 1784 3103
Q 1356 3103 1142 2972
Q 928 2841 928 2578
Q 928 2378 1081 2264
Q 1234 2150 1697 2047
L 1894 2003
Q 2506 1872 2764 1633
Q 3022 1394 3022 966
Q 3022 478 2636 193
Q 2250 -91 1575 -91
Q 1294 -91 989 -36
Q 684 19 347 128
L 347 722
Q 666 556 975 473
Q 1284 391 1588 391
Q 1994 391 2212 530
Q 2431 669 2431 922
Q 2431 1156 2273 1281
Q 2116 1406 1581 1522
L 1381 1569
Q 847 1681 609 1914
Q 372 2147 372 2553
Q 372 3047 722 3315
Q 1072 3584 1716 3584
Q 2034 3584 2315 3537
Q 2597 3491 2834 3397
z
" id="DejaVuSans-73" transform="scale(0.015625)"/>
      </defs>
      <use xlink:href="#DejaVuSans-50"/>
      <use x="58.552734" xlink:href="#DejaVuSans-72"/>
      <use x="97.416016" xlink:href="#DejaVuSans-6f"/>
      <use x="158.597656" xlink:href="#DejaVuSans-62"/>
      <use x="222.074219" xlink:href="#DejaVuSans-61"/>
      <use x="283.353516" xlink:href="#DejaVuSans-62"/>
      <use x="346.830078" xlink:href="#DejaVuSans-69"/>
      <use x="374.613281" xlink:href="#DejaVuSans-6c"/>
      <use x="402.396484" xlink:href="#DejaVuSans-69"/>
      <use x="430.179688" xlink:href="#DejaVuSans-74"/>
      <use x="469.388672" xlink:href="#DejaVuSans-79"/>
      <use x="528.568359" xlink:href="#DejaVuSans-20"/>
      <use x="560.355469" xlink:href="#DejaVuSans-44"/>
      <use x="637.357422" xlink:href="#DejaVuSans-65"/>
      <use x="698.880859" xlink:href="#DejaVuSans-6e"/>
      <use x="762.259766" xlink:href="#DejaVuSans-73"/>
      <use x="814.359375" xlink:href="#DejaVuSans-69"/>
      <use x="842.142578" xlink:href="#DejaVuSans-74"/>
      <use x="881.351562" xlink:href="#DejaVuSans-79"/>
     </g>
    </g>
   </g>
   <g id="line2d_25">
    <path clip-path="url(#pa4bcce1adf)" d="M 42.41 242.44
L 129.12996 242.330427
L 136.846567 242.085859
L 141.990971 241.724675
L 146.033003 241.245946
L 149.707578 240.590862
L 153.014695 239.758148
L 155.954354 238.769027
L 158.526557 237.667231
L 161.098759 236.302667
L 163.303504 234.890755
L 165.508248 233.224366
L 167.712993 231.273114
L 169.917738 229.005975
L 172.122482 226.391876
L 174.327227 223.400361
L 176.531972 220.002362
L 178.736717 216.171022
L 180.941461 211.8826
L 183.146206 207.117398
L 185.350951 201.860716
L 187.923153 195.095436
L 190.495355 187.647562
L 193.067558 179.52958
L 196.007217 169.468703
L 199.314334 157.237825
L 202.988909 142.689991
L 207.765856 122.716373
L 218.054665 79.315872
L 221.361782 66.504195
L 223.933984 57.317727
L 226.138729 50.120462
L 228.343473 43.649731
L 230.180761 38.876997
L 232.018048 34.717751
L 233.487878 31.86038
L 234.957708 29.441375
L 236.427538 27.477039
L 237.52991 26.310453
L 238.632282 25.412022
L 239.734655 24.78551
L 240.837027 24.433723
L 241.939399 24.358494
L 243.041772 24.560667
L 244.144144 25.040091
L 245.246517 25.795613
L 246.348889 26.825087
L 247.451261 28.125377
L 248.921091 30.273124
L 250.390921 32.882539
L 251.860751 35.93835
L 253.698038 40.358132
L 255.535325 45.406152
L 257.74007 52.227031
L 259.944815 59.795092
L 262.517017 69.436822
L 265.456677 81.320986
L 269.498709 98.704107
L 281.992262 153.32301
L 285.299379 166.498438
L 288.239039 177.381526
L 291.178699 187.376572
L 293.750901 195.340165
L 296.323103 202.548629
L 298.527848 208.122277
L 300.732593 213.144349
L 302.937337 217.629756
L 305.142082 221.600234
L 307.346827 225.083132
L 309.551572 228.110176
L 311.756316 230.716257
L 313.961061 232.938274
L 316.165806 234.814062
L 318.370551 236.381428
L 320.575295 237.677312
L 322.78004 238.737093
L 325.352242 239.719329
L 327.924444 240.473783
L 330.864104 241.112213
L 334.171221 241.610845
L 338.213253 241.994411
L 343.357658 242.253474
L 351.074264 242.398538
L 368.712222 242.439621
L 409.5 242.44
L 409.5 242.44
" style="fill:none;stroke:#0000ff;stroke-linecap:square;stroke-width:3;"/>
   </g>
   <g id="patch_3">
    <path d="M 42.41 242.44
L 42.41 17.28
" style="fill:none;stroke:#000000;stroke-linecap:square;stroke-linejoin:miter;stroke-width:0.8;"/>
   </g>
   <g id="patch_4">
    <path d="M 409.5 242.44
L 409.5 17.28
" style="fill:none;stroke:#000000;stroke-linecap:square;stroke-linejoin:miter;stroke-width:0.8;"/>
   </g>
   <g id="patch_5">
    <path d="M 42.41 242.44
L 409.5 242.44
" style="fill:none;stroke:#000000;stroke-linecap:square;stroke-linejoin:miter;stroke-width:0.8;"/>
   </g>
   <g id="patch_6">
    <path d="M 42.41 17.28
L 409.5 17.28
" style="fill:none;stroke:#000000;stroke-linecap:square;stroke-linejoin:miter;stroke-width:0.8;"/>
   </g>
  </g>
 </g>
 <defs>
  <clipPath id="pa4bcce1adf">
   <rect height="225.16" width="367.09" x="42.41" y="17.28"/>
  </clipPath>
 </defs>
</svg>
