<?xml version="1.0" encoding="utf-8" standalone="no"?>
<!DOCTYPE svg PUBLIC "-//W3C//DTD SVG 1.1//EN"
  "http://www.w3.org/Graphics/SVG/1.1/DTD/svg11.dtd">
<!-- Created with matplotlib (https://matplotlib.org/) -->
<svg height="432pt" version="1.1" viewBox="0 0 432 432" width="432pt" xmlns="http://www.w3.org/2000/svg" xmlns:xlink="http://www.w3.org/1999/xlink">
 <metadata>
  <rdf:RDF xmlns:cc="http://creativecommons.org/ns#" xmlns:dc="http://purl.org/dc/elements/1.1/" xmlns:rdf="http://www.w3.org/1999/02/22-rdf-syntax-ns#">
   <cc:Work>
    <dc:type rdf:resource="http://purl.org/dc/dcmitype/StillImage"/>
    <dc:date>2021-04-27T11:34:10.224872</dc:date>
    <dc:format>image/svg+xml</dc:format>
    <dc:creator>
     <cc:Agent>
      <dc:title>Matplotlib v3.3.4, https://matplotlib.org/</dc:title>
     </cc:Agent>
    </dc:creator>
   </cc:Work>
  </rdf:RDF>
 </metadata>
 <defs>
  <style type="text/css">*{stroke-linecap:butt;stroke-linejoin:round;}</style>
 </defs>
 <g id="figure_1">
  <g id="patch_1">
   <path d="M 0 432 
L 432 432 
L 432 0 
L 0 0 
z
" style="fill:#ffffff;"/>
  </g>
  <g id="axes_1">
   <g id="patch_2">
    <path d="M 50.06 386.44 
L 405.675 386.44 
L 405.675 12.96 
L 50.06 12.96 
z
" style="fill:#ffffff;"/>
   </g>
   <g id="matplotlib.axis_1">
    <g id="xtick_1">
     <g id="line2d_1">
      <defs>
       <path d="M 0 0 
L 0 3.5 
" id="m32defc08a0" style="stroke:#000000;stroke-width:0.8;"/>
      </defs>
      <g>
       <use style="stroke:#000000;stroke-width:0.8;" x="50.06" xlink:href="#m32defc08a0" y="386.44"/>
      </g>
     </g>
     <g id="text_1">
      <!-- 0.00 -->
      <g transform="translate(36.700625 402.558125)scale(0.12 -0.12)">
       <defs>
        <path d="M 31.78125 66.40625 
Q 24.171875 66.40625 20.328125 58.90625 
Q 16.5 51.421875 16.5 36.375 
Q 16.5 21.390625 20.328125 13.890625 
Q 24.171875 6.390625 31.78125 6.390625 
Q 39.453125 6.390625 43.28125 13.890625 
Q 47.125 21.390625 47.125 36.375 
Q 47.125 51.421875 43.28125 58.90625 
Q 39.453125 66.40625 31.78125 66.40625 
z
M 31.78125 74.21875 
Q 44.046875 74.21875 50.515625 64.515625 
Q 56.984375 54.828125 56.984375 36.375 
Q 56.984375 17.96875 50.515625 8.265625 
Q 44.046875 -1.421875 31.78125 -1.421875 
Q 19.53125 -1.421875 13.0625 8.265625 
Q 6.59375 17.96875 6.59375 36.375 
Q 6.59375 54.828125 13.0625 64.515625 
Q 19.53125 74.21875 31.78125 74.21875 
z
" id="DejaVuSans-48"/>
        <path d="M 10.6875 12.40625 
L 21 12.40625 
L 21 0 
L 10.6875 0 
z
" id="DejaVuSans-46"/>
       </defs>
       <use xlink:href="#DejaVuSans-48"/>
       <use x="63.623047" xlink:href="#DejaVuSans-46"/>
       <use x="95.410156" xlink:href="#DejaVuSans-48"/>
       <use x="159.033203" xlink:href="#DejaVuSans-48"/>
      </g>
     </g>
    </g>
    <g id="xtick_2">
     <g id="line2d_2">
      <g>
       <use style="stroke:#000000;stroke-width:0.8;" x="94.511875" xlink:href="#m32defc08a0" y="386.44"/>
      </g>
     </g>
     <g id="text_2">
      <!-- 0.02 -->
      <g transform="translate(81.1525 402.558125)scale(0.12 -0.12)">
       <defs>
        <path d="M 19.1875 8.296875 
L 53.609375 8.296875 
L 53.609375 0 
L 7.328125 0 
L 7.328125 8.296875 
Q 12.9375 14.109375 22.625 23.890625 
Q 32.328125 33.6875 34.8125 36.53125 
Q 39.546875 41.84375 41.421875 45.53125 
Q 43.3125 49.21875 43.3125 52.78125 
Q 43.3125 58.59375 39.234375 62.25 
Q 35.15625 65.921875 28.609375 65.921875 
Q 23.96875 65.921875 18.8125 64.3125 
Q 13.671875 62.703125 7.8125 59.421875 
L 7.8125 69.390625 
Q 13.765625 71.78125 18.9375 73 
Q 24.125 74.21875 28.421875 74.21875 
Q 39.75 74.21875 46.484375 68.546875 
Q 53.21875 62.890625 53.21875 53.421875 
Q 53.21875 48.921875 51.53125 44.890625 
Q 49.859375 40.875 45.40625 35.40625 
Q 44.1875 33.984375 37.640625 27.21875 
Q 31.109375 20.453125 19.1875 8.296875 
z
" id="DejaVuSans-50"/>
       </defs>
       <use xlink:href="#DejaVuSans-48"/>
       <use x="63.623047" xlink:href="#DejaVuSans-46"/>
       <use x="95.410156" xlink:href="#DejaVuSans-48"/>
       <use x="159.033203" xlink:href="#DejaVuSans-50"/>
      </g>
     </g>
    </g>
    <g id="xtick_3">
     <g id="line2d_3">
      <g>
       <use style="stroke:#000000;stroke-width:0.8;" x="138.96375" xlink:href="#m32defc08a0" y="386.44"/>
      </g>
     </g>
     <g id="text_3">
      <!-- 0.04 -->
      <g transform="translate(125.604375 402.558125)scale(0.12 -0.12)">
       <defs>
        <path d="M 37.796875 64.3125 
L 12.890625 25.390625 
L 37.796875 25.390625 
z
M 35.203125 72.90625 
L 47.609375 72.90625 
L 47.609375 25.390625 
L 58.015625 25.390625 
L 58.015625 17.1875 
L 47.609375 17.1875 
L 47.609375 0 
L 37.796875 0 
L 37.796875 17.1875 
L 4.890625 17.1875 
L 4.890625 26.703125 
z
" id="DejaVuSans-52"/>
       </defs>
       <use xlink:href="#DejaVuSans-48"/>
       <use x="63.623047" xlink:href="#DejaVuSans-46"/>
       <use x="95.410156" xlink:href="#DejaVuSans-48"/>
       <use x="159.033203" xlink:href="#DejaVuSans-52"/>
      </g>
     </g>
    </g>
    <g id="xtick_4">
     <g id="line2d_4">
      <g>
       <use style="stroke:#000000;stroke-width:0.8;" x="183.415625" xlink:href="#m32defc08a0" y="386.44"/>
      </g>
     </g>
     <g id="text_4">
      <!-- 0.06 -->
      <g transform="translate(170.05625 402.558125)scale(0.12 -0.12)">
       <defs>
        <path d="M 33.015625 40.375 
Q 26.375 40.375 22.484375 35.828125 
Q 18.609375 31.296875 18.609375 23.390625 
Q 18.609375 15.53125 22.484375 10.953125 
Q 26.375 6.390625 33.015625 6.390625 
Q 39.65625 6.390625 43.53125 10.953125 
Q 47.40625 15.53125 47.40625 23.390625 
Q 47.40625 31.296875 43.53125 35.828125 
Q 39.65625 40.375 33.015625 40.375 
z
M 52.59375 71.296875 
L 52.59375 62.3125 
Q 48.875 64.0625 45.09375 64.984375 
Q 41.3125 65.921875 37.59375 65.921875 
Q 27.828125 65.921875 22.671875 59.328125 
Q 17.53125 52.734375 16.796875 39.40625 
Q 19.671875 43.65625 24.015625 45.921875 
Q 28.375 48.1875 33.59375 48.1875 
Q 44.578125 48.1875 50.953125 41.515625 
Q 57.328125 34.859375 57.328125 23.390625 
Q 57.328125 12.15625 50.6875 5.359375 
Q 44.046875 -1.421875 33.015625 -1.421875 
Q 20.359375 -1.421875 13.671875 8.265625 
Q 6.984375 17.96875 6.984375 36.375 
Q 6.984375 53.65625 15.1875 63.9375 
Q 23.390625 74.21875 37.203125 74.21875 
Q 40.921875 74.21875 44.703125 73.484375 
Q 48.484375 72.75 52.59375 71.296875 
z
" id="DejaVuSans-54"/>
       </defs>
       <use xlink:href="#DejaVuSans-48"/>
       <use x="63.623047" xlink:href="#DejaVuSans-46"/>
       <use x="95.410156" xlink:href="#DejaVuSans-48"/>
       <use x="159.033203" xlink:href="#DejaVuSans-54"/>
      </g>
     </g>
    </g>
    <g id="xtick_5">
     <g id="line2d_5">
      <g>
       <use style="stroke:#000000;stroke-width:0.8;" x="227.8675" xlink:href="#m32defc08a0" y="386.44"/>
      </g>
     </g>
     <g id="text_5">
      <!-- 0.08 -->
      <g transform="translate(214.508125 402.558125)scale(0.12 -0.12)">
       <defs>
        <path d="M 31.78125 34.625 
Q 24.75 34.625 20.71875 30.859375 
Q 16.703125 27.09375 16.703125 20.515625 
Q 16.703125 13.921875 20.71875 10.15625 
Q 24.75 6.390625 31.78125 6.390625 
Q 38.8125 6.390625 42.859375 10.171875 
Q 46.921875 13.96875 46.921875 20.515625 
Q 46.921875 27.09375 42.890625 30.859375 
Q 38.875 34.625 31.78125 34.625 
z
M 21.921875 38.8125 
Q 15.578125 40.375 12.03125 44.71875 
Q 8.5 49.078125 8.5 55.328125 
Q 8.5 64.0625 14.71875 69.140625 
Q 20.953125 74.21875 31.78125 74.21875 
Q 42.671875 74.21875 48.875 69.140625 
Q 55.078125 64.0625 55.078125 55.328125 
Q 55.078125 49.078125 51.53125 44.71875 
Q 48 40.375 41.703125 38.8125 
Q 48.828125 37.15625 52.796875 32.3125 
Q 56.78125 27.484375 56.78125 20.515625 
Q 56.78125 9.90625 50.3125 4.234375 
Q 43.84375 -1.421875 31.78125 -1.421875 
Q 19.734375 -1.421875 13.25 4.234375 
Q 6.78125 9.90625 6.78125 20.515625 
Q 6.78125 27.484375 10.78125 32.3125 
Q 14.796875 37.15625 21.921875 38.8125 
z
M 18.3125 54.390625 
Q 18.3125 48.734375 21.84375 45.5625 
Q 25.390625 42.390625 31.78125 42.390625 
Q 38.140625 42.390625 41.71875 45.5625 
Q 45.3125 48.734375 45.3125 54.390625 
Q 45.3125 60.0625 41.71875 63.234375 
Q 38.140625 66.40625 31.78125 66.40625 
Q 25.390625 66.40625 21.84375 63.234375 
Q 18.3125 60.0625 18.3125 54.390625 
z
" id="DejaVuSans-56"/>
       </defs>
       <use xlink:href="#DejaVuSans-48"/>
       <use x="63.623047" xlink:href="#DejaVuSans-46"/>
       <use x="95.410156" xlink:href="#DejaVuSans-48"/>
       <use x="159.033203" xlink:href="#DejaVuSans-56"/>
      </g>
     </g>
    </g>
    <g id="xtick_6">
     <g id="line2d_6">
      <g>
       <use style="stroke:#000000;stroke-width:0.8;" x="272.319375" xlink:href="#m32defc08a0" y="386.44"/>
      </g>
     </g>
     <g id="text_6">
      <!-- 0.10 -->
      <g transform="translate(258.96 402.558125)scale(0.12 -0.12)">
       <defs>
        <path d="M 12.40625 8.296875 
L 28.515625 8.296875 
L 28.515625 63.921875 
L 10.984375 60.40625 
L 10.984375 69.390625 
L 28.421875 72.90625 
L 38.28125 72.90625 
L 38.28125 8.296875 
L 54.390625 8.296875 
L 54.390625 0 
L 12.40625 0 
z
" id="DejaVuSans-49"/>
       </defs>
       <use xlink:href="#DejaVuSans-48"/>
       <use x="63.623047" xlink:href="#DejaVuSans-46"/>
       <use x="95.410156" xlink:href="#DejaVuSans-49"/>
       <use x="159.033203" xlink:href="#DejaVuSans-48"/>
      </g>
     </g>
    </g>
    <g id="xtick_7">
     <g id="line2d_7">
      <g>
       <use style="stroke:#000000;stroke-width:0.8;" x="316.77125" xlink:href="#m32defc08a0" y="386.44"/>
      </g>
     </g>
     <g id="text_7">
      <!-- 0.12 -->
      <g transform="translate(303.411875 402.558125)scale(0.12 -0.12)">
       <use xlink:href="#DejaVuSans-48"/>
       <use x="63.623047" xlink:href="#DejaVuSans-46"/>
       <use x="95.410156" xlink:href="#DejaVuSans-49"/>
       <use x="159.033203" xlink:href="#DejaVuSans-50"/>
      </g>
     </g>
    </g>
    <g id="xtick_8">
     <g id="line2d_8">
      <g>
       <use style="stroke:#000000;stroke-width:0.8;" x="361.223125" xlink:href="#m32defc08a0" y="386.44"/>
      </g>
     </g>
     <g id="text_8">
      <!-- 0.14 -->
      <g transform="translate(347.86375 402.558125)scale(0.12 -0.12)">
       <use xlink:href="#DejaVuSans-48"/>
       <use x="63.623047" xlink:href="#DejaVuSans-46"/>
       <use x="95.410156" xlink:href="#DejaVuSans-49"/>
       <use x="159.033203" xlink:href="#DejaVuSans-52"/>
      </g>
     </g>
    </g>
    <g id="xtick_9">
     <g id="line2d_9">
      <g>
       <use style="stroke:#000000;stroke-width:0.8;" x="405.675" xlink:href="#m32defc08a0" y="386.44"/>
      </g>
     </g>
     <g id="text_9">
      <!-- 0.16 -->
      <g transform="translate(392.315625 402.558125)scale(0.12 -0.12)">
       <use xlink:href="#DejaVuSans-48"/>
       <use x="63.623047" xlink:href="#DejaVuSans-46"/>
       <use x="95.410156" xlink:href="#DejaVuSans-49"/>
       <use x="159.033203" xlink:href="#DejaVuSans-54"/>
      </g>
     </g>
    </g>
    <g id="text_10">
     <!-- CAGR -->
     <g transform="translate(210.860312 418.171875)scale(0.12 -0.12)">
      <defs>
       <path d="M 64.40625 67.28125 
L 64.40625 56.890625 
Q 59.421875 61.53125 53.78125 63.8125 
Q 48.140625 66.109375 41.796875 66.109375 
Q 29.296875 66.109375 22.65625 58.46875 
Q 16.015625 50.828125 16.015625 36.375 
Q 16.015625 21.96875 22.65625 14.328125 
Q 29.296875 6.6875 41.796875 6.6875 
Q 48.140625 6.6875 53.78125 8.984375 
Q 59.421875 11.28125 64.40625 15.921875 
L 64.40625 5.609375 
Q 59.234375 2.09375 53.4375 0.328125 
Q 47.65625 -1.421875 41.21875 -1.421875 
Q 24.65625 -1.421875 15.125 8.703125 
Q 5.609375 18.84375 5.609375 36.375 
Q 5.609375 53.953125 15.125 64.078125 
Q 24.65625 74.21875 41.21875 74.21875 
Q 47.75 74.21875 53.53125 72.484375 
Q 59.328125 70.75 64.40625 67.28125 
z
" id="DejaVuSans-67"/>
       <path d="M 34.1875 63.1875 
L 20.796875 26.90625 
L 47.609375 26.90625 
z
M 28.609375 72.90625 
L 39.796875 72.90625 
L 67.578125 0 
L 57.328125 0 
L 50.6875 18.703125 
L 17.828125 18.703125 
L 11.1875 0 
L 0.78125 0 
z
" id="DejaVuSans-65"/>
       <path d="M 59.515625 10.40625 
L 59.515625 29.984375 
L 43.40625 29.984375 
L 43.40625 38.09375 
L 69.28125 38.09375 
L 69.28125 6.78125 
Q 63.578125 2.734375 56.6875 0.65625 
Q 49.8125 -1.421875 42 -1.421875 
Q 24.90625 -1.421875 15.25 8.5625 
Q 5.609375 18.5625 5.609375 36.375 
Q 5.609375 54.25 15.25 64.234375 
Q 24.90625 74.21875 42 74.21875 
Q 49.125 74.21875 55.546875 72.453125 
Q 61.96875 70.703125 67.390625 67.28125 
L 67.390625 56.78125 
Q 61.921875 61.421875 55.765625 63.765625 
Q 49.609375 66.109375 42.828125 66.109375 
Q 29.4375 66.109375 22.71875 58.640625 
Q 16.015625 51.171875 16.015625 36.375 
Q 16.015625 21.625 22.71875 14.15625 
Q 29.4375 6.6875 42.828125 6.6875 
Q 48.046875 6.6875 52.140625 7.59375 
Q 56.25 8.5 59.515625 10.40625 
z
" id="DejaVuSans-71"/>
       <path d="M 44.390625 34.1875 
Q 47.5625 33.109375 50.5625 29.59375 
Q 53.5625 26.078125 56.59375 19.921875 
L 66.609375 0 
L 56 0 
L 46.6875 18.703125 
Q 43.0625 26.03125 39.671875 28.421875 
Q 36.28125 30.8125 30.421875 30.8125 
L 19.671875 30.8125 
L 19.671875 0 
L 9.8125 0 
L 9.8125 72.90625 
L 32.078125 72.90625 
Q 44.578125 72.90625 50.734375 67.671875 
Q 56.890625 62.453125 56.890625 51.90625 
Q 56.890625 45.015625 53.6875 40.46875 
Q 50.484375 35.9375 44.390625 34.1875 
z
M 19.671875 64.796875 
L 19.671875 38.921875 
L 32.078125 38.921875 
Q 39.203125 38.921875 42.84375 42.21875 
Q 46.484375 45.515625 46.484375 51.90625 
Q 46.484375 58.296875 42.84375 61.546875 
Q 39.203125 64.796875 32.078125 64.796875 
z
" id="DejaVuSans-82"/>
      </defs>
      <use xlink:href="#DejaVuSans-67"/>
      <use x="69.824219" xlink:href="#DejaVuSans-65"/>
      <use x="136.482422" xlink:href="#DejaVuSans-71"/>
      <use x="213.972656" xlink:href="#DejaVuSans-82"/>
     </g>
    </g>
   </g>
   <g id="matplotlib.axis_2">
    <g id="ytick_1">
     <g id="line2d_10">
      <defs>
       <path d="M 0 0 
L -3.5 0 
" id="m3f1d446b2e" style="stroke:#000000;stroke-width:0.8;"/>
      </defs>
      <g>
       <use style="stroke:#000000;stroke-width:0.8;" x="50.06" xlink:href="#m3f1d446b2e" y="386.44"/>
      </g>
     </g>
     <g id="text_11">
      <!-- 0 -->
      <g transform="translate(35.425 390.999062)scale(0.12 -0.12)">
       <use xlink:href="#DejaVuSans-48"/>
      </g>
     </g>
    </g>
    <g id="ytick_2">
     <g id="line2d_11">
      <g>
       <use style="stroke:#000000;stroke-width:0.8;" x="50.06" xlink:href="#m3f1d446b2e" y="314.616923"/>
      </g>
     </g>
     <g id="text_12">
      <!-- 5 -->
      <g transform="translate(35.425 319.175986)scale(0.12 -0.12)">
       <defs>
        <path d="M 10.796875 72.90625 
L 49.515625 72.90625 
L 49.515625 64.59375 
L 19.828125 64.59375 
L 19.828125 46.734375 
Q 21.96875 47.46875 24.109375 47.828125 
Q 26.265625 48.1875 28.421875 48.1875 
Q 40.625 48.1875 47.75 41.5 
Q 54.890625 34.8125 54.890625 23.390625 
Q 54.890625 11.625 47.5625 5.09375 
Q 40.234375 -1.421875 26.90625 -1.421875 
Q 22.3125 -1.421875 17.546875 -0.640625 
Q 12.796875 0.140625 7.71875 1.703125 
L 7.71875 11.625 
Q 12.109375 9.234375 16.796875 8.0625 
Q 21.484375 6.890625 26.703125 6.890625 
Q 35.15625 6.890625 40.078125 11.328125 
Q 45.015625 15.765625 45.015625 23.390625 
Q 45.015625 31 40.078125 35.4375 
Q 35.15625 39.890625 26.703125 39.890625 
Q 22.75 39.890625 18.8125 39.015625 
Q 14.890625 38.140625 10.796875 36.28125 
z
" id="DejaVuSans-53"/>
       </defs>
       <use xlink:href="#DejaVuSans-53"/>
      </g>
     </g>
    </g>
    <g id="ytick_3">
     <g id="line2d_12">
      <g>
       <use style="stroke:#000000;stroke-width:0.8;" x="50.06" xlink:href="#m3f1d446b2e" y="242.793846"/>
      </g>
     </g>
     <g id="text_13">
      <!-- 10 -->
      <g transform="translate(27.79 247.352909)scale(0.12 -0.12)">
       <use xlink:href="#DejaVuSans-49"/>
       <use x="63.623047" xlink:href="#DejaVuSans-48"/>
      </g>
     </g>
    </g>
    <g id="ytick_4">
     <g id="line2d_13">
      <g>
       <use style="stroke:#000000;stroke-width:0.8;" x="50.06" xlink:href="#m3f1d446b2e" y="170.970769"/>
      </g>
     </g>
     <g id="text_14">
      <!-- 15 -->
      <g transform="translate(27.79 175.529832)scale(0.12 -0.12)">
       <use xlink:href="#DejaVuSans-49"/>
       <use x="63.623047" xlink:href="#DejaVuSans-53"/>
      </g>
     </g>
    </g>
    <g id="ytick_5">
     <g id="line2d_14">
      <g>
       <use style="stroke:#000000;stroke-width:0.8;" x="50.06" xlink:href="#m3f1d446b2e" y="99.147692"/>
      </g>
     </g>
     <g id="text_15">
      <!-- 20 -->
      <g transform="translate(27.79 103.706755)scale(0.12 -0.12)">
       <use xlink:href="#DejaVuSans-50"/>
       <use x="63.623047" xlink:href="#DejaVuSans-48"/>
      </g>
     </g>
    </g>
    <g id="ytick_6">
     <g id="line2d_15">
      <g>
       <use style="stroke:#000000;stroke-width:0.8;" x="50.06" xlink:href="#m3f1d446b2e" y="27.324615"/>
      </g>
     </g>
     <g id="text_16">
      <!-- 25 -->
      <g transform="translate(27.79 31.883678)scale(0.12 -0.12)">
       <use xlink:href="#DejaVuSans-50"/>
       <use x="63.623047" xlink:href="#DejaVuSans-53"/>
      </g>
     </g>
    </g>
    <g id="text_17">
     <!-- Arbitrær værdi -->
     <g transform="translate(21.294375 244.110313)rotate(-90)scale(0.12 -0.12)">
      <defs>
       <path d="M 41.109375 46.296875 
Q 39.59375 47.171875 37.8125 47.578125 
Q 36.03125 48 33.890625 48 
Q 26.265625 48 22.1875 43.046875 
Q 18.109375 38.09375 18.109375 28.8125 
L 18.109375 0 
L 9.078125 0 
L 9.078125 54.6875 
L 18.109375 54.6875 
L 18.109375 46.1875 
Q 20.953125 51.171875 25.484375 53.578125 
Q 30.03125 56 36.53125 56 
Q 37.453125 56 38.578125 55.875 
Q 39.703125 55.765625 41.0625 55.515625 
z
" id="DejaVuSans-114"/>
       <path d="M 48.6875 27.296875 
Q 48.6875 37.203125 44.609375 42.84375 
Q 40.53125 48.484375 33.40625 48.484375 
Q 26.265625 48.484375 22.1875 42.84375 
Q 18.109375 37.203125 18.109375 27.296875 
Q 18.109375 17.390625 22.1875 11.75 
Q 26.265625 6.109375 33.40625 6.109375 
Q 40.53125 6.109375 44.609375 11.75 
Q 48.6875 17.390625 48.6875 27.296875 
z
M 18.109375 46.390625 
Q 20.953125 51.265625 25.265625 53.625 
Q 29.59375 56 35.59375 56 
Q 45.5625 56 51.78125 48.09375 
Q 58.015625 40.1875 58.015625 27.296875 
Q 58.015625 14.40625 51.78125 6.484375 
Q 45.5625 -1.421875 35.59375 -1.421875 
Q 29.59375 -1.421875 25.265625 0.953125 
Q 20.953125 3.328125 18.109375 8.203125 
L 18.109375 0 
L 9.078125 0 
L 9.078125 75.984375 
L 18.109375 75.984375 
z
" id="DejaVuSans-98"/>
       <path d="M 9.421875 54.6875 
L 18.40625 54.6875 
L 18.40625 0 
L 9.421875 0 
z
M 9.421875 75.984375 
L 18.40625 75.984375 
L 18.40625 64.59375 
L 9.421875 64.59375 
z
" id="DejaVuSans-105"/>
       <path d="M 18.3125 70.21875 
L 18.3125 54.6875 
L 36.8125 54.6875 
L 36.8125 47.703125 
L 18.3125 47.703125 
L 18.3125 18.015625 
Q 18.3125 11.328125 20.140625 9.421875 
Q 21.96875 7.515625 27.59375 7.515625 
L 36.8125 7.515625 
L 36.8125 0 
L 27.59375 0 
Q 17.1875 0 13.234375 3.875 
Q 9.28125 7.765625 9.28125 18.015625 
L 9.28125 47.703125 
L 2.6875 47.703125 
L 2.6875 54.6875 
L 9.28125 54.6875 
L 9.28125 70.21875 
z
" id="DejaVuSans-116"/>
       <path d="M 83.890625 32.234375 
Q 83.84375 39.59375 79.8125 43.984375 
Q 75.78125 48.390625 69.09375 48.390625 
Q 61.625 48.390625 57.109375 44.140625 
Q 52.59375 39.890625 51.90625 32.171875 
z
M 48.578125 47.015625 
Q 52.203125 51.421875 57.375 53.703125 
Q 62.546875 56 69 56 
Q 80.03125 56 86.46875 48.890625 
Q 92.921875 41.796875 92.921875 29.59375 
L 92.921875 25.203125 
L 51.609375 25.203125 
Q 52.203125 15.875 57.171875 10.984375 
Q 62.15625 6.109375 71.09375 6.109375 
Q 76.171875 6.109375 81.046875 7.390625 
Q 85.9375 8.6875 90.828125 11.28125 
L 90.828125 2.78125 
Q 85.9375 0.734375 80.859375 -0.34375 
Q 75.78125 -1.421875 70.609375 -1.421875 
Q 62.453125 -1.421875 56.390625 1.53125 
Q 50.34375 4.5 46.578125 10.296875 
Q 43.015625 4.4375 37.734375 1.5 
Q 32.46875 -1.421875 25.484375 -1.421875 
Q 16.265625 -1.421875 11.125 3.140625 
Q 6 7.71875 6 15.921875 
Q 6 25.140625 12.171875 29.828125 
Q 18.359375 34.515625 30.609375 34.515625 
L 43.21875 34.515625 
L 43.21875 35.40625 
Q 43.21875 41.609375 39.140625 45 
Q 35.0625 48.390625 27.6875 48.390625 
Q 23 48.390625 18.546875 47.265625 
Q 14.109375 46.140625 10.015625 43.890625 
L 10.015625 52.203125 
Q 14.9375 54.109375 19.578125 55.046875 
Q 24.21875 56 28.609375 56 
Q 35.546875 56 40.75 53.65625 
Q 45.953125 51.3125 48.578125 47.015625 
z
M 34.28125 27.484375 
Q 23.390625 27.484375 19.1875 25 
Q 14.984375 22.515625 14.984375 16.5 
Q 14.984375 11.71875 18.140625 8.90625 
Q 21.296875 6.109375 26.703125 6.109375 
Q 34.1875 6.109375 38.703125 11.40625 
Q 43.21875 16.703125 43.21875 25.484375 
L 43.21875 27.484375 
z
" id="DejaVuSans-230"/>
       <path id="DejaVuSans-32"/>
       <path d="M 2.984375 54.6875 
L 12.5 54.6875 
L 29.59375 8.796875 
L 46.6875 54.6875 
L 56.203125 54.6875 
L 35.6875 0 
L 23.484375 0 
z
" id="DejaVuSans-118"/>
       <path d="M 45.40625 46.390625 
L 45.40625 75.984375 
L 54.390625 75.984375 
L 54.390625 0 
L 45.40625 0 
L 45.40625 8.203125 
Q 42.578125 3.328125 38.25 0.953125 
Q 33.9375 -1.421875 27.875 -1.421875 
Q 17.96875 -1.421875 11.734375 6.484375 
Q 5.515625 14.40625 5.515625 27.296875 
Q 5.515625 40.1875 11.734375 48.09375 
Q 17.96875 56 27.875 56 
Q 33.9375 56 38.25 53.625 
Q 42.578125 51.265625 45.40625 46.390625 
z
M 14.796875 27.296875 
Q 14.796875 17.390625 18.875 11.75 
Q 22.953125 6.109375 30.078125 6.109375 
Q 37.203125 6.109375 41.296875 11.75 
Q 45.40625 17.390625 45.40625 27.296875 
Q 45.40625 37.203125 41.296875 42.84375 
Q 37.203125 48.484375 30.078125 48.484375 
Q 22.953125 48.484375 18.875 42.84375 
Q 14.796875 37.203125 14.796875 27.296875 
z
" id="DejaVuSans-100"/>
      </defs>
      <use xlink:href="#DejaVuSans-65"/>
      <use x="68.408203" xlink:href="#DejaVuSans-114"/>
      <use x="109.521484" xlink:href="#DejaVuSans-98"/>
      <use x="172.998047" xlink:href="#DejaVuSans-105"/>
      <use x="200.78125" xlink:href="#DejaVuSans-116"/>
      <use x="239.990234" xlink:href="#DejaVuSans-114"/>
      <use x="281.103516" xlink:href="#DejaVuSans-230"/>
      <use x="379.296875" xlink:href="#DejaVuSans-114"/>
      <use x="420.410156" xlink:href="#DejaVuSans-32"/>
      <use x="452.197266" xlink:href="#DejaVuSans-118"/>
      <use x="511.376953" xlink:href="#DejaVuSans-230"/>
      <use x="609.570312" xlink:href="#DejaVuSans-114"/>
      <use x="648.933594" xlink:href="#DejaVuSans-100"/>
      <use x="712.410156" xlink:href="#DejaVuSans-105"/>
     </g>
    </g>
   </g>
   <g id="line2d_16">
    <path clip-path="url(#p4c66f237a2)" d="M 50.06 386.44 
L 103.670302 386.384058 
L 107.244322 386.204129 
L 109.031332 385.987136 
L 110.818342 385.608371 
L 112.605352 384.978914 
L 114.392362 383.983268 
L 116.179372 382.484769 
L 117.966382 380.339362 
L 119.753392 377.417884 
L 121.540402 373.63372 
L 123.327412 368.968907 
L 125.114422 363.489215 
L 126.901432 357.33909 
L 130.475452 343.797978 
L 134.049472 329.505212 
L 135.836482 322.011255 
L 137.623492 313.989584 
L 139.410503 305.109313 
L 141.197513 295.031212 
L 142.984523 283.473336 
L 144.771533 270.25171 
L 146.558543 255.285973 
L 148.345553 238.576375 
L 150.132563 220.172621 
L 151.919573 200.159643 
L 155.493593 155.975491 
L 160.854623 85.977039 
L 162.641633 64.939605 
L 164.428643 46.88563 
L 166.215653 32.890635 
L 168.002663 23.810893 
L 169.789673 20.165105 
L 171.576683 22.064655 
L 173.363693 29.201001 
L 175.150704 40.888488 
L 176.937714 56.153636 
L 178.724724 73.856974 
L 184.085754 130.516728 
L 185.872764 147.774899 
L 187.659774 163.46571 
L 189.446784 177.528201 
L 191.233794 190.09133 
L 193.020804 201.398758 
L 194.807814 211.734985 
L 198.381834 230.468708 
L 201.955854 247.296375 
L 203.742864 254.747862 
L 205.529874 261.134017 
L 207.316884 265.988815 
L 209.103894 268.793646 
L 210.890905 269.061168 
L 212.677915 266.431681 
L 214.464925 260.763649 
L 216.251935 252.19721 
L 218.038945 241.172467 
L 219.825955 228.393298 
L 223.399975 201.153961 
L 225.186985 188.506288 
L 226.973995 177.505702 
L 228.761005 168.640467 
L 230.548015 162.175844 
L 232.335025 158.191145 
L 234.122035 156.635317 
L 235.909045 157.377885 
L 237.696055 160.24023 
L 239.483065 165.00533 
L 241.270075 171.415614 
L 243.057085 179.173031 
L 244.844095 187.951644 
L 248.418116 207.291771 
L 253.779146 237.128315 
L 257.353166 255.828834 
L 259.140176 264.439979 
L 260.927186 272.346998 
L 262.714196 279.38914 
L 264.501206 285.443208 
L 266.288216 290.457292 
L 268.075226 294.471093 
L 269.862236 297.61528 
L 271.649246 300.089652 
L 273.436256 302.126665 
L 278.797286 307.622832 
L 282.371307 311.758835 
L 285.945327 316.025721 
L 287.732337 317.942829 
L 289.519347 319.563683 
L 291.306357 320.806392 
L 293.093367 321.640732 
L 294.880377 322.103489 
L 298.454397 322.398936 
L 300.241407 322.586132 
L 302.028417 323.04137 
L 303.815427 323.89163 
L 305.602437 325.186955 
L 307.389447 326.894991 
L 309.176457 328.916331 
L 314.537487 335.491374 
L 316.324497 337.460691 
L 318.111508 339.193384 
L 319.898518 340.643191 
L 321.685528 341.760631 
L 323.472538 342.479814 
L 325.259548 342.715757 
L 327.046558 342.375067 
L 328.833568 341.378946 
L 330.620578 339.6937 
L 332.407588 337.361167 
L 334.194598 334.52047 
L 337.768618 328.371644 
L 339.555628 325.779091 
L 341.342638 324.026082 
L 343.129648 323.452236 
L 344.916658 324.295294 
L 346.703668 326.653349 
L 348.490678 330.46806 
L 350.277688 335.532038 
L 352.064698 341.518881 
L 357.425729 360.996393 
L 359.212739 366.766547 
L 360.999749 371.756913 
L 362.786759 375.871293 
L 364.573769 379.109301 
L 366.360779 381.543808 
L 368.147789 383.293329 
L 369.934799 384.495381 
L 371.721809 385.285113 
L 373.508819 385.781254 
L 375.295829 386.079304 
L 378.869849 386.344523 
L 386.017889 386.43598 
L 405.675 386.44 
L 405.675 386.44 
" style="fill:none;stroke:#1f77b4;stroke-linecap:square;stroke-width:4;"/>
   </g>
   <g id="line2d_17">
    <path clip-path="url(#p4c66f237a2)" d="M 50.06 386.44 
L 105.457312 386.349003 
L 109.031332 386.068088 
L 110.818342 385.738428 
L 112.605352 385.175988 
L 114.392362 384.264393 
L 116.179372 382.861522 
L 117.966382 380.81275 
L 119.753392 377.974787 
L 121.540402 374.247612 
L 123.327412 369.607251 
L 125.114422 364.128117 
L 126.901432 357.982777 
L 132.262462 337.910239 
L 135.836482 324.393524 
L 137.623492 317.187217 
L 139.410503 309.169965 
L 141.197513 299.91527 
L 142.984523 289.075579 
L 144.771533 276.446873 
L 146.558543 261.983584 
L 148.345553 245.765144 
L 150.132563 227.936875 
L 151.919573 208.659274 
L 155.493593 166.445254 
L 162.641633 77.980367 
L 164.428643 59.292308 
L 166.215653 43.933877 
L 168.002663 32.784095 
L 169.789673 26.470597 
L 171.576683 25.281859 
L 173.363693 29.121806 
L 175.150704 37.51403 
L 176.937714 49.659154 
L 178.724724 64.541672 
L 182.298744 98.22835 
L 185.872764 131.392775 
L 187.659774 146.546972 
L 189.446784 160.588578 
L 191.233794 173.6117 
L 194.807814 197.347165 
L 198.381834 219.221427 
L 201.955854 239.666963 
L 203.742864 248.867723 
L 205.529874 256.763921 
L 207.316884 262.705953 
L 209.103894 266.006776 
L 210.890905 266.07624 
L 212.677915 262.562155 
L 214.464925 255.461871 
L 216.251935 245.171571 
L 218.038945 232.454678 
L 223.399975 190.270646 
L 225.186985 178.210809 
L 226.973995 168.303208 
L 228.761005 160.839582 
L 230.548015 155.907574 
L 232.335025 153.47384 
L 234.122035 153.449198 
L 235.909045 155.714197 
L 237.696055 160.106964 
L 239.483065 166.394689 
L 241.270075 174.256446 
L 243.057085 183.296298 
L 246.631106 203.232339 
L 250.205126 223.402383 
L 253.779146 242.331642 
L 255.566156 251.095272 
L 257.353166 259.253072 
L 259.140176 266.670924 
L 260.927186 273.218088 
L 262.714196 278.80902 
L 264.501206 283.441199 
L 266.288216 287.212868 
L 268.075226 290.313012 
L 271.649246 295.484851 
L 275.223266 300.725872 
L 278.797286 306.746716 
L 282.371307 312.980749 
L 284.158317 315.791975 
L 285.945327 318.181618 
L 287.732337 320.024406 
L 289.519347 321.254561 
L 291.306357 321.885212 
L 293.093367 322.017553 
L 298.454397 321.469487 
L 300.241407 321.7438 
L 302.028417 322.520268 
L 303.815427 323.827791 
L 305.602437 325.60075 
L 309.176457 329.980026 
L 312.750477 334.421983 
L 314.537487 336.348218 
L 316.324497 337.952756 
L 318.111508 339.147668 
L 319.898518 339.835718 
L 321.685528 339.911857 
L 323.472538 339.280144 
L 325.259548 337.883449 
L 327.046558 335.738376 
L 328.833568 332.965039 
L 332.407588 326.594508 
L 334.194598 323.767836 
L 335.981608 321.766691 
L 337.768618 320.993137 
L 339.555628 321.741792 
L 341.342638 324.149904 
L 343.129648 328.172054 
L 344.916658 333.584939 
L 346.703668 340.021356 
L 352.064698 360.884133 
L 353.851709 366.967111 
L 355.638719 372.157776 
L 357.425729 376.366543 
L 359.212739 379.613566 
L 360.999749 381.998993 
L 362.786759 383.668558 
L 364.573769 384.782107 
L 366.360779 385.489945 
L 368.147789 385.918779 
L 371.721809 386.302631 
L 377.082839 386.426754 
L 405.675 386.44 
L 405.675 386.44 
" style="fill:none;stroke:#ff7f0e;stroke-linecap:square;stroke-opacity:0.925;stroke-width:4;"/>
   </g>
   <g id="line2d_18">
    <path clip-path="url(#p4c66f237a2)" d="M 50.06 386.44 
L 105.457312 386.372182 
L 109.031332 386.137633 
L 110.818342 385.847505 
L 112.605352 385.335123 
L 114.392362 384.478748 
L 116.179372 383.12495 
L 117.966382 381.101964 
L 119.753392 378.246386 
L 121.540402 374.441167 
L 123.327412 369.656683 
L 125.114422 363.98093 
L 128.688442 350.878409 
L 132.262462 337.390386 
L 137.623492 317.866275 
L 139.410503 310.381775 
L 141.197513 301.580488 
L 142.984523 291.039615 
L 144.771533 278.514692 
L 146.558543 263.959491 
L 148.345553 247.484365 
L 150.132563 229.280794 
L 151.919573 209.555378 
L 155.493593 166.394752 
L 160.854623 98.408571 
L 162.641633 77.900847 
L 164.428643 60.195094 
L 166.215653 46.26361 
L 168.002663 36.811547 
L 169.789673 32.169097 
L 171.576683 32.25754 
L 173.363693 36.626993 
L 175.150704 44.548451 
L 176.937714 55.137563 
L 178.724724 67.488022 
L 191.233794 160.159495 
L 198.381834 210.329351 
L 201.955854 233.695579 
L 203.742864 243.818965 
L 205.529874 251.988722 
L 207.316884 257.376967 
L 209.103894 259.219556 
L 210.890905 257.004389 
L 212.677915 250.633854 
L 214.464925 240.508056 
L 216.251935 227.496288 
L 221.612965 183.514094 
L 223.399975 171.087145 
L 225.186985 161.053534 
L 226.973995 153.703628 
L 228.761005 149.113094 
L 230.548015 147.249828 
L 232.335025 148.040379 
L 234.122035 151.374398 
L 235.909045 157.06244 
L 237.696055 164.78755 
L 239.483065 174.092412 
L 243.057085 195.212085 
L 246.631106 216.407728 
L 250.205126 235.656742 
L 251.992136 244.410235 
L 253.779146 252.53538 
L 255.566156 259.935795 
L 257.353166 266.481257 
L 259.140176 272.062704 
L 260.927186 276.654303 
L 262.714196 280.353439 
L 264.501206 283.380563 
L 269.862236 291.46182 
L 271.649246 294.647168 
L 273.436256 298.227268 
L 280.584296 313.497851 
L 282.371307 316.440344 
L 284.158317 318.653921 
L 285.945327 320.065821 
L 287.732337 320.702189 
L 289.519347 320.694046 
L 291.306357 320.266544 
L 293.093367 319.707638 
L 294.880377 319.318609 
L 296.667387 319.35685 
L 298.454397 319.986672 
L 300.241407 321.252979 
L 302.028417 323.085108 
L 303.815427 325.327127 
L 309.176457 332.558723 
L 310.963467 334.562674 
L 312.750477 336.136899 
L 314.537487 337.162456 
L 316.324497 337.521143 
L 318.111508 337.106157 
L 319.898518 335.849604 
L 321.685528 333.76023 
L 323.472538 330.959338 
L 327.046558 324.367996 
L 328.833568 321.432571 
L 330.620578 319.396729 
L 332.407588 318.712555 
L 334.194598 319.705338 
L 335.981608 322.514317 
L 337.768618 327.064775 
L 339.555628 333.07793 
L 341.342638 340.11646 
L 344.916658 355.163936 
L 346.703668 362.178328 
L 348.490678 368.356927 
L 350.277688 373.50452 
L 352.064698 377.568568 
L 353.851709 380.612598 
L 355.638719 382.777106 
L 357.425729 384.238746 
L 359.212739 385.176218 
L 360.999749 385.747339 
L 362.786759 386.077809 
L 366.360779 386.354197 
L 373.508819 386.43732 
L 405.675 386.44 
L 405.675 386.44 
" style="fill:none;stroke:#2ca02c;stroke-linecap:square;stroke-opacity:0.85;stroke-width:4;"/>
   </g>
   <g id="line2d_19">
    <path clip-path="url(#p4c66f237a2)" d="M 50.06 386.44 
L 105.457312 386.386281 
L 109.031332 386.183685 
L 110.818342 385.922097 
L 112.605352 385.4462 
L 114.392362 384.628364 
L 116.179372 383.301271 
L 117.966382 381.268706 
L 119.753392 378.331432 
L 121.540402 374.327252 
L 123.327412 369.177314 
L 125.114422 362.923716 
L 126.901432 355.740472 
L 130.475452 339.72747 
L 137.623492 306.322067 
L 139.410503 297.055134 
L 141.197513 286.745877 
L 142.984523 275.07846 
L 144.771533 261.834549 
L 146.558543 246.883693 
L 148.345553 230.151859 
L 150.132563 211.607481 
L 151.919573 191.296802 
L 155.493593 146.494384 
L 159.067613 101.011768 
L 160.854623 80.921245 
L 162.641633 64.309591 
L 164.428643 52.161108 
L 166.215653 44.983177 
L 168.002663 42.729541 
L 169.789673 44.850502 
L 171.576683 50.443855 
L 173.363693 58.455734 
L 175.150704 67.878005 
L 185.872764 128.027567 
L 189.446784 150.003529 
L 193.020804 173.823833 
L 200.168844 222.723228 
L 201.955854 233.508894 
L 203.742864 242.428443 
L 205.529874 248.53132 
L 207.316884 250.914978 
L 209.103894 248.954095 
L 210.890905 242.500762 
L 212.677915 231.985788 
L 214.464925 218.381204 
L 219.825955 172.821788 
L 221.612965 160.331216 
L 223.399975 150.5928 
L 225.186985 143.953464 
L 226.973995 140.542632 
L 228.761005 140.362763 
L 230.548015 143.322368 
L 232.335025 149.207169 
L 234.122035 157.626083 
L 235.909045 167.986158 
L 243.057085 213.973919 
L 244.844095 223.842774 
L 246.631106 232.740654 
L 248.418116 240.805567 
L 250.205126 248.174916 
L 251.992136 254.902376 
L 253.779146 260.942887 
L 255.566156 266.202739 
L 257.353166 270.6229 
L 259.140176 274.252261 
L 260.927186 277.276479 
L 264.501206 282.731419 
L 266.288216 285.789105 
L 268.075226 289.342134 
L 269.862236 293.420121 
L 277.010276 311.286683 
L 278.797286 314.756788 
L 280.584296 317.350269 
L 282.371307 318.970357 
L 284.158317 319.641095 
L 285.945327 319.514405 
L 287.732337 318.857226 
L 289.519347 318.014102 
L 291.306357 317.347812 
L 293.093367 317.170171 
L 294.880377 317.681804 
L 296.667387 318.938991 
L 298.454397 320.856812 
L 300.241407 323.24441 
L 303.815427 328.443883 
L 305.602437 330.781171 
L 307.389447 332.679315 
L 309.176457 333.978137 
L 310.963467 334.539261 
L 312.750477 334.249993 
L 314.537487 333.044802 
L 316.324497 330.941182 
L 318.111508 328.078004 
L 321.685528 321.35389 
L 323.472538 318.447613 
L 325.259548 316.577263 
L 327.046558 316.233994 
L 328.833568 317.752863 
L 330.620578 321.245631 
L 332.407588 326.574587 
L 334.194598 333.374195 
L 341.342638 364.170322 
L 343.129648 370.275715 
L 344.916658 375.209549 
L 346.703668 378.97962 
L 348.490678 381.706301 
L 350.277688 383.573847 
L 352.064698 384.785479 
L 353.851709 385.530154 
L 355.638719 385.963713 
L 357.425729 386.202814 
L 360.999749 386.389475 
L 369.934799 386.439573 
L 405.675 386.44 
L 405.675 386.44 
" style="fill:none;stroke:#d62728;stroke-linecap:square;stroke-opacity:0.775;stroke-width:4;"/>
   </g>
   <g id="line2d_20">
    <path clip-path="url(#p4c66f237a2)" d="M 50.06 386.44 
L 105.457312 386.383181 
L 109.031332 386.162951 
L 110.818342 385.87431 
L 112.605352 385.343143 
L 114.392362 384.419318 
L 116.179372 382.900761 
L 117.966382 380.541314 
L 119.753392 377.075035 
L 121.540402 372.257216 
L 123.327412 365.915401 
L 125.114422 357.996638 
L 126.901432 348.593873 
L 128.688442 337.938052 
L 132.262462 314.184253 
L 137.623492 276.435114 
L 141.197513 250.049094 
L 142.984523 235.759237 
L 144.771533 220.282533 
L 146.558543 203.360445 
L 148.345553 184.917961 
L 151.919573 144.59525 
L 155.493593 104.718086 
L 157.280603 87.645199 
L 159.067613 73.920121 
L 160.854623 64.291505 
L 162.641633 59.076102 
L 164.428643 58.120052 
L 166.215653 60.860977 
L 168.002663 66.468389 
L 169.789673 74.017764 
L 173.363693 91.67839 
L 176.937714 109.306243 
L 180.511734 125.685614 
L 184.085754 141.82845 
L 187.659774 159.285828 
L 191.233794 178.949376 
L 194.807814 200.789946 
L 198.381834 223.236036 
L 200.168844 233.345187 
L 201.955854 241.518474 
L 203.742864 246.700708 
L 205.529874 247.939916 
L 207.316884 244.622261 
L 209.103894 236.663319 
L 210.890905 224.590507 
L 212.677915 209.484649 
L 216.251935 176.092962 
L 218.038945 160.820925 
L 219.825955 148.137355 
L 221.612965 138.848738 
L 223.399975 133.429754 
L 225.186985 132.07445 
L 226.973995 134.730555 
L 228.761005 141.097637 
L 230.548015 150.608679 
L 232.335025 162.438627 
L 237.696055 201.723095 
L 239.483065 213.202118 
L 241.270075 223.163391 
L 243.057085 231.686346 
L 244.844095 239.051763 
L 246.631106 245.57777 
L 248.418116 251.48617 
L 250.205126 256.847385 
L 251.992136 261.61422 
L 253.779146 265.715255 
L 255.566156 269.156097 
L 257.353166 272.079569 
L 260.927186 277.537887 
L 262.714196 280.725738 
L 264.501206 284.521039 
L 266.288216 288.955406 
L 273.436256 308.613229 
L 275.223266 312.337349 
L 277.010276 315.030216 
L 278.797286 316.604797 
L 280.584296 317.126272 
L 282.371307 316.810738 
L 285.945327 315.097625 
L 287.732337 314.513278 
L 289.519347 314.5647 
L 291.306357 315.425688 
L 293.093367 317.098001 
L 294.880377 319.427066 
L 300.241407 327.569887 
L 302.028417 329.717115 
L 303.815427 331.206663 
L 305.602437 331.889004 
L 307.389447 331.662019 
L 309.176457 330.48258 
L 310.963467 328.393919 
L 312.750477 325.559833 
L 316.324497 319.031353 
L 318.111508 316.336973 
L 319.898518 314.777268 
L 321.685528 314.845562 
L 323.472538 316.860242 
L 325.259548 320.896542 
L 327.046558 326.76551 
L 328.833568 334.045887 
L 334.194598 358.410521 
L 335.981608 365.503888 
L 337.768618 371.472552 
L 339.555628 376.210746 
L 341.342638 379.76449 
L 343.129648 382.284743 
L 344.916658 383.975407 
L 346.703668 385.048375 
L 348.490678 385.692585 
L 350.277688 386.058466 
L 353.851709 386.354861 
L 360.999749 386.437752 
L 405.675 386.44 
L 405.675 386.44 
" style="fill:none;stroke:#9467bd;stroke-linecap:square;stroke-opacity:0.7;stroke-width:4;"/>
   </g>
   <g id="line2d_21">
    <path clip-path="url(#p4c66f237a2)" d="M 50.06 386.44 
L 103.670302 386.376215 
L 107.244322 386.144528 
L 109.031332 385.846778 
L 110.818342 385.301904 
L 112.605352 384.35231 
L 114.392362 382.776251 
L 116.179372 380.285472 
L 117.966382 376.538209 
L 119.753392 371.173157 
L 121.540402 363.865355 
L 123.327412 354.396765 
L 125.114422 342.724885 
L 126.901432 329.025938 
L 128.688442 313.689947 
L 132.262462 280.295638 
L 142.984523 177.945221 
L 148.345553 122.169481 
L 150.132563 105.206059 
L 151.919573 90.708753 
L 153.706583 79.527153 
L 155.493593 72.135198 
L 157.280603 68.537434 
L 159.067613 68.301427 
L 160.854623 70.706043 
L 162.641633 74.9575 
L 164.428643 80.401564 
L 166.215653 86.660881 
L 168.002663 93.653283 
L 169.789673 101.492063 
L 171.576683 110.315695 
L 173.363693 120.122391 
L 180.511734 162.218676 
L 182.298744 171.315184 
L 184.085754 179.515894 
L 187.659774 194.264791 
L 191.233794 209.034677 
L 196.594824 232.690717 
L 198.381834 239.482376 
L 200.168844 244.406503 
L 201.955854 246.490938 
L 203.742864 244.874462 
L 205.529874 239.012447 
L 207.316884 228.847969 
L 209.103894 214.894829 
L 210.890905 198.203302 
L 214.464925 162.559645 
L 216.251935 146.817838 
L 218.038945 134.353687 
L 219.825955 126.184525 
L 221.612965 122.915647 
L 223.399975 124.709976 
L 225.186985 131.281198 
L 226.973995 141.915195 
L 228.761005 155.5385 
L 234.122035 201.324253 
L 235.909045 214.472883 
L 237.696055 225.540517 
L 239.483065 234.527126 
L 241.270075 241.725577 
L 243.057085 247.555845 
L 244.844095 252.410422 
L 246.631106 256.561622 
L 248.418116 260.151774 
L 250.205126 263.25141 
L 251.992136 265.944295 
L 255.566156 270.847333 
L 257.353166 273.608759 
L 259.140176 276.942859 
L 260.927186 281.003151 
L 262.714196 285.779117 
L 269.862236 306.7382 
L 271.649246 310.596784 
L 273.436256 313.31499 
L 275.223266 314.818608 
L 277.010276 315.204042 
L 278.797286 314.732847 
L 282.371307 312.847462 
L 284.158317 312.317787 
L 285.945327 312.526711 
L 287.732337 313.620418 
L 289.519347 315.551201 
L 291.306357 318.103874 
L 294.880377 323.751508 
L 296.667387 326.156858 
L 298.454397 327.900625 
L 300.241407 328.78503 
L 302.028417 328.689959 
L 303.815427 327.581143 
L 305.602437 325.529895 
L 307.389447 322.739243 
L 310.963467 316.485205 
L 312.750477 314.090998 
L 314.537487 312.960119 
L 316.324497 313.571579 
L 318.111508 316.20405 
L 319.898518 320.873514 
L 321.685528 327.323975 
L 323.472538 335.073739 
L 328.833568 359.896543 
L 330.620578 366.861705 
L 332.407588 372.6249 
L 334.194598 377.125239 
L 335.981608 380.445837 
L 337.768618 382.762499 
L 339.555628 384.291157 
L 341.342638 385.245244 
L 343.129648 385.808449 
L 344.916658 386.122851 
L 348.490678 386.371608 
L 355.638719 386.438323 
L 405.675 386.44 
L 405.675 386.44 
" style="fill:none;stroke:#8c564b;stroke-linecap:square;stroke-opacity:0.625;stroke-width:4;"/>
   </g>
   <g id="line2d_22">
    <path clip-path="url(#p4c66f237a2)" d="M 50.06 386.44 
L 98.309271 386.387795 
L 101.883291 386.212503 
L 103.670302 385.994761 
L 105.457312 385.603158 
L 107.244322 384.926727 
L 109.031332 383.803019 
L 110.818342 382.006392 
L 112.605352 379.241593 
L 114.392362 375.148967 
L 116.179372 369.32837 
L 117.966382 361.386679 
L 119.753392 351.00726 
L 121.540402 338.029475 
L 123.327412 322.515808 
L 125.114422 304.779465 
L 128.688442 264.887665 
L 134.049472 202.962771 
L 137.623492 163.787384 
L 141.197513 126.785429 
L 142.984523 109.761647 
L 144.771533 94.534689 
L 146.558543 81.869415 
L 148.345553 72.44125 
L 150.132563 66.646415 
L 151.919573 64.480182 
L 153.706583 65.531768 
L 155.493593 69.104302 
L 157.280603 74.421949 
L 159.067613 80.851789 
L 160.854623 88.060013 
L 162.641633 96.045021 
L 164.428643 105.036189 
L 166.215653 115.298981 
L 168.002663 126.924155 
L 171.576683 153.024495 
L 173.363693 166.165423 
L 175.150704 178.31992 
L 176.937714 188.897384 
L 178.724724 197.647662 
L 180.511734 204.690917 
L 182.298744 210.43716 
L 191.233794 235.708883 
L 193.020804 240.833755 
L 194.807814 245.096692 
L 196.594824 247.687819 
L 198.381834 247.701868 
L 200.168844 244.279888 
L 201.955854 236.797806 
L 203.742864 225.067569 
L 205.529874 209.492872 
L 207.316884 191.118457 
L 210.890905 152.655056 
L 212.677915 136.389513 
L 214.464925 124.344663 
L 216.251935 117.577167 
L 218.038945 116.477972 
L 219.825955 120.783736 
L 221.612965 129.69049 
L 223.399975 142.028594 
L 226.973995 171.675242 
L 228.761005 186.553046 
L 230.548015 200.29105 
L 232.335025 212.461108 
L 234.122035 222.992822 
L 235.909045 232.083016 
L 237.696055 240.057038 
L 239.483065 247.224731 
L 241.270075 253.776829 
L 243.057085 259.752029 
L 244.844095 265.076655 
L 246.631106 269.650493 
L 248.418116 273.436897 
L 250.205126 276.518921 
L 251.992136 279.102538 
L 255.566156 283.922551 
L 257.353166 286.690636 
L 259.140176 289.91176 
L 260.927186 293.599739 
L 268.075226 309.527375 
L 269.862236 312.374057 
L 271.649246 314.241323 
L 273.436256 315.066788 
L 275.223266 314.981883 
L 277.010276 314.303006 
L 278.797286 313.467236 
L 280.584296 312.92704 
L 282.371307 313.036417 
L 284.158317 313.96581 
L 285.945327 315.671757 
L 287.732337 317.925197 
L 291.306357 322.657559 
L 293.093367 324.408355 
L 294.880377 325.362354 
L 296.667387 325.349309 
L 298.454397 324.315056 
L 300.241407 322.338711 
L 302.028417 319.650442 
L 305.602437 313.82398 
L 307.389447 311.808756 
L 309.176457 311.174105 
L 310.963467 312.375413 
L 312.750477 315.645828 
L 314.537487 320.941593 
L 316.324497 327.944504 
L 318.111508 336.120945 
L 321.685528 353.393005 
L 323.472538 361.282652 
L 325.259548 368.102655 
L 327.046558 373.657249 
L 328.833568 377.92802 
L 330.620578 381.031429 
L 332.407588 383.164068 
L 334.194598 384.550386 
L 335.981608 385.402911 
L 337.768618 385.89885 
L 339.555628 386.171733 
L 343.129648 386.383606 
L 352.064698 386.439551 
L 405.675 386.44 
L 405.675 386.44 
" style="fill:none;stroke:#e377c2;stroke-linecap:square;stroke-opacity:0.55;stroke-width:4;"/>
   </g>
   <g id="line2d_23">
    <path clip-path="url(#p4c66f237a2)" d="M 50.06 386.44 
L 92.948241 386.376284 
L 96.522261 386.180929 
L 98.309271 385.949055 
L 100.096281 385.544495 
L 101.883291 384.863977 
L 103.670302 383.758017 
L 105.457312 382.019099 
L 107.244322 379.372631 
L 109.031332 375.475833 
L 110.818342 369.931094 
L 112.605352 362.31976 
L 114.392362 352.258034 
L 116.179372 339.468882 
L 117.966382 323.854588 
L 119.753392 305.548266 
L 121.540402 284.923818 
L 125.114422 239.127843 
L 130.475452 169.038227 
L 132.262462 147.397539 
L 134.049472 127.216669 
L 135.836482 108.8361 
L 137.623492 92.658838 
L 139.410503 79.144231 
L 141.197513 68.740555 
L 142.984523 61.776526 
L 144.771533 58.353465 
L 146.558543 58.285044 
L 148.345553 61.116666 
L 150.132563 66.226686 
L 151.919573 72.979282 
L 153.706583 80.877211 
L 155.493593 89.660966 
L 157.280603 99.319153 
L 159.067613 110.006131 
L 160.854623 121.895578 
L 162.641633 135.021413 
L 169.789673 191.742215 
L 171.576683 203.587579 
L 173.363693 213.420579 
L 175.150704 221.197198 
L 176.937714 227.180233 
L 178.724724 231.822925 
L 180.511734 235.61318 
L 182.298744 238.931439 
L 184.085754 241.960562 
L 185.872764 244.657546 
L 187.659774 246.770488 
L 189.446784 247.874062 
L 191.233794 247.406899 
L 193.020804 244.715797 
L 194.807814 239.129043 
L 196.594824 230.080336 
L 198.381834 217.282819 
L 200.168844 200.918539 
L 201.955854 181.779789 
L 205.529874 141.374543 
L 207.316884 124.138565 
L 209.103894 111.494531 
L 210.890905 104.765573 
L 212.677915 104.424799 
L 214.464925 110.033137 
L 216.251935 120.39358 
L 218.038945 133.870123 
L 223.399975 177.773116 
L 225.186985 190.655025 
L 228.761005 213.726306 
L 234.122035 247.686592 
L 237.696055 270.513373 
L 239.483065 280.716808 
L 241.270075 289.336376 
L 243.057085 295.93274 
L 244.844095 300.304929 
L 246.631106 302.537273 
L 248.418116 302.988406 
L 250.205126 302.22519 
L 253.779146 299.699521 
L 255.566156 299.0774 
L 257.353166 299.324109 
L 259.140176 300.465912 
L 260.927186 302.312932 
L 264.501206 306.788688 
L 266.288216 308.770192 
L 268.075226 310.329163 
L 269.862236 311.467827 
L 275.223266 314.005499 
L 277.010276 315.192972 
L 278.797286 316.703664 
L 284.158317 322.100943 
L 285.945327 323.524711 
L 287.732337 324.401602 
L 289.519347 324.560438 
L 291.306357 323.890047 
L 293.093367 322.36321 
L 294.880377 320.066177 
L 300.241407 311.574812 
L 302.028417 309.856782 
L 303.815427 309.625824 
L 305.602437 311.299222 
L 307.389447 315.064025 
L 309.176457 320.828104 
L 310.963467 328.230003 
L 314.537487 345.588587 
L 316.324497 354.231731 
L 318.111508 362.09838 
L 319.898518 368.828176 
L 321.685528 374.255282 
L 323.472538 378.388183 
L 325.259548 381.363342 
L 327.046558 383.389051 
L 328.833568 384.693921 
L 330.620578 385.489183 
L 332.407588 385.947733 
L 334.194598 386.197855 
L 337.768618 386.389869 
L 346.703668 386.439615 
L 405.675 386.44 
L 405.675 386.44 
" style="fill:none;stroke:#7f7f7f;stroke-linecap:square;stroke-opacity:0.475;stroke-width:4;"/>
   </g>
   <g id="line2d_24">
    <path clip-path="url(#p4c66f237a2)" d="M 50.06 386.44 
L 87.587211 386.369425 
L 91.161231 386.157816 
L 92.948241 385.909528 
L 94.735251 385.479963 
L 96.522261 384.763382 
L 98.309271 383.608268 
L 100.096281 381.806056 
L 101.883291 379.082253 
L 103.670302 375.094341 
L 105.457312 369.442169 
L 107.244322 361.696312 
L 109.031332 351.446838 
L 110.818342 338.368797 
L 112.605352 322.293007 
L 114.392362 303.26451 
L 116.179372 281.570236 
L 119.753392 232.41078 
L 125.114422 155.386163 
L 126.901432 131.764684 
L 128.688442 110.217591 
L 130.475452 91.296927 
L 132.262462 75.51187 
L 134.049472 63.295616 
L 135.836482 54.939633 
L 137.623492 50.518115 
L 139.410503 49.837321 
L 141.197513 52.440577 
L 142.984523 57.680837 
L 144.771533 64.846755 
L 146.558543 73.306442 
L 148.345553 82.624487 
L 150.132563 92.615542 
L 151.919573 103.318441 
L 153.706583 114.900579 
L 155.493593 127.524142 
L 157.280603 141.216951 
L 164.428643 199.777411 
L 166.215653 212.470824 
L 168.002663 223.373144 
L 169.789673 232.322065 
L 171.576683 239.386206 
L 173.363693 244.793422 
L 175.150704 248.822177 
L 176.937714 251.689611 
L 178.724724 253.467797 
L 180.511734 254.048202 
L 182.298744 253.158505 
L 184.085754 250.4214 
L 185.872764 245.436587 
L 187.659774 237.866898 
L 189.446784 227.516119 
L 191.233794 214.394828 
L 193.020804 198.775632 
L 196.594824 162.678766 
L 198.381834 144.303506 
L 200.168844 127.513997 
L 201.955854 113.745584 
L 203.742864 104.238341 
L 205.529874 99.806866 
L 207.316884 100.676513 
L 209.103894 106.445816 
L 210.890905 116.197615 
L 212.677915 128.730608 
L 216.251935 157.565338 
L 226.973995 246.539025 
L 230.548015 276.926322 
L 232.335025 290.835512 
L 234.122035 302.940402 
L 235.909045 312.56274 
L 237.696055 319.201464 
L 239.483065 322.637221 
L 241.270075 322.989844 
L 243.057085 320.710343 
L 244.844095 316.504912 
L 250.205126 300.5073 
L 251.992136 296.290971 
L 253.779146 293.290817 
L 255.566156 291.637712 
L 257.353166 291.3545 
L 259.140176 292.400148 
L 260.927186 294.687534 
L 262.714196 298.077044 
L 264.501206 302.361057 
L 268.075226 312.422303 
L 269.862236 317.48564 
L 271.649246 322.095036 
L 273.436256 325.960014 
L 275.223266 328.882196 
L 277.010276 330.765975 
L 278.797286 331.608749 
L 280.584296 331.475148 
L 282.371307 330.464096 
L 284.158317 328.680546 
L 285.945327 326.22391 
L 287.732337 323.200561 
L 293.093367 312.663814 
L 294.880377 309.818578 
L 296.667387 308.116109 
L 298.454397 308.051694 
L 300.241407 309.988561 
L 302.028417 314.066398 
L 303.815427 320.152918 
L 305.602437 327.854199 
L 312.750477 362.353375 
L 314.537487 369.095686 
L 316.324497 374.500157 
L 318.111508 378.590924 
L 319.898518 381.517724 
L 321.685528 383.498143 
L 323.472538 384.765835 
L 325.259548 385.533552 
L 327.046558 385.97341 
L 328.833568 386.211814 
L 332.407588 386.393303 
L 341.342638 386.439651 
L 405.675 386.44 
L 405.675 386.44 
" style="fill:none;stroke:#bcbd22;stroke-linecap:square;stroke-opacity:0.4;stroke-width:4;"/>
   </g>
   <g id="line2d_25">
    <path clip-path="url(#p4c66f237a2)" d="M 50.06 386.44 
L 82.226181 386.358062 
L 85.800201 386.115523 
L 87.587211 385.833777 
L 89.374221 385.350891 
L 91.161231 384.554245 
L 92.948241 383.286146 
L 94.735251 381.33444 
L 96.522261 378.425425 
L 98.309271 374.222197 
L 100.096281 368.332717 
L 101.883291 360.332062 
L 103.670302 349.801869 
L 105.457312 336.386034 
L 107.244322 319.855964 
L 109.031332 300.17292 
L 110.818342 277.53207 
L 112.605352 252.375306 
L 116.179372 197.345664 
L 119.753392 142.041027 
L 121.540402 116.682847 
L 123.327412 94.056227 
L 125.114422 74.933127 
L 126.901432 59.9167 
L 128.688442 49.37662 
L 130.475452 43.390859 
L 132.262462 41.718599 
L 134.049472 43.826098 
L 135.836482 48.972031 
L 137.623492 56.337598 
L 139.410503 65.169362 
L 142.984523 85.196198 
L 146.558543 107.351135 
L 148.345553 119.464737 
L 150.132563 132.451918 
L 153.706583 160.861378 
L 157.280603 190.430239 
L 159.067613 204.378569 
L 160.854623 217.051783 
L 162.641633 228.043956 
L 164.428643 237.127654 
L 166.215653 244.260383 
L 168.002663 249.5395 
L 169.789673 253.118551 
L 171.576683 255.111192 
L 173.363693 255.514373 
L 175.150704 254.177676 
L 176.937714 250.831067 
L 178.724724 245.163635 
L 180.511734 236.928702 
L 182.298744 226.043161 
L 184.085754 212.654212 
L 185.872764 197.161531 
L 193.020804 129.311063 
L 194.807814 115.648398 
L 196.594824 105.179594 
L 198.381834 98.567973 
L 200.168844 96.181661 
L 201.955854 98.057157 
L 203.742864 103.924076 
L 205.529874 113.287448 
L 207.316884 125.542158 
L 209.103894 140.082616 
L 210.890905 156.375549 
L 214.464925 192.533466 
L 221.612965 268.848277 
L 223.399975 286.188655 
L 225.186985 301.741008 
L 226.973995 314.938107 
L 228.761005 325.281981 
L 230.548015 332.408926 
L 232.335025 336.148009 
L 234.122035 336.558221 
L 235.909045 333.93374 
L 237.696055 328.775973 
L 239.483065 321.741133 
L 244.844095 296.981157 
L 246.631106 290.025012 
L 248.418116 284.811591 
L 250.205126 281.806132 
L 251.992136 281.279657 
L 253.779146 283.271457 
L 255.566156 287.577401 
L 257.353166 293.773546 
L 259.140176 301.273263 
L 262.714196 317.495678 
L 264.501206 324.938029 
L 266.288216 331.245547 
L 268.075226 336.081899 
L 269.862236 339.273047 
L 271.649246 340.80088 
L 273.436256 340.779331 
L 275.223266 339.415343 
L 277.010276 336.961529 
L 278.797286 333.672252 
L 280.584296 329.776761 
L 284.158317 320.986188 
L 285.945327 316.548896 
L 287.732337 312.500329 
L 289.519347 309.262987 
L 291.306357 307.313818 
L 293.093367 307.107859 
L 294.880377 308.979692 
L 296.667387 313.052752 
L 298.454397 319.186551 
L 300.241407 326.980648 
L 307.389447 362.051406 
L 309.176457 368.909269 
L 310.963467 374.399316 
L 312.750477 378.546598 
L 314.537487 381.505996 
L 316.324497 383.501999 
L 318.111508 384.774863 
L 319.898518 385.542456 
L 321.685528 385.980205 
L 323.472538 386.216283 
L 327.046558 386.39472 
L 335.981608 386.439672 
L 405.675 386.44 
L 405.675 386.44 
" style="fill:none;stroke:#17becf;stroke-linecap:square;stroke-opacity:0.325;stroke-width:4;"/>
   </g>
   <g id="line2d_26">
    <path clip-path="url(#p4c66f237a2)" d="M 50.06 386.44 
L 76.865151 386.338736 
L 80.439171 386.039505 
L 82.226181 385.695545 
L 84.013191 385.113563 
L 85.800201 384.16944 
L 87.587211 382.696757 
L 89.374221 380.481316 
L 91.161231 377.257524 
L 92.948241 372.707774 
L 94.735251 366.467005 
L 96.522261 358.135888 
L 98.309271 347.306708 
L 100.096281 333.604818 
L 101.883291 316.744914 
L 103.670302 296.595833 
L 105.457312 273.242296 
L 107.244322 247.029722 
L 110.818342 188.777728 
L 114.392362 129.620199 
L 116.179372 102.762436 
L 117.966382 79.332685 
L 119.753392 60.320002 
L 121.540402 46.388571 
L 123.327412 37.784914 
L 125.114422 34.305124 
L 126.901432 35.342828 
L 128.688442 40.015353 
L 130.475452 47.338404 
L 132.262462 56.401939 
L 135.836482 77.194778 
L 139.410503 99.786933 
L 142.984523 124.357318 
L 146.558543 151.479949 
L 153.706583 208.34404 
L 155.493593 220.768285 
L 157.280603 231.522621 
L 159.067613 240.261032 
L 160.854623 246.787295 
L 162.641633 251.047766 
L 164.428643 253.084256 
L 166.215653 252.966685 
L 168.002663 250.73514 
L 169.789673 246.377641 
L 171.576683 239.853531 
L 173.363693 231.150626 
L 175.150704 220.348664 
L 176.937714 207.660967 
L 178.724724 193.440549 
L 185.872764 131.727384 
L 187.659774 118.229951 
L 189.446784 106.87719 
L 191.233794 98.34196 
L 193.020804 93.212502 
L 194.807814 91.936123 
L 196.594824 94.776563 
L 198.381834 101.791395 
L 200.168844 112.827421 
L 201.955854 127.529078 
L 203.742864 145.357846 
L 205.529874 165.624614 
L 209.103894 210.255052 
L 212.677915 254.857908 
L 214.464925 275.28299 
L 216.251935 293.631271 
L 218.038945 309.401819 
L 219.825955 322.196987 
L 221.612965 331.738476 
L 223.399975 337.887302 
L 225.186985 340.659096 
L 226.973995 340.228325 
L 228.761005 336.921321 
L 230.548015 331.202879 
L 232.335025 323.660903 
L 237.696055 297.359895 
L 239.483065 289.970991 
L 241.270075 284.44199 
L 243.057085 281.244989 
L 244.844095 280.623427 
L 246.631106 282.58026 
L 248.418116 286.897946 
L 250.205126 293.17791 
L 251.992136 300.886114 
L 257.353166 326.180234 
L 259.140176 333.216302 
L 260.927186 338.714558 
L 262.714196 342.416001 
L 264.501206 344.258368 
L 266.288216 344.354925 
L 268.075226 342.945757 
L 269.862236 340.337776 
L 271.649246 336.85074 
L 273.436256 332.781533 
L 278.797286 319.584366 
L 280.584296 315.654277 
L 282.371307 312.425008 
L 284.158317 310.238957 
L 285.945327 309.450564 
L 287.732337 310.368696 
L 289.519347 313.185267 
L 291.306357 317.911821 
L 293.093367 324.346414 
L 294.880377 332.08498 
L 300.241407 357.42838 
L 302.028417 364.763506 
L 303.815427 370.936332 
L 305.602437 375.839822 
L 307.389447 379.520522 
L 309.176457 382.13271 
L 310.963467 383.885918 
L 312.750477 384.998764 
L 314.537487 385.666759 
L 316.324497 386.045886 
L 319.898518 386.352461 
L 325.259548 386.433858 
L 378.869849 386.44 
L 405.675 386.44 
L 405.675 386.44 
" style="fill:none;stroke:#1f77b4;stroke-linecap:square;stroke-opacity:0.25;stroke-width:4;"/>
   </g>
   <g id="patch_3">
    <path d="M 50.06 386.44 
L 50.06 12.96 
" style="fill:none;stroke:#000000;stroke-linecap:square;stroke-linejoin:miter;stroke-width:0.8;"/>
   </g>
   <g id="patch_4">
    <path d="M 405.675 386.44 
L 405.675 12.96 
" style="fill:none;stroke:#000000;stroke-linecap:square;stroke-linejoin:miter;stroke-width:0.8;"/>
   </g>
   <g id="patch_5">
    <path d="M 50.06 386.44 
L 405.675 386.44 
" style="fill:none;stroke:#000000;stroke-linecap:square;stroke-linejoin:miter;stroke-width:0.8;"/>
   </g>
   <g id="patch_6">
    <path d="M 50.06 12.96 
L 405.675 12.96 
" style="fill:none;stroke:#000000;stroke-linecap:square;stroke-linejoin:miter;stroke-width:0.8;"/>
   </g>
   <g id="legend_1">
    <g id="patch_7">
     <path d="M 258.97125 216.31125 
L 397.275 216.31125 
Q 399.675 216.31125 399.675 213.91125 
L 399.675 21.36 
Q 399.675 18.96 397.275 18.96 
L 258.97125 18.96 
Q 256.57125 18.96 256.57125 21.36 
L 256.57125 213.91125 
Q 256.57125 216.31125 258.97125 216.31125 
z
" style="fill:#ffffff;opacity:0.8;stroke:#cccccc;stroke-linejoin:miter;"/>
    </g>
    <g id="line2d_27">
     <path d="M 261.37125 28.678125 
L 285.37125 28.678125 
" style="fill:none;stroke:#1f77b4;stroke-linecap:square;stroke-width:4;"/>
    </g>
    <g id="line2d_28"/>
    <g id="text_18">
     <!-- Udbytte = 0% -->
     <g transform="translate(294.97125 32.878125)scale(0.12 -0.12)">
      <defs>
       <path d="M 8.6875 72.90625 
L 18.609375 72.90625 
L 18.609375 28.609375 
Q 18.609375 16.890625 22.84375 11.734375 
Q 27.09375 6.59375 36.625 6.59375 
Q 46.09375 6.59375 50.34375 11.734375 
Q 54.59375 16.890625 54.59375 28.609375 
L 54.59375 72.90625 
L 64.5 72.90625 
L 64.5 27.390625 
Q 64.5 13.140625 57.4375 5.859375 
Q 50.390625 -1.421875 36.625 -1.421875 
Q 22.796875 -1.421875 15.734375 5.859375 
Q 8.6875 13.140625 8.6875 27.390625 
z
" id="DejaVuSans-85"/>
       <path d="M 32.171875 -5.078125 
Q 28.375 -14.84375 24.75 -17.8125 
Q 21.140625 -20.796875 15.09375 -20.796875 
L 7.90625 -20.796875 
L 7.90625 -13.28125 
L 13.1875 -13.28125 
Q 16.890625 -13.28125 18.9375 -11.515625 
Q 21 -9.765625 23.484375 -3.21875 
L 25.09375 0.875 
L 2.984375 54.6875 
L 12.5 54.6875 
L 29.59375 11.921875 
L 46.6875 54.6875 
L 56.203125 54.6875 
z
" id="DejaVuSans-121"/>
       <path d="M 56.203125 29.59375 
L 56.203125 25.203125 
L 14.890625 25.203125 
Q 15.484375 15.921875 20.484375 11.0625 
Q 25.484375 6.203125 34.421875 6.203125 
Q 39.59375 6.203125 44.453125 7.46875 
Q 49.3125 8.734375 54.109375 11.28125 
L 54.109375 2.78125 
Q 49.265625 0.734375 44.1875 -0.34375 
Q 39.109375 -1.421875 33.890625 -1.421875 
Q 20.796875 -1.421875 13.15625 6.1875 
Q 5.515625 13.8125 5.515625 26.8125 
Q 5.515625 40.234375 12.765625 48.109375 
Q 20.015625 56 32.328125 56 
Q 43.359375 56 49.78125 48.890625 
Q 56.203125 41.796875 56.203125 29.59375 
z
M 47.21875 32.234375 
Q 47.125 39.59375 43.09375 43.984375 
Q 39.0625 48.390625 32.421875 48.390625 
Q 24.90625 48.390625 20.390625 44.140625 
Q 15.875 39.890625 15.1875 32.171875 
z
" id="DejaVuSans-101"/>
       <path d="M 10.59375 45.40625 
L 73.1875 45.40625 
L 73.1875 37.203125 
L 10.59375 37.203125 
z
M 10.59375 25.484375 
L 73.1875 25.484375 
L 73.1875 17.1875 
L 10.59375 17.1875 
z
" id="DejaVuSans-61"/>
       <path d="M 72.703125 32.078125 
Q 68.453125 32.078125 66.03125 28.46875 
Q 63.625 24.859375 63.625 18.40625 
Q 63.625 12.0625 66.03125 8.421875 
Q 68.453125 4.78125 72.703125 4.78125 
Q 76.859375 4.78125 79.265625 8.421875 
Q 81.6875 12.0625 81.6875 18.40625 
Q 81.6875 24.8125 79.265625 28.4375 
Q 76.859375 32.078125 72.703125 32.078125 
z
M 72.703125 38.28125 
Q 80.421875 38.28125 84.953125 32.90625 
Q 89.5 27.546875 89.5 18.40625 
Q 89.5 9.28125 84.9375 3.921875 
Q 80.375 -1.421875 72.703125 -1.421875 
Q 64.890625 -1.421875 60.34375 3.921875 
Q 55.8125 9.28125 55.8125 18.40625 
Q 55.8125 27.59375 60.375 32.9375 
Q 64.9375 38.28125 72.703125 38.28125 
z
M 22.3125 68.015625 
Q 18.109375 68.015625 15.6875 64.375 
Q 13.28125 60.75 13.28125 54.390625 
Q 13.28125 47.953125 15.671875 44.328125 
Q 18.0625 40.71875 22.3125 40.71875 
Q 26.5625 40.71875 28.96875 44.328125 
Q 31.390625 47.953125 31.390625 54.390625 
Q 31.390625 60.6875 28.953125 64.34375 
Q 26.515625 68.015625 22.3125 68.015625 
z
M 66.40625 74.21875 
L 74.21875 74.21875 
L 28.609375 -1.421875 
L 20.796875 -1.421875 
z
M 22.3125 74.21875 
Q 30.03125 74.21875 34.609375 68.875 
Q 39.203125 63.53125 39.203125 54.390625 
Q 39.203125 45.171875 34.640625 39.84375 
Q 30.078125 34.515625 22.3125 34.515625 
Q 14.546875 34.515625 10.03125 39.859375 
Q 5.515625 45.21875 5.515625 54.390625 
Q 5.515625 63.484375 10.046875 68.84375 
Q 14.59375 74.21875 22.3125 74.21875 
z
" id="DejaVuSans-37"/>
      </defs>
      <use xlink:href="#DejaVuSans-85"/>
      <use x="73.193359" xlink:href="#DejaVuSans-100"/>
      <use x="136.669922" xlink:href="#DejaVuSans-98"/>
      <use x="200.146484" xlink:href="#DejaVuSans-121"/>
      <use x="259.326172" xlink:href="#DejaVuSans-116"/>
      <use x="298.535156" xlink:href="#DejaVuSans-116"/>
      <use x="337.744141" xlink:href="#DejaVuSans-101"/>
      <use x="399.267578" xlink:href="#DejaVuSans-32"/>
      <use x="431.054688" xlink:href="#DejaVuSans-61"/>
      <use x="514.84375" xlink:href="#DejaVuSans-32"/>
      <use x="546.630859" xlink:href="#DejaVuSans-48"/>
      <use x="610.253906" xlink:href="#DejaVuSans-37"/>
     </g>
    </g>
    <g id="line2d_29">
     <path d="M 261.37125 46.291875 
L 285.37125 46.291875 
" style="fill:none;stroke:#ff7f0e;stroke-linecap:square;stroke-opacity:0.925;stroke-width:4;"/>
    </g>
    <g id="line2d_30"/>
    <g id="text_19">
     <!-- Udbytte = 10% -->
     <g transform="translate(294.97125 50.491875)scale(0.12 -0.12)">
      <use xlink:href="#DejaVuSans-85"/>
      <use x="73.193359" xlink:href="#DejaVuSans-100"/>
      <use x="136.669922" xlink:href="#DejaVuSans-98"/>
      <use x="200.146484" xlink:href="#DejaVuSans-121"/>
      <use x="259.326172" xlink:href="#DejaVuSans-116"/>
      <use x="298.535156" xlink:href="#DejaVuSans-116"/>
      <use x="337.744141" xlink:href="#DejaVuSans-101"/>
      <use x="399.267578" xlink:href="#DejaVuSans-32"/>
      <use x="431.054688" xlink:href="#DejaVuSans-61"/>
      <use x="514.84375" xlink:href="#DejaVuSans-32"/>
      <use x="546.630859" xlink:href="#DejaVuSans-49"/>
      <use x="610.253906" xlink:href="#DejaVuSans-48"/>
      <use x="673.876953" xlink:href="#DejaVuSans-37"/>
     </g>
    </g>
    <g id="line2d_31">
     <path d="M 261.37125 63.905625 
L 285.37125 63.905625 
" style="fill:none;stroke:#2ca02c;stroke-linecap:square;stroke-opacity:0.85;stroke-width:4;"/>
    </g>
    <g id="line2d_32"/>
    <g id="text_20">
     <!-- Udbytte = 20% -->
     <g transform="translate(294.97125 68.105625)scale(0.12 -0.12)">
      <use xlink:href="#DejaVuSans-85"/>
      <use x="73.193359" xlink:href="#DejaVuSans-100"/>
      <use x="136.669922" xlink:href="#DejaVuSans-98"/>
      <use x="200.146484" xlink:href="#DejaVuSans-121"/>
      <use x="259.326172" xlink:href="#DejaVuSans-116"/>
      <use x="298.535156" xlink:href="#DejaVuSans-116"/>
      <use x="337.744141" xlink:href="#DejaVuSans-101"/>
      <use x="399.267578" xlink:href="#DejaVuSans-32"/>
      <use x="431.054688" xlink:href="#DejaVuSans-61"/>
      <use x="514.84375" xlink:href="#DejaVuSans-32"/>
      <use x="546.630859" xlink:href="#DejaVuSans-50"/>
      <use x="610.253906" xlink:href="#DejaVuSans-48"/>
      <use x="673.876953" xlink:href="#DejaVuSans-37"/>
     </g>
    </g>
    <g id="line2d_33">
     <path d="M 261.37125 81.519375 
L 285.37125 81.519375 
" style="fill:none;stroke:#d62728;stroke-linecap:square;stroke-opacity:0.775;stroke-width:4;"/>
    </g>
    <g id="line2d_34"/>
    <g id="text_21">
     <!-- Udbytte = 30% -->
     <g transform="translate(294.97125 85.719375)scale(0.12 -0.12)">
      <defs>
       <path d="M 40.578125 39.3125 
Q 47.65625 37.796875 51.625 33 
Q 55.609375 28.21875 55.609375 21.1875 
Q 55.609375 10.40625 48.1875 4.484375 
Q 40.765625 -1.421875 27.09375 -1.421875 
Q 22.515625 -1.421875 17.65625 -0.515625 
Q 12.796875 0.390625 7.625 2.203125 
L 7.625 11.71875 
Q 11.71875 9.328125 16.59375 8.109375 
Q 21.484375 6.890625 26.8125 6.890625 
Q 36.078125 6.890625 40.9375 10.546875 
Q 45.796875 14.203125 45.796875 21.1875 
Q 45.796875 27.640625 41.28125 31.265625 
Q 36.765625 34.90625 28.71875 34.90625 
L 20.21875 34.90625 
L 20.21875 43.015625 
L 29.109375 43.015625 
Q 36.375 43.015625 40.234375 45.921875 
Q 44.09375 48.828125 44.09375 54.296875 
Q 44.09375 59.90625 40.109375 62.90625 
Q 36.140625 65.921875 28.71875 65.921875 
Q 24.65625 65.921875 20.015625 65.03125 
Q 15.375 64.15625 9.8125 62.3125 
L 9.8125 71.09375 
Q 15.4375 72.65625 20.34375 73.4375 
Q 25.25 74.21875 29.59375 74.21875 
Q 40.828125 74.21875 47.359375 69.109375 
Q 53.90625 64.015625 53.90625 55.328125 
Q 53.90625 49.265625 50.4375 45.09375 
Q 46.96875 40.921875 40.578125 39.3125 
z
" id="DejaVuSans-51"/>
      </defs>
      <use xlink:href="#DejaVuSans-85"/>
      <use x="73.193359" xlink:href="#DejaVuSans-100"/>
      <use x="136.669922" xlink:href="#DejaVuSans-98"/>
      <use x="200.146484" xlink:href="#DejaVuSans-121"/>
      <use x="259.326172" xlink:href="#DejaVuSans-116"/>
      <use x="298.535156" xlink:href="#DejaVuSans-116"/>
      <use x="337.744141" xlink:href="#DejaVuSans-101"/>
      <use x="399.267578" xlink:href="#DejaVuSans-32"/>
      <use x="431.054688" xlink:href="#DejaVuSans-61"/>
      <use x="514.84375" xlink:href="#DejaVuSans-32"/>
      <use x="546.630859" xlink:href="#DejaVuSans-51"/>
      <use x="610.253906" xlink:href="#DejaVuSans-48"/>
      <use x="673.876953" xlink:href="#DejaVuSans-37"/>
     </g>
    </g>
    <g id="line2d_35">
     <path d="M 261.37125 99.133125 
L 285.37125 99.133125 
" style="fill:none;stroke:#9467bd;stroke-linecap:square;stroke-opacity:0.7;stroke-width:4;"/>
    </g>
    <g id="line2d_36"/>
    <g id="text_22">
     <!-- Udbytte = 40% -->
     <g transform="translate(294.97125 103.333125)scale(0.12 -0.12)">
      <use xlink:href="#DejaVuSans-85"/>
      <use x="73.193359" xlink:href="#DejaVuSans-100"/>
      <use x="136.669922" xlink:href="#DejaVuSans-98"/>
      <use x="200.146484" xlink:href="#DejaVuSans-121"/>
      <use x="259.326172" xlink:href="#DejaVuSans-116"/>
      <use x="298.535156" xlink:href="#DejaVuSans-116"/>
      <use x="337.744141" xlink:href="#DejaVuSans-101"/>
      <use x="399.267578" xlink:href="#DejaVuSans-32"/>
      <use x="431.054688" xlink:href="#DejaVuSans-61"/>
      <use x="514.84375" xlink:href="#DejaVuSans-32"/>
      <use x="546.630859" xlink:href="#DejaVuSans-52"/>
      <use x="610.253906" xlink:href="#DejaVuSans-48"/>
      <use x="673.876953" xlink:href="#DejaVuSans-37"/>
     </g>
    </g>
    <g id="line2d_37">
     <path d="M 261.37125 116.746875 
L 285.37125 116.746875 
" style="fill:none;stroke:#8c564b;stroke-linecap:square;stroke-opacity:0.625;stroke-width:4;"/>
    </g>
    <g id="line2d_38"/>
    <g id="text_23">
     <!-- Udbytte = 50% -->
     <g transform="translate(294.97125 120.946875)scale(0.12 -0.12)">
      <use xlink:href="#DejaVuSans-85"/>
      <use x="73.193359" xlink:href="#DejaVuSans-100"/>
      <use x="136.669922" xlink:href="#DejaVuSans-98"/>
      <use x="200.146484" xlink:href="#DejaVuSans-121"/>
      <use x="259.326172" xlink:href="#DejaVuSans-116"/>
      <use x="298.535156" xlink:href="#DejaVuSans-116"/>
      <use x="337.744141" xlink:href="#DejaVuSans-101"/>
      <use x="399.267578" xlink:href="#DejaVuSans-32"/>
      <use x="431.054688" xlink:href="#DejaVuSans-61"/>
      <use x="514.84375" xlink:href="#DejaVuSans-32"/>
      <use x="546.630859" xlink:href="#DejaVuSans-53"/>
      <use x="610.253906" xlink:href="#DejaVuSans-48"/>
      <use x="673.876953" xlink:href="#DejaVuSans-37"/>
     </g>
    </g>
    <g id="line2d_39">
     <path d="M 261.37125 134.360625 
L 285.37125 134.360625 
" style="fill:none;stroke:#e377c2;stroke-linecap:square;stroke-opacity:0.55;stroke-width:4;"/>
    </g>
    <g id="line2d_40"/>
    <g id="text_24">
     <!-- Udbytte = 60% -->
     <g transform="translate(294.97125 138.560625)scale(0.12 -0.12)">
      <use xlink:href="#DejaVuSans-85"/>
      <use x="73.193359" xlink:href="#DejaVuSans-100"/>
      <use x="136.669922" xlink:href="#DejaVuSans-98"/>
      <use x="200.146484" xlink:href="#DejaVuSans-121"/>
      <use x="259.326172" xlink:href="#DejaVuSans-116"/>
      <use x="298.535156" xlink:href="#DejaVuSans-116"/>
      <use x="337.744141" xlink:href="#DejaVuSans-101"/>
      <use x="399.267578" xlink:href="#DejaVuSans-32"/>
      <use x="431.054688" xlink:href="#DejaVuSans-61"/>
      <use x="514.84375" xlink:href="#DejaVuSans-32"/>
      <use x="546.630859" xlink:href="#DejaVuSans-54"/>
      <use x="610.253906" xlink:href="#DejaVuSans-48"/>
      <use x="673.876953" xlink:href="#DejaVuSans-37"/>
     </g>
    </g>
    <g id="line2d_41">
     <path d="M 261.37125 151.974375 
L 285.37125 151.974375 
" style="fill:none;stroke:#7f7f7f;stroke-linecap:square;stroke-opacity:0.475;stroke-width:4;"/>
    </g>
    <g id="line2d_42"/>
    <g id="text_25">
     <!-- Udbytte = 70% -->
     <g transform="translate(294.97125 156.174375)scale(0.12 -0.12)">
      <defs>
       <path d="M 8.203125 72.90625 
L 55.078125 72.90625 
L 55.078125 68.703125 
L 28.609375 0 
L 18.3125 0 
L 43.21875 64.59375 
L 8.203125 64.59375 
z
" id="DejaVuSans-55"/>
      </defs>
      <use xlink:href="#DejaVuSans-85"/>
      <use x="73.193359" xlink:href="#DejaVuSans-100"/>
      <use x="136.669922" xlink:href="#DejaVuSans-98"/>
      <use x="200.146484" xlink:href="#DejaVuSans-121"/>
      <use x="259.326172" xlink:href="#DejaVuSans-116"/>
      <use x="298.535156" xlink:href="#DejaVuSans-116"/>
      <use x="337.744141" xlink:href="#DejaVuSans-101"/>
      <use x="399.267578" xlink:href="#DejaVuSans-32"/>
      <use x="431.054688" xlink:href="#DejaVuSans-61"/>
      <use x="514.84375" xlink:href="#DejaVuSans-32"/>
      <use x="546.630859" xlink:href="#DejaVuSans-55"/>
      <use x="610.253906" xlink:href="#DejaVuSans-48"/>
      <use x="673.876953" xlink:href="#DejaVuSans-37"/>
     </g>
    </g>
    <g id="line2d_43">
     <path d="M 261.37125 169.588125 
L 285.37125 169.588125 
" style="fill:none;stroke:#bcbd22;stroke-linecap:square;stroke-opacity:0.4;stroke-width:4;"/>
    </g>
    <g id="line2d_44"/>
    <g id="text_26">
     <!-- Udbytte = 80% -->
     <g transform="translate(294.97125 173.788125)scale(0.12 -0.12)">
      <use xlink:href="#DejaVuSans-85"/>
      <use x="73.193359" xlink:href="#DejaVuSans-100"/>
      <use x="136.669922" xlink:href="#DejaVuSans-98"/>
      <use x="200.146484" xlink:href="#DejaVuSans-121"/>
      <use x="259.326172" xlink:href="#DejaVuSans-116"/>
      <use x="298.535156" xlink:href="#DejaVuSans-116"/>
      <use x="337.744141" xlink:href="#DejaVuSans-101"/>
      <use x="399.267578" xlink:href="#DejaVuSans-32"/>
      <use x="431.054688" xlink:href="#DejaVuSans-61"/>
      <use x="514.84375" xlink:href="#DejaVuSans-32"/>
      <use x="546.630859" xlink:href="#DejaVuSans-56"/>
      <use x="610.253906" xlink:href="#DejaVuSans-48"/>
      <use x="673.876953" xlink:href="#DejaVuSans-37"/>
     </g>
    </g>
    <g id="line2d_45">
     <path d="M 261.37125 187.201875 
L 285.37125 187.201875 
" style="fill:none;stroke:#17becf;stroke-linecap:square;stroke-opacity:0.325;stroke-width:4;"/>
    </g>
    <g id="line2d_46"/>
    <g id="text_27">
     <!-- Udbytte = 90% -->
     <g transform="translate(294.97125 191.401875)scale(0.12 -0.12)">
      <defs>
       <path d="M 10.984375 1.515625 
L 10.984375 10.5 
Q 14.703125 8.734375 18.5 7.8125 
Q 22.3125 6.890625 25.984375 6.890625 
Q 35.75 6.890625 40.890625 13.453125 
Q 46.046875 20.015625 46.78125 33.40625 
Q 43.953125 29.203125 39.59375 26.953125 
Q 35.25 24.703125 29.984375 24.703125 
Q 19.046875 24.703125 12.671875 31.3125 
Q 6.296875 37.9375 6.296875 49.421875 
Q 6.296875 60.640625 12.9375 67.421875 
Q 19.578125 74.21875 30.609375 74.21875 
Q 43.265625 74.21875 49.921875 64.515625 
Q 56.59375 54.828125 56.59375 36.375 
Q 56.59375 19.140625 48.40625 8.859375 
Q 40.234375 -1.421875 26.421875 -1.421875 
Q 22.703125 -1.421875 18.890625 -0.6875 
Q 15.09375 0.046875 10.984375 1.515625 
z
M 30.609375 32.421875 
Q 37.25 32.421875 41.125 36.953125 
Q 45.015625 41.5 45.015625 49.421875 
Q 45.015625 57.28125 41.125 61.84375 
Q 37.25 66.40625 30.609375 66.40625 
Q 23.96875 66.40625 20.09375 61.84375 
Q 16.21875 57.28125 16.21875 49.421875 
Q 16.21875 41.5 20.09375 36.953125 
Q 23.96875 32.421875 30.609375 32.421875 
z
" id="DejaVuSans-57"/>
      </defs>
      <use xlink:href="#DejaVuSans-85"/>
      <use x="73.193359" xlink:href="#DejaVuSans-100"/>
      <use x="136.669922" xlink:href="#DejaVuSans-98"/>
      <use x="200.146484" xlink:href="#DejaVuSans-121"/>
      <use x="259.326172" xlink:href="#DejaVuSans-116"/>
      <use x="298.535156" xlink:href="#DejaVuSans-116"/>
      <use x="337.744141" xlink:href="#DejaVuSans-101"/>
      <use x="399.267578" xlink:href="#DejaVuSans-32"/>
      <use x="431.054688" xlink:href="#DejaVuSans-61"/>
      <use x="514.84375" xlink:href="#DejaVuSans-32"/>
      <use x="546.630859" xlink:href="#DejaVuSans-57"/>
      <use x="610.253906" xlink:href="#DejaVuSans-48"/>
      <use x="673.876953" xlink:href="#DejaVuSans-37"/>
     </g>
    </g>
    <g id="line2d_47">
     <path d="M 261.37125 204.815625 
L 285.37125 204.815625 
" style="fill:none;stroke:#1f77b4;stroke-linecap:square;stroke-opacity:0.25;stroke-width:4;"/>
    </g>
    <g id="line2d_48"/>
    <g id="text_28">
     <!-- Udbytte = 100% -->
     <g transform="translate(294.97125 209.015625)scale(0.12 -0.12)">
      <use xlink:href="#DejaVuSans-85"/>
      <use x="73.193359" xlink:href="#DejaVuSans-100"/>
      <use x="136.669922" xlink:href="#DejaVuSans-98"/>
      <use x="200.146484" xlink:href="#DejaVuSans-121"/>
      <use x="259.326172" xlink:href="#DejaVuSans-116"/>
      <use x="298.535156" xlink:href="#DejaVuSans-116"/>
      <use x="337.744141" xlink:href="#DejaVuSans-101"/>
      <use x="399.267578" xlink:href="#DejaVuSans-32"/>
      <use x="431.054688" xlink:href="#DejaVuSans-61"/>
      <use x="514.84375" xlink:href="#DejaVuSans-32"/>
      <use x="546.630859" xlink:href="#DejaVuSans-49"/>
      <use x="610.253906" xlink:href="#DejaVuSans-48"/>
      <use x="673.876953" xlink:href="#DejaVuSans-48"/>
      <use x="737.5" xlink:href="#DejaVuSans-37"/>
     </g>
    </g>
   </g>
  </g>
 </g>
 <defs>
  <clipPath id="p4c66f237a2">
   <rect height="373.48" width="355.615" x="50.06" y="12.96"/>
  </clipPath>
 </defs>
</svg>
