<?xml version="1.0" encoding="utf-8" standalone="no"?>
<!DOCTYPE svg PUBLIC "-//W3C//DTD SVG 1.1//EN"
  "http://www.w3.org/Graphics/SVG/1.1/DTD/svg11.dtd">
<!-- Created with matplotlib (https://matplotlib.org/) -->
<svg height="720pt" version="1.1" viewBox="0 0 432 720" width="432pt" xmlns="http://www.w3.org/2000/svg" xmlns:xlink="http://www.w3.org/1999/xlink">
 <metadata>
  <rdf:RDF xmlns:cc="http://creativecommons.org/ns#" xmlns:dc="http://purl.org/dc/elements/1.1/" xmlns:rdf="http://www.w3.org/1999/02/22-rdf-syntax-ns#">
   <cc:Work>
    <dc:type rdf:resource="http://purl.org/dc/dcmitype/StillImage"/>
    <dc:date>2021-04-27T11:50:31.493075</dc:date>
    <dc:format>image/svg+xml</dc:format>
    <dc:creator>
     <cc:Agent>
      <dc:title>Matplotlib v3.3.4, https://matplotlib.org/</dc:title>
     </cc:Agent>
    </dc:creator>
   </cc:Work>
  </rdf:RDF>
 </metadata>
 <defs>
  <style type="text/css">*{stroke-linecap:butt;stroke-linejoin:round;}</style>
 </defs>
 <g id="figure_1">
  <g id="patch_1">
   <path d="M 0 720 
L 432 720 
L 432 0 
L 0 0 
z
" style="fill:#ffffff;"/>
  </g>
  <g id="axes_1">
   <g id="patch_2">
    <path d="M 71.57 163.75 
L 419.04 163.75 
L 419.04 29.05125 
L 71.57 29.05125 
z
" style="fill:#ffffff;"/>
   </g>
   <g id="matplotlib.axis_1">
    <g id="xtick_1">
     <g id="line2d_1">
      <path clip-path="url(#pa0e505506f)" d="M 87.364091 163.75 
L 87.364091 29.05125 
" style="fill:none;stroke:#b0b0b0;stroke-linecap:square;stroke-width:0.8;"/>
     </g>
     <g id="line2d_2">
      <defs>
       <path d="M 0 0 
L 0 3.5 
" id="m64d4d65f27" style="stroke:#000000;stroke-width:0.8;"/>
      </defs>
      <g>
       <use style="stroke:#000000;stroke-width:0.8;" x="87.364091" xlink:href="#m64d4d65f27" y="163.75"/>
      </g>
     </g>
    </g>
    <g id="xtick_2">
     <g id="line2d_3">
      <path clip-path="url(#pa0e505506f)" d="M 118.952273 163.75 
L 118.952273 29.05125 
" style="fill:none;stroke:#b0b0b0;stroke-linecap:square;stroke-width:0.8;"/>
     </g>
     <g id="line2d_4">
      <g>
       <use style="stroke:#000000;stroke-width:0.8;" x="118.952273" xlink:href="#m64d4d65f27" y="163.75"/>
      </g>
     </g>
    </g>
    <g id="xtick_3">
     <g id="line2d_5">
      <path clip-path="url(#pa0e505506f)" d="M 150.540455 163.75 
L 150.540455 29.05125 
" style="fill:none;stroke:#b0b0b0;stroke-linecap:square;stroke-width:0.8;"/>
     </g>
     <g id="line2d_6">
      <g>
       <use style="stroke:#000000;stroke-width:0.8;" x="150.540455" xlink:href="#m64d4d65f27" y="163.75"/>
      </g>
     </g>
    </g>
    <g id="xtick_4">
     <g id="line2d_7">
      <path clip-path="url(#pa0e505506f)" d="M 182.128636 163.75 
L 182.128636 29.05125 
" style="fill:none;stroke:#b0b0b0;stroke-linecap:square;stroke-width:0.8;"/>
     </g>
     <g id="line2d_8">
      <g>
       <use style="stroke:#000000;stroke-width:0.8;" x="182.128636" xlink:href="#m64d4d65f27" y="163.75"/>
      </g>
     </g>
    </g>
    <g id="xtick_5">
     <g id="line2d_9">
      <path clip-path="url(#pa0e505506f)" d="M 213.716818 163.75 
L 213.716818 29.05125 
" style="fill:none;stroke:#b0b0b0;stroke-linecap:square;stroke-width:0.8;"/>
     </g>
     <g id="line2d_10">
      <g>
       <use style="stroke:#000000;stroke-width:0.8;" x="213.716818" xlink:href="#m64d4d65f27" y="163.75"/>
      </g>
     </g>
    </g>
    <g id="xtick_6">
     <g id="line2d_11">
      <path clip-path="url(#pa0e505506f)" d="M 245.305 163.75 
L 245.305 29.05125 
" style="fill:none;stroke:#b0b0b0;stroke-linecap:square;stroke-width:0.8;"/>
     </g>
     <g id="line2d_12">
      <g>
       <use style="stroke:#000000;stroke-width:0.8;" x="245.305" xlink:href="#m64d4d65f27" y="163.75"/>
      </g>
     </g>
    </g>
    <g id="xtick_7">
     <g id="line2d_13">
      <path clip-path="url(#pa0e505506f)" d="M 276.893182 163.75 
L 276.893182 29.05125 
" style="fill:none;stroke:#b0b0b0;stroke-linecap:square;stroke-width:0.8;"/>
     </g>
     <g id="line2d_14">
      <g>
       <use style="stroke:#000000;stroke-width:0.8;" x="276.893182" xlink:href="#m64d4d65f27" y="163.75"/>
      </g>
     </g>
    </g>
    <g id="xtick_8">
     <g id="line2d_15">
      <path clip-path="url(#pa0e505506f)" d="M 308.481364 163.75 
L 308.481364 29.05125 
" style="fill:none;stroke:#b0b0b0;stroke-linecap:square;stroke-width:0.8;"/>
     </g>
     <g id="line2d_16">
      <g>
       <use style="stroke:#000000;stroke-width:0.8;" x="308.481364" xlink:href="#m64d4d65f27" y="163.75"/>
      </g>
     </g>
    </g>
    <g id="xtick_9">
     <g id="line2d_17">
      <path clip-path="url(#pa0e505506f)" d="M 340.069545 163.75 
L 340.069545 29.05125 
" style="fill:none;stroke:#b0b0b0;stroke-linecap:square;stroke-width:0.8;"/>
     </g>
     <g id="line2d_18">
      <g>
       <use style="stroke:#000000;stroke-width:0.8;" x="340.069545" xlink:href="#m64d4d65f27" y="163.75"/>
      </g>
     </g>
    </g>
    <g id="xtick_10">
     <g id="line2d_19">
      <path clip-path="url(#pa0e505506f)" d="M 371.657727 163.75 
L 371.657727 29.05125 
" style="fill:none;stroke:#b0b0b0;stroke-linecap:square;stroke-width:0.8;"/>
     </g>
     <g id="line2d_20">
      <g>
       <use style="stroke:#000000;stroke-width:0.8;" x="371.657727" xlink:href="#m64d4d65f27" y="163.75"/>
      </g>
     </g>
    </g>
    <g id="xtick_11">
     <g id="line2d_21">
      <path clip-path="url(#pa0e505506f)" d="M 403.245909 163.75 
L 403.245909 29.05125 
" style="fill:none;stroke:#b0b0b0;stroke-linecap:square;stroke-width:0.8;"/>
     </g>
     <g id="line2d_22">
      <g>
       <use style="stroke:#000000;stroke-width:0.8;" x="403.245909" xlink:href="#m64d4d65f27" y="163.75"/>
      </g>
     </g>
    </g>
   </g>
   <g id="matplotlib.axis_2">
    <g id="ytick_1">
     <g id="line2d_23">
      <path clip-path="url(#pa0e505506f)" d="M 71.57 156.266736 
L 419.04 156.266736 
" style="fill:none;stroke:#b0b0b0;stroke-linecap:square;stroke-width:0.8;"/>
     </g>
     <g id="line2d_24">
      <defs>
       <path d="M 0 0 
L -3.5 0 
" id="m8d07ca2e02" style="stroke:#000000;stroke-width:0.8;"/>
      </defs>
      <g>
       <use style="stroke:#000000;stroke-width:0.8;" x="71.57" xlink:href="#m8d07ca2e02" y="156.266736"/>
      </g>
     </g>
     <g id="text_1">
      <!-- −0.4 -->
      <g transform="translate(35.430625 160.825799)scale(0.12 -0.12)">
       <defs>
        <path d="M 10.59375 35.5 
L 73.1875 35.5 
L 73.1875 27.203125 
L 10.59375 27.203125 
z
" id="DejaVuSans-8722"/>
        <path d="M 31.78125 66.40625 
Q 24.171875 66.40625 20.328125 58.90625 
Q 16.5 51.421875 16.5 36.375 
Q 16.5 21.390625 20.328125 13.890625 
Q 24.171875 6.390625 31.78125 6.390625 
Q 39.453125 6.390625 43.28125 13.890625 
Q 47.125 21.390625 47.125 36.375 
Q 47.125 51.421875 43.28125 58.90625 
Q 39.453125 66.40625 31.78125 66.40625 
z
M 31.78125 74.21875 
Q 44.046875 74.21875 50.515625 64.515625 
Q 56.984375 54.828125 56.984375 36.375 
Q 56.984375 17.96875 50.515625 8.265625 
Q 44.046875 -1.421875 31.78125 -1.421875 
Q 19.53125 -1.421875 13.0625 8.265625 
Q 6.59375 17.96875 6.59375 36.375 
Q 6.59375 54.828125 13.0625 64.515625 
Q 19.53125 74.21875 31.78125 74.21875 
z
" id="DejaVuSans-48"/>
        <path d="M 10.6875 12.40625 
L 21 12.40625 
L 21 0 
L 10.6875 0 
z
" id="DejaVuSans-46"/>
        <path d="M 37.796875 64.3125 
L 12.890625 25.390625 
L 37.796875 25.390625 
z
M 35.203125 72.90625 
L 47.609375 72.90625 
L 47.609375 25.390625 
L 58.015625 25.390625 
L 58.015625 17.1875 
L 47.609375 17.1875 
L 47.609375 0 
L 37.796875 0 
L 37.796875 17.1875 
L 4.890625 17.1875 
L 4.890625 26.703125 
z
" id="DejaVuSans-52"/>
       </defs>
       <use xlink:href="#DejaVuSans-8722"/>
       <use x="83.789062" xlink:href="#DejaVuSans-48"/>
       <use x="147.412109" xlink:href="#DejaVuSans-46"/>
       <use x="179.199219" xlink:href="#DejaVuSans-52"/>
      </g>
     </g>
    </g>
    <g id="ytick_2">
     <g id="line2d_25">
      <path clip-path="url(#pa0e505506f)" d="M 71.57 126.333681 
L 419.04 126.333681 
" style="fill:none;stroke:#b0b0b0;stroke-linecap:square;stroke-width:0.8;"/>
     </g>
     <g id="line2d_26">
      <g>
       <use style="stroke:#000000;stroke-width:0.8;" x="71.57" xlink:href="#m8d07ca2e02" y="126.333681"/>
      </g>
     </g>
     <g id="text_2">
      <!-- −0.2 -->
      <g transform="translate(35.430625 130.892743)scale(0.12 -0.12)">
       <defs>
        <path d="M 19.1875 8.296875 
L 53.609375 8.296875 
L 53.609375 0 
L 7.328125 0 
L 7.328125 8.296875 
Q 12.9375 14.109375 22.625 23.890625 
Q 32.328125 33.6875 34.8125 36.53125 
Q 39.546875 41.84375 41.421875 45.53125 
Q 43.3125 49.21875 43.3125 52.78125 
Q 43.3125 58.59375 39.234375 62.25 
Q 35.15625 65.921875 28.609375 65.921875 
Q 23.96875 65.921875 18.8125 64.3125 
Q 13.671875 62.703125 7.8125 59.421875 
L 7.8125 69.390625 
Q 13.765625 71.78125 18.9375 73 
Q 24.125 74.21875 28.421875 74.21875 
Q 39.75 74.21875 46.484375 68.546875 
Q 53.21875 62.890625 53.21875 53.421875 
Q 53.21875 48.921875 51.53125 44.890625 
Q 49.859375 40.875 45.40625 35.40625 
Q 44.1875 33.984375 37.640625 27.21875 
Q 31.109375 20.453125 19.1875 8.296875 
z
" id="DejaVuSans-50"/>
       </defs>
       <use xlink:href="#DejaVuSans-8722"/>
       <use x="83.789062" xlink:href="#DejaVuSans-48"/>
       <use x="147.412109" xlink:href="#DejaVuSans-46"/>
       <use x="179.199219" xlink:href="#DejaVuSans-50"/>
      </g>
     </g>
    </g>
    <g id="ytick_3">
     <g id="line2d_27">
      <path clip-path="url(#pa0e505506f)" d="M 71.57 96.400625 
L 419.04 96.400625 
" style="fill:none;stroke:#b0b0b0;stroke-linecap:square;stroke-width:0.8;"/>
     </g>
     <g id="line2d_28">
      <g>
       <use style="stroke:#000000;stroke-width:0.8;" x="71.57" xlink:href="#m8d07ca2e02" y="96.400625"/>
      </g>
     </g>
     <g id="text_3">
      <!-- 0.0 -->
      <g transform="translate(45.48625 100.959687)scale(0.12 -0.12)">
       <use xlink:href="#DejaVuSans-48"/>
       <use x="63.623047" xlink:href="#DejaVuSans-46"/>
       <use x="95.410156" xlink:href="#DejaVuSans-48"/>
      </g>
     </g>
    </g>
    <g id="ytick_4">
     <g id="line2d_29">
      <path clip-path="url(#pa0e505506f)" d="M 71.57 66.467569 
L 419.04 66.467569 
" style="fill:none;stroke:#b0b0b0;stroke-linecap:square;stroke-width:0.8;"/>
     </g>
     <g id="line2d_30">
      <g>
       <use style="stroke:#000000;stroke-width:0.8;" x="71.57" xlink:href="#m8d07ca2e02" y="66.467569"/>
      </g>
     </g>
     <g id="text_4">
      <!-- 0.2 -->
      <g transform="translate(45.48625 71.026632)scale(0.12 -0.12)">
       <use xlink:href="#DejaVuSans-48"/>
       <use x="63.623047" xlink:href="#DejaVuSans-46"/>
       <use x="95.410156" xlink:href="#DejaVuSans-50"/>
      </g>
     </g>
    </g>
    <g id="ytick_5">
     <g id="line2d_31">
      <path clip-path="url(#pa0e505506f)" d="M 71.57 36.534514 
L 419.04 36.534514 
" style="fill:none;stroke:#b0b0b0;stroke-linecap:square;stroke-width:0.8;"/>
     </g>
     <g id="line2d_32">
      <g>
       <use style="stroke:#000000;stroke-width:0.8;" x="71.57" xlink:href="#m8d07ca2e02" y="36.534514"/>
      </g>
     </g>
     <g id="text_5">
      <!-- 0.4 -->
      <g transform="translate(45.48625 41.093576)scale(0.12 -0.12)">
       <use xlink:href="#DejaVuSans-48"/>
       <use x="63.623047" xlink:href="#DejaVuSans-46"/>
       <use x="95.410156" xlink:href="#DejaVuSans-52"/>
      </g>
     </g>
    </g>
    <g id="text_6">
     <!-- CAGR -->
     <g transform="translate(28.935 113.407812)rotate(-90)scale(0.12 -0.12)">
      <defs>
       <path d="M 64.40625 67.28125 
L 64.40625 56.890625 
Q 59.421875 61.53125 53.78125 63.8125 
Q 48.140625 66.109375 41.796875 66.109375 
Q 29.296875 66.109375 22.65625 58.46875 
Q 16.015625 50.828125 16.015625 36.375 
Q 16.015625 21.96875 22.65625 14.328125 
Q 29.296875 6.6875 41.796875 6.6875 
Q 48.140625 6.6875 53.78125 8.984375 
Q 59.421875 11.28125 64.40625 15.921875 
L 64.40625 5.609375 
Q 59.234375 2.09375 53.4375 0.328125 
Q 47.65625 -1.421875 41.21875 -1.421875 
Q 24.65625 -1.421875 15.125 8.703125 
Q 5.609375 18.84375 5.609375 36.375 
Q 5.609375 53.953125 15.125 64.078125 
Q 24.65625 74.21875 41.21875 74.21875 
Q 47.75 74.21875 53.53125 72.484375 
Q 59.328125 70.75 64.40625 67.28125 
z
" id="DejaVuSans-67"/>
       <path d="M 34.1875 63.1875 
L 20.796875 26.90625 
L 47.609375 26.90625 
z
M 28.609375 72.90625 
L 39.796875 72.90625 
L 67.578125 0 
L 57.328125 0 
L 50.6875 18.703125 
L 17.828125 18.703125 
L 11.1875 0 
L 0.78125 0 
z
" id="DejaVuSans-65"/>
       <path d="M 59.515625 10.40625 
L 59.515625 29.984375 
L 43.40625 29.984375 
L 43.40625 38.09375 
L 69.28125 38.09375 
L 69.28125 6.78125 
Q 63.578125 2.734375 56.6875 0.65625 
Q 49.8125 -1.421875 42 -1.421875 
Q 24.90625 -1.421875 15.25 8.5625 
Q 5.609375 18.5625 5.609375 36.375 
Q 5.609375 54.25 15.25 64.234375 
Q 24.90625 74.21875 42 74.21875 
Q 49.125 74.21875 55.546875 72.453125 
Q 61.96875 70.703125 67.390625 67.28125 
L 67.390625 56.78125 
Q 61.921875 61.421875 55.765625 63.765625 
Q 49.609375 66.109375 42.828125 66.109375 
Q 29.4375 66.109375 22.71875 58.640625 
Q 16.015625 51.171875 16.015625 36.375 
Q 16.015625 21.625 22.71875 14.15625 
Q 29.4375 6.6875 42.828125 6.6875 
Q 48.046875 6.6875 52.140625 7.59375 
Q 56.25 8.5 59.515625 10.40625 
z
" id="DejaVuSans-71"/>
       <path d="M 44.390625 34.1875 
Q 47.5625 33.109375 50.5625 29.59375 
Q 53.5625 26.078125 56.59375 19.921875 
L 66.609375 0 
L 56 0 
L 46.6875 18.703125 
Q 43.0625 26.03125 39.671875 28.421875 
Q 36.28125 30.8125 30.421875 30.8125 
L 19.671875 30.8125 
L 19.671875 0 
L 9.8125 0 
L 9.8125 72.90625 
L 32.078125 72.90625 
Q 44.578125 72.90625 50.734375 67.671875 
Q 56.890625 62.453125 56.890625 51.90625 
Q 56.890625 45.015625 53.6875 40.46875 
Q 50.484375 35.9375 44.390625 34.1875 
z
M 19.671875 64.796875 
L 19.671875 38.921875 
L 32.078125 38.921875 
Q 39.203125 38.921875 42.84375 42.21875 
Q 46.484375 45.515625 46.484375 51.90625 
Q 46.484375 58.296875 42.84375 61.546875 
Q 39.203125 64.796875 32.078125 64.796875 
z
" id="DejaVuSans-82"/>
      </defs>
      <use xlink:href="#DejaVuSans-67"/>
      <use x="69.824219" xlink:href="#DejaVuSans-65"/>
      <use x="136.482422" xlink:href="#DejaVuSans-71"/>
      <use x="213.972656" xlink:href="#DejaVuSans-82"/>
     </g>
    </g>
   </g>
   <g id="line2d_33">
    <path clip-path="url(#pa0e505506f)" d="M 87.364091 158.848268 
L 90.522909 147.436154 
L 93.681727 133.024302 
L 96.840545 127.854802 
L 99.999364 123.316252 
L 103.158182 122.144906 
L 106.317 118.182422 
L 109.475818 116.513106 
L 112.634636 114.7653 
L 115.793455 112.800523 
L 118.952273 111.391049 
L 122.111091 109.937623 
L 125.269909 108.166732 
L 128.428727 106.275591 
L 131.587545 105.228474 
L 134.746364 104.237606 
L 137.905182 103.383738 
L 141.064 102.296978 
L 144.222818 101.260846 
L 147.381636 100.337318 
L 150.540455 99.519515 
L 153.699273 98.238071 
L 156.858091 97.325911 
L 160.016909 96.339379 
L 163.175727 95.006367 
L 166.334545 94.223675 
L 169.493364 93.617351 
L 172.652182 93.005894 
L 175.811 92.592368 
L 178.969818 92.138451 
L 182.128636 91.75395 
L 185.287455 90.946921 
L 188.446273 90.413127 
L 191.605091 89.873016 
L 194.763909 89.369818 
L 197.922727 88.825178 
L 201.081545 88.412452 
L 204.240364 87.941077 
L 207.399182 87.449707 
L 210.558 87.12877 
L 213.716818 86.567568 
L 216.875636 86.294749 
L 220.034455 86.078755 
L 223.193273 85.606438 
L 226.352091 85.097268 
L 229.510909 84.801192 
L 232.669727 84.548545 
L 235.828545 84.343903 
L 238.987364 83.683282 
L 242.146182 83.298994 
L 245.305 82.848109 
L 248.463818 82.60776 
L 251.622636 82.201663 
L 254.781455 81.975995 
L 257.940273 81.439036 
L 261.099091 80.934926 
L 264.257909 80.710986 
L 267.416727 80.47978 
L 270.575545 80.257538 
L 273.734364 79.880828 
L 276.893182 79.53025 
L 280.052 79.113863 
L 283.210818 78.715737 
L 286.369636 78.124661 
L 289.528455 77.854088 
L 292.687273 77.33276 
L 295.846091 76.91746 
L 299.004909 76.467539 
L 302.163727 76.254493 
L 305.322545 75.324872 
L 308.481364 74.978815 
L 311.640182 74.515729 
L 314.799 74.373123 
L 317.957818 74.050481 
L 321.116636 73.762928 
L 324.275455 73.060964 
L 327.434273 72.571408 
L 330.593091 72.220652 
L 333.751909 71.484335 
L 336.910727 70.786667 
L 340.069545 70.401637 
L 343.228364 70.109539 
L 346.387182 69.548082 
L 349.546 68.784564 
L 352.704818 68.110692 
L 355.863636 67.384887 
L 359.022455 67.0291 
L 362.181273 66.66893 
L 365.340091 65.994133 
L 368.498909 65.096428 
L 371.657727 64.208485 
L 374.816545 63.472856 
L 377.975364 62.541183 
L 381.134182 61.420788 
L 384.293 60.547811 
L 387.451818 59.797729 
L 390.610636 58.254241 
L 393.769455 56.615562 
L 396.928273 53.833615 
L 400.087091 50.808979 
L 403.245909 38.98744 
" style="fill:none;stroke:#1f77b4;stroke-linecap:square;stroke-width:3;"/>
   </g>
   <g id="line2d_34">
    <path clip-path="url(#pa0e505506f)" d="M 87.364091 158.043043 
L 90.522909 147.016924 
L 93.681727 132.822469 
L 96.840545 127.301516 
L 99.999364 122.863863 
L 103.158182 120.796005 
L 106.317 117.334425 
L 109.475818 115.517431 
L 112.634636 113.562925 
L 115.793455 112.272843 
L 118.952273 110.628816 
L 122.111091 109.574544 
L 125.269909 107.069041 
L 128.428727 105.886339 
L 131.587545 104.528908 
L 134.746364 103.151407 
L 137.905182 102.313097 
L 141.064 101.110534 
L 144.222818 100.357115 
L 147.381636 99.397872 
L 150.540455 98.398705 
L 153.699273 97.542968 
L 156.858091 96.157272 
L 160.016909 95.507616 
L 163.175727 94.532662 
L 166.334545 94.007381 
L 169.493364 93.465397 
L 172.652182 92.823 
L 175.811 92.481404 
L 178.969818 92.050277 
L 182.128636 91.664178 
L 185.287455 90.849508 
L 188.446273 90.332866 
L 191.605091 89.782994 
L 194.763909 89.279976 
L 197.922727 88.738731 
L 201.081545 88.324495 
L 204.240364 87.815203 
L 207.399182 87.358101 
L 210.558 86.99638 
L 213.716818 86.480829 
L 216.875636 86.206438 
L 220.034455 85.93298 
L 223.193273 85.516769 
L 226.352091 85.008177 
L 229.510909 84.640755 
L 232.669727 84.42887 
L 235.828545 84.19109 
L 238.987364 83.584927 
L 242.146182 83.207979 
L 245.305 82.728364 
L 248.463818 82.504352 
L 251.622636 82.113502 
L 254.781455 81.883508 
L 257.940273 81.347073 
L 261.099091 80.842382 
L 264.257909 80.594769 
L 267.416727 80.395055 
L 270.575545 80.120441 
L 273.734364 79.761882 
L 276.893182 79.437251 
L 280.052 79.005717 
L 283.210818 78.610281 
L 286.369636 78.024858 
L 289.528455 77.737792 
L 292.687273 77.235958 
L 295.846091 76.816463 
L 299.004909 76.438048 
L 302.163727 76.193934 
L 305.322545 75.532919 
L 308.481364 75.137159 
L 311.640182 74.843465 
L 314.799 74.714031 
L 317.957818 74.295066 
L 321.116636 73.919249 
L 324.275455 73.535914 
L 327.434273 73.128139 
L 330.593091 72.602652 
L 333.751909 72.157517 
L 336.910727 71.482475 
L 340.069545 71.172952 
L 343.228364 70.829563 
L 346.387182 70.015268 
L 349.546 69.551299 
L 352.704818 68.984297 
L 355.863636 68.415406 
L 359.022455 67.701586 
L 362.181273 67.139773 
L 365.340091 66.834914 
L 368.498909 66.165394 
L 371.657727 65.418556 
L 374.816545 64.500961 
L 377.975364 63.704127 
L 381.134182 62.918906 
L 384.293 62.154535 
L 387.451818 60.642052 
L 390.610636 60.008651 
L 393.769455 58.315106 
L 396.928273 55.576734 
L 400.087091 52.129388 
L 403.245909 41.37118 
" style="fill:none;stroke:#ff7f0e;stroke-linecap:square;stroke-width:3;"/>
   </g>
   <g id="patch_3">
    <path d="M 71.57 163.75 
L 71.57 29.05125 
" style="fill:none;stroke:#000000;stroke-linecap:square;stroke-linejoin:miter;stroke-width:0.8;"/>
   </g>
   <g id="patch_4">
    <path d="M 419.04 163.75 
L 419.04 29.05125 
" style="fill:none;stroke:#000000;stroke-linecap:square;stroke-linejoin:miter;stroke-width:0.8;"/>
   </g>
   <g id="patch_5">
    <path d="M 71.57 163.75 
L 419.04 163.75 
" style="fill:none;stroke:#000000;stroke-linecap:square;stroke-linejoin:miter;stroke-width:0.8;"/>
   </g>
   <g id="patch_6">
    <path d="M 71.57 29.05125 
L 419.04 29.05125 
" style="fill:none;stroke:#000000;stroke-linecap:square;stroke-linejoin:miter;stroke-width:0.8;"/>
   </g>
   <g id="text_7">
    <!-- 1 år investering -->
    <g transform="translate(197.903125 23.05125)scale(0.12 -0.12)">
     <defs>
      <path d="M 12.40625 8.296875 
L 28.515625 8.296875 
L 28.515625 63.921875 
L 10.984375 60.40625 
L 10.984375 69.390625 
L 28.421875 72.90625 
L 38.28125 72.90625 
L 38.28125 8.296875 
L 54.390625 8.296875 
L 54.390625 0 
L 12.40625 0 
z
" id="DejaVuSans-49"/>
      <path id="DejaVuSans-32"/>
      <path d="M 34.28125 27.484375 
Q 23.390625 27.484375 19.1875 25 
Q 14.984375 22.515625 14.984375 16.5 
Q 14.984375 11.71875 18.140625 8.90625 
Q 21.296875 6.109375 26.703125 6.109375 
Q 34.1875 6.109375 38.703125 11.40625 
Q 43.21875 16.703125 43.21875 25.484375 
L 43.21875 27.484375 
z
M 52.203125 31.203125 
L 52.203125 0 
L 43.21875 0 
L 43.21875 8.296875 
Q 40.140625 3.328125 35.546875 0.953125 
Q 30.953125 -1.421875 24.3125 -1.421875 
Q 15.921875 -1.421875 10.953125 3.296875 
Q 6 8.015625 6 15.921875 
Q 6 25.140625 12.171875 29.828125 
Q 18.359375 34.515625 30.609375 34.515625 
L 43.21875 34.515625 
L 43.21875 35.40625 
Q 43.21875 41.609375 39.140625 45 
Q 35.0625 48.390625 27.6875 48.390625 
Q 23 48.390625 18.546875 47.265625 
Q 14.109375 46.140625 10.015625 43.890625 
L 10.015625 52.203125 
Q 14.9375 54.109375 19.578125 55.046875 
Q 24.21875 56 28.609375 56 
Q 40.484375 56 46.34375 49.84375 
Q 52.203125 43.703125 52.203125 31.203125 
z
M 36.421875 74.421875 
Q 36.421875 77.484375 34.265625 79.625 
Q 32.125 81.78125 29 81.78125 
Q 25.828125 81.78125 23.703125 79.65625 
Q 21.578125 77.546875 21.578125 74.421875 
Q 21.578125 71.234375 23.703125 69.109375 
Q 25.828125 67 29 67 
Q 32.125 67 34.265625 69.140625 
Q 36.421875 71.296875 36.421875 74.421875 
z
M 42.390625 74.421875 
Q 42.390625 68.796875 38.5 64.890625 
Q 34.625 60.984375 29 60.984375 
Q 23.390625 60.984375 19.5 64.890625 
Q 15.625 68.796875 15.625 74.421875 
Q 15.625 80.03125 19.5 83.90625 
Q 23.390625 87.796875 29 87.796875 
Q 34.625 87.796875 38.5 83.90625 
Q 42.390625 80.03125 42.390625 74.421875 
z
" id="DejaVuSans-229"/>
      <path d="M 41.109375 46.296875 
Q 39.59375 47.171875 37.8125 47.578125 
Q 36.03125 48 33.890625 48 
Q 26.265625 48 22.1875 43.046875 
Q 18.109375 38.09375 18.109375 28.8125 
L 18.109375 0 
L 9.078125 0 
L 9.078125 54.6875 
L 18.109375 54.6875 
L 18.109375 46.1875 
Q 20.953125 51.171875 25.484375 53.578125 
Q 30.03125 56 36.53125 56 
Q 37.453125 56 38.578125 55.875 
Q 39.703125 55.765625 41.0625 55.515625 
z
" id="DejaVuSans-114"/>
      <path d="M 9.421875 54.6875 
L 18.40625 54.6875 
L 18.40625 0 
L 9.421875 0 
z
M 9.421875 75.984375 
L 18.40625 75.984375 
L 18.40625 64.59375 
L 9.421875 64.59375 
z
" id="DejaVuSans-105"/>
      <path d="M 54.890625 33.015625 
L 54.890625 0 
L 45.90625 0 
L 45.90625 32.71875 
Q 45.90625 40.484375 42.875 44.328125 
Q 39.84375 48.1875 33.796875 48.1875 
Q 26.515625 48.1875 22.3125 43.546875 
Q 18.109375 38.921875 18.109375 30.90625 
L 18.109375 0 
L 9.078125 0 
L 9.078125 54.6875 
L 18.109375 54.6875 
L 18.109375 46.1875 
Q 21.34375 51.125 25.703125 53.5625 
Q 30.078125 56 35.796875 56 
Q 45.21875 56 50.046875 50.171875 
Q 54.890625 44.34375 54.890625 33.015625 
z
" id="DejaVuSans-110"/>
      <path d="M 2.984375 54.6875 
L 12.5 54.6875 
L 29.59375 8.796875 
L 46.6875 54.6875 
L 56.203125 54.6875 
L 35.6875 0 
L 23.484375 0 
z
" id="DejaVuSans-118"/>
      <path d="M 56.203125 29.59375 
L 56.203125 25.203125 
L 14.890625 25.203125 
Q 15.484375 15.921875 20.484375 11.0625 
Q 25.484375 6.203125 34.421875 6.203125 
Q 39.59375 6.203125 44.453125 7.46875 
Q 49.3125 8.734375 54.109375 11.28125 
L 54.109375 2.78125 
Q 49.265625 0.734375 44.1875 -0.34375 
Q 39.109375 -1.421875 33.890625 -1.421875 
Q 20.796875 -1.421875 13.15625 6.1875 
Q 5.515625 13.8125 5.515625 26.8125 
Q 5.515625 40.234375 12.765625 48.109375 
Q 20.015625 56 32.328125 56 
Q 43.359375 56 49.78125 48.890625 
Q 56.203125 41.796875 56.203125 29.59375 
z
M 47.21875 32.234375 
Q 47.125 39.59375 43.09375 43.984375 
Q 39.0625 48.390625 32.421875 48.390625 
Q 24.90625 48.390625 20.390625 44.140625 
Q 15.875 39.890625 15.1875 32.171875 
z
" id="DejaVuSans-101"/>
      <path d="M 44.28125 53.078125 
L 44.28125 44.578125 
Q 40.484375 46.53125 36.375 47.5 
Q 32.28125 48.484375 27.875 48.484375 
Q 21.1875 48.484375 17.84375 46.4375 
Q 14.5 44.390625 14.5 40.28125 
Q 14.5 37.15625 16.890625 35.375 
Q 19.28125 33.59375 26.515625 31.984375 
L 29.59375 31.296875 
Q 39.15625 29.25 43.1875 25.515625 
Q 47.21875 21.78125 47.21875 15.09375 
Q 47.21875 7.46875 41.1875 3.015625 
Q 35.15625 -1.421875 24.609375 -1.421875 
Q 20.21875 -1.421875 15.453125 -0.5625 
Q 10.6875 0.296875 5.421875 2 
L 5.421875 11.28125 
Q 10.40625 8.6875 15.234375 7.390625 
Q 20.0625 6.109375 24.8125 6.109375 
Q 31.15625 6.109375 34.5625 8.28125 
Q 37.984375 10.453125 37.984375 14.40625 
Q 37.984375 18.0625 35.515625 20.015625 
Q 33.0625 21.96875 24.703125 23.78125 
L 21.578125 24.515625 
Q 13.234375 26.265625 9.515625 29.90625 
Q 5.8125 33.546875 5.8125 39.890625 
Q 5.8125 47.609375 11.28125 51.796875 
Q 16.75 56 26.8125 56 
Q 31.78125 56 36.171875 55.265625 
Q 40.578125 54.546875 44.28125 53.078125 
z
" id="DejaVuSans-115"/>
      <path d="M 18.3125 70.21875 
L 18.3125 54.6875 
L 36.8125 54.6875 
L 36.8125 47.703125 
L 18.3125 47.703125 
L 18.3125 18.015625 
Q 18.3125 11.328125 20.140625 9.421875 
Q 21.96875 7.515625 27.59375 7.515625 
L 36.8125 7.515625 
L 36.8125 0 
L 27.59375 0 
Q 17.1875 0 13.234375 3.875 
Q 9.28125 7.765625 9.28125 18.015625 
L 9.28125 47.703125 
L 2.6875 47.703125 
L 2.6875 54.6875 
L 9.28125 54.6875 
L 9.28125 70.21875 
z
" id="DejaVuSans-116"/>
      <path d="M 45.40625 27.984375 
Q 45.40625 37.75 41.375 43.109375 
Q 37.359375 48.484375 30.078125 48.484375 
Q 22.859375 48.484375 18.828125 43.109375 
Q 14.796875 37.75 14.796875 27.984375 
Q 14.796875 18.265625 18.828125 12.890625 
Q 22.859375 7.515625 30.078125 7.515625 
Q 37.359375 7.515625 41.375 12.890625 
Q 45.40625 18.265625 45.40625 27.984375 
z
M 54.390625 6.78125 
Q 54.390625 -7.171875 48.1875 -13.984375 
Q 42 -20.796875 29.203125 -20.796875 
Q 24.46875 -20.796875 20.265625 -20.09375 
Q 16.0625 -19.390625 12.109375 -17.921875 
L 12.109375 -9.1875 
Q 16.0625 -11.328125 19.921875 -12.34375 
Q 23.78125 -13.375 27.78125 -13.375 
Q 36.625 -13.375 41.015625 -8.765625 
Q 45.40625 -4.15625 45.40625 5.171875 
L 45.40625 9.625 
Q 42.625 4.78125 38.28125 2.390625 
Q 33.9375 0 27.875 0 
Q 17.828125 0 11.671875 7.65625 
Q 5.515625 15.328125 5.515625 27.984375 
Q 5.515625 40.671875 11.671875 48.328125 
Q 17.828125 56 27.875 56 
Q 33.9375 56 38.28125 53.609375 
Q 42.625 51.21875 45.40625 46.390625 
L 45.40625 54.6875 
L 54.390625 54.6875 
z
" id="DejaVuSans-103"/>
     </defs>
     <use xlink:href="#DejaVuSans-49"/>
     <use x="63.623047" xlink:href="#DejaVuSans-32"/>
     <use x="95.410156" xlink:href="#DejaVuSans-229"/>
     <use x="156.689453" xlink:href="#DejaVuSans-114"/>
     <use x="197.802734" xlink:href="#DejaVuSans-32"/>
     <use x="229.589844" xlink:href="#DejaVuSans-105"/>
     <use x="257.373047" xlink:href="#DejaVuSans-110"/>
     <use x="320.751953" xlink:href="#DejaVuSans-118"/>
     <use x="379.931641" xlink:href="#DejaVuSans-101"/>
     <use x="441.455078" xlink:href="#DejaVuSans-115"/>
     <use x="493.554688" xlink:href="#DejaVuSans-116"/>
     <use x="532.763672" xlink:href="#DejaVuSans-101"/>
     <use x="594.287109" xlink:href="#DejaVuSans-114"/>
     <use x="635.400391" xlink:href="#DejaVuSans-105"/>
     <use x="663.183594" xlink:href="#DejaVuSans-110"/>
     <use x="726.5625" xlink:href="#DejaVuSans-103"/>
    </g>
   </g>
   <g id="legend_1">
    <g id="patch_7">
     <path d="M 79.97 73.87875 
L 256.626875 73.87875 
Q 259.026875 73.87875 259.026875 71.47875 
L 259.026875 37.45125 
Q 259.026875 35.05125 256.626875 35.05125 
L 79.97 35.05125 
Q 77.57 35.05125 77.57 37.45125 
L 77.57 71.47875 
Q 77.57 73.87875 79.97 73.87875 
z
" style="fill:#ffffff;opacity:0.8;stroke:#cccccc;stroke-linejoin:miter;"/>
    </g>
    <g id="line2d_35">
     <path d="M 82.37 44.769375 
L 106.37 44.769375 
" style="fill:none;stroke:#1f77b4;stroke-linecap:square;stroke-width:3;"/>
    </g>
    <g id="line2d_36"/>
    <g id="text_8">
     <!-- Realisationsbeskatning -->
     <g transform="translate(115.97 48.969375)scale(0.12 -0.12)">
      <defs>
       <path d="M 34.28125 27.484375 
Q 23.390625 27.484375 19.1875 25 
Q 14.984375 22.515625 14.984375 16.5 
Q 14.984375 11.71875 18.140625 8.90625 
Q 21.296875 6.109375 26.703125 6.109375 
Q 34.1875 6.109375 38.703125 11.40625 
Q 43.21875 16.703125 43.21875 25.484375 
L 43.21875 27.484375 
z
M 52.203125 31.203125 
L 52.203125 0 
L 43.21875 0 
L 43.21875 8.296875 
Q 40.140625 3.328125 35.546875 0.953125 
Q 30.953125 -1.421875 24.3125 -1.421875 
Q 15.921875 -1.421875 10.953125 3.296875 
Q 6 8.015625 6 15.921875 
Q 6 25.140625 12.171875 29.828125 
Q 18.359375 34.515625 30.609375 34.515625 
L 43.21875 34.515625 
L 43.21875 35.40625 
Q 43.21875 41.609375 39.140625 45 
Q 35.0625 48.390625 27.6875 48.390625 
Q 23 48.390625 18.546875 47.265625 
Q 14.109375 46.140625 10.015625 43.890625 
L 10.015625 52.203125 
Q 14.9375 54.109375 19.578125 55.046875 
Q 24.21875 56 28.609375 56 
Q 40.484375 56 46.34375 49.84375 
Q 52.203125 43.703125 52.203125 31.203125 
z
" id="DejaVuSans-97"/>
       <path d="M 9.421875 75.984375 
L 18.40625 75.984375 
L 18.40625 0 
L 9.421875 0 
z
" id="DejaVuSans-108"/>
       <path d="M 30.609375 48.390625 
Q 23.390625 48.390625 19.1875 42.75 
Q 14.984375 37.109375 14.984375 27.296875 
Q 14.984375 17.484375 19.15625 11.84375 
Q 23.34375 6.203125 30.609375 6.203125 
Q 37.796875 6.203125 41.984375 11.859375 
Q 46.1875 17.53125 46.1875 27.296875 
Q 46.1875 37.015625 41.984375 42.703125 
Q 37.796875 48.390625 30.609375 48.390625 
z
M 30.609375 56 
Q 42.328125 56 49.015625 48.375 
Q 55.71875 40.765625 55.71875 27.296875 
Q 55.71875 13.875 49.015625 6.21875 
Q 42.328125 -1.421875 30.609375 -1.421875 
Q 18.84375 -1.421875 12.171875 6.21875 
Q 5.515625 13.875 5.515625 27.296875 
Q 5.515625 40.765625 12.171875 48.375 
Q 18.84375 56 30.609375 56 
z
" id="DejaVuSans-111"/>
       <path d="M 48.6875 27.296875 
Q 48.6875 37.203125 44.609375 42.84375 
Q 40.53125 48.484375 33.40625 48.484375 
Q 26.265625 48.484375 22.1875 42.84375 
Q 18.109375 37.203125 18.109375 27.296875 
Q 18.109375 17.390625 22.1875 11.75 
Q 26.265625 6.109375 33.40625 6.109375 
Q 40.53125 6.109375 44.609375 11.75 
Q 48.6875 17.390625 48.6875 27.296875 
z
M 18.109375 46.390625 
Q 20.953125 51.265625 25.265625 53.625 
Q 29.59375 56 35.59375 56 
Q 45.5625 56 51.78125 48.09375 
Q 58.015625 40.1875 58.015625 27.296875 
Q 58.015625 14.40625 51.78125 6.484375 
Q 45.5625 -1.421875 35.59375 -1.421875 
Q 29.59375 -1.421875 25.265625 0.953125 
Q 20.953125 3.328125 18.109375 8.203125 
L 18.109375 0 
L 9.078125 0 
L 9.078125 75.984375 
L 18.109375 75.984375 
z
" id="DejaVuSans-98"/>
       <path d="M 9.078125 75.984375 
L 18.109375 75.984375 
L 18.109375 31.109375 
L 44.921875 54.6875 
L 56.390625 54.6875 
L 27.390625 29.109375 
L 57.625 0 
L 45.90625 0 
L 18.109375 26.703125 
L 18.109375 0 
L 9.078125 0 
z
" id="DejaVuSans-107"/>
      </defs>
      <use xlink:href="#DejaVuSans-82"/>
      <use x="64.982422" xlink:href="#DejaVuSans-101"/>
      <use x="126.505859" xlink:href="#DejaVuSans-97"/>
      <use x="187.785156" xlink:href="#DejaVuSans-108"/>
      <use x="215.568359" xlink:href="#DejaVuSans-105"/>
      <use x="243.351562" xlink:href="#DejaVuSans-115"/>
      <use x="295.451172" xlink:href="#DejaVuSans-97"/>
      <use x="356.730469" xlink:href="#DejaVuSans-116"/>
      <use x="395.939453" xlink:href="#DejaVuSans-105"/>
      <use x="423.722656" xlink:href="#DejaVuSans-111"/>
      <use x="484.904297" xlink:href="#DejaVuSans-110"/>
      <use x="548.283203" xlink:href="#DejaVuSans-115"/>
      <use x="600.382812" xlink:href="#DejaVuSans-98"/>
      <use x="663.859375" xlink:href="#DejaVuSans-101"/>
      <use x="725.382812" xlink:href="#DejaVuSans-115"/>
      <use x="777.482422" xlink:href="#DejaVuSans-107"/>
      <use x="833.642578" xlink:href="#DejaVuSans-97"/>
      <use x="894.921875" xlink:href="#DejaVuSans-116"/>
      <use x="934.130859" xlink:href="#DejaVuSans-110"/>
      <use x="997.509766" xlink:href="#DejaVuSans-105"/>
      <use x="1025.292969" xlink:href="#DejaVuSans-110"/>
      <use x="1088.671875" xlink:href="#DejaVuSans-103"/>
     </g>
    </g>
    <g id="line2d_37">
     <path d="M 82.37 62.383125 
L 106.37 62.383125 
" style="fill:none;stroke:#ff7f0e;stroke-linecap:square;stroke-width:3;"/>
    </g>
    <g id="line2d_38"/>
    <g id="text_9">
     <!-- Lagerbeskatning -->
     <g transform="translate(115.97 66.583125)scale(0.12 -0.12)">
      <defs>
       <path d="M 9.8125 72.90625 
L 19.671875 72.90625 
L 19.671875 8.296875 
L 55.171875 8.296875 
L 55.171875 0 
L 9.8125 0 
z
" id="DejaVuSans-76"/>
      </defs>
      <use xlink:href="#DejaVuSans-76"/>
      <use x="55.712891" xlink:href="#DejaVuSans-97"/>
      <use x="116.992188" xlink:href="#DejaVuSans-103"/>
      <use x="180.46875" xlink:href="#DejaVuSans-101"/>
      <use x="241.992188" xlink:href="#DejaVuSans-114"/>
      <use x="283.105469" xlink:href="#DejaVuSans-98"/>
      <use x="346.582031" xlink:href="#DejaVuSans-101"/>
      <use x="408.105469" xlink:href="#DejaVuSans-115"/>
      <use x="460.205078" xlink:href="#DejaVuSans-107"/>
      <use x="516.365234" xlink:href="#DejaVuSans-97"/>
      <use x="577.644531" xlink:href="#DejaVuSans-116"/>
      <use x="616.853516" xlink:href="#DejaVuSans-110"/>
      <use x="680.232422" xlink:href="#DejaVuSans-105"/>
      <use x="708.015625" xlink:href="#DejaVuSans-110"/>
      <use x="771.394531" xlink:href="#DejaVuSans-103"/>
     </g>
    </g>
   </g>
  </g>
  <g id="axes_2">
   <g id="patch_8">
    <path d="M 71.57 333.98 
L 419.04 333.98 
L 419.04 199.28125 
L 71.57 199.28125 
z
" style="fill:#ffffff;"/>
   </g>
   <g id="matplotlib.axis_3">
    <g id="xtick_12">
     <g id="line2d_39">
      <path clip-path="url(#pfd50b1b697)" d="M 87.364091 333.98 
L 87.364091 199.28125 
" style="fill:none;stroke:#b0b0b0;stroke-linecap:square;stroke-width:0.8;"/>
     </g>
     <g id="line2d_40">
      <g>
       <use style="stroke:#000000;stroke-width:0.8;" x="87.364091" xlink:href="#m64d4d65f27" y="333.98"/>
      </g>
     </g>
    </g>
    <g id="xtick_13">
     <g id="line2d_41">
      <path clip-path="url(#pfd50b1b697)" d="M 118.952273 333.98 
L 118.952273 199.28125 
" style="fill:none;stroke:#b0b0b0;stroke-linecap:square;stroke-width:0.8;"/>
     </g>
     <g id="line2d_42">
      <g>
       <use style="stroke:#000000;stroke-width:0.8;" x="118.952273" xlink:href="#m64d4d65f27" y="333.98"/>
      </g>
     </g>
    </g>
    <g id="xtick_14">
     <g id="line2d_43">
      <path clip-path="url(#pfd50b1b697)" d="M 150.540455 333.98 
L 150.540455 199.28125 
" style="fill:none;stroke:#b0b0b0;stroke-linecap:square;stroke-width:0.8;"/>
     </g>
     <g id="line2d_44">
      <g>
       <use style="stroke:#000000;stroke-width:0.8;" x="150.540455" xlink:href="#m64d4d65f27" y="333.98"/>
      </g>
     </g>
    </g>
    <g id="xtick_15">
     <g id="line2d_45">
      <path clip-path="url(#pfd50b1b697)" d="M 182.128636 333.98 
L 182.128636 199.28125 
" style="fill:none;stroke:#b0b0b0;stroke-linecap:square;stroke-width:0.8;"/>
     </g>
     <g id="line2d_46">
      <g>
       <use style="stroke:#000000;stroke-width:0.8;" x="182.128636" xlink:href="#m64d4d65f27" y="333.98"/>
      </g>
     </g>
    </g>
    <g id="xtick_16">
     <g id="line2d_47">
      <path clip-path="url(#pfd50b1b697)" d="M 213.716818 333.98 
L 213.716818 199.28125 
" style="fill:none;stroke:#b0b0b0;stroke-linecap:square;stroke-width:0.8;"/>
     </g>
     <g id="line2d_48">
      <g>
       <use style="stroke:#000000;stroke-width:0.8;" x="213.716818" xlink:href="#m64d4d65f27" y="333.98"/>
      </g>
     </g>
    </g>
    <g id="xtick_17">
     <g id="line2d_49">
      <path clip-path="url(#pfd50b1b697)" d="M 245.305 333.98 
L 245.305 199.28125 
" style="fill:none;stroke:#b0b0b0;stroke-linecap:square;stroke-width:0.8;"/>
     </g>
     <g id="line2d_50">
      <g>
       <use style="stroke:#000000;stroke-width:0.8;" x="245.305" xlink:href="#m64d4d65f27" y="333.98"/>
      </g>
     </g>
    </g>
    <g id="xtick_18">
     <g id="line2d_51">
      <path clip-path="url(#pfd50b1b697)" d="M 276.893182 333.98 
L 276.893182 199.28125 
" style="fill:none;stroke:#b0b0b0;stroke-linecap:square;stroke-width:0.8;"/>
     </g>
     <g id="line2d_52">
      <g>
       <use style="stroke:#000000;stroke-width:0.8;" x="276.893182" xlink:href="#m64d4d65f27" y="333.98"/>
      </g>
     </g>
    </g>
    <g id="xtick_19">
     <g id="line2d_53">
      <path clip-path="url(#pfd50b1b697)" d="M 308.481364 333.98 
L 308.481364 199.28125 
" style="fill:none;stroke:#b0b0b0;stroke-linecap:square;stroke-width:0.8;"/>
     </g>
     <g id="line2d_54">
      <g>
       <use style="stroke:#000000;stroke-width:0.8;" x="308.481364" xlink:href="#m64d4d65f27" y="333.98"/>
      </g>
     </g>
    </g>
    <g id="xtick_20">
     <g id="line2d_55">
      <path clip-path="url(#pfd50b1b697)" d="M 340.069545 333.98 
L 340.069545 199.28125 
" style="fill:none;stroke:#b0b0b0;stroke-linecap:square;stroke-width:0.8;"/>
     </g>
     <g id="line2d_56">
      <g>
       <use style="stroke:#000000;stroke-width:0.8;" x="340.069545" xlink:href="#m64d4d65f27" y="333.98"/>
      </g>
     </g>
    </g>
    <g id="xtick_21">
     <g id="line2d_57">
      <path clip-path="url(#pfd50b1b697)" d="M 371.657727 333.98 
L 371.657727 199.28125 
" style="fill:none;stroke:#b0b0b0;stroke-linecap:square;stroke-width:0.8;"/>
     </g>
     <g id="line2d_58">
      <g>
       <use style="stroke:#000000;stroke-width:0.8;" x="371.657727" xlink:href="#m64d4d65f27" y="333.98"/>
      </g>
     </g>
    </g>
    <g id="xtick_22">
     <g id="line2d_59">
      <path clip-path="url(#pfd50b1b697)" d="M 403.245909 333.98 
L 403.245909 199.28125 
" style="fill:none;stroke:#b0b0b0;stroke-linecap:square;stroke-width:0.8;"/>
     </g>
     <g id="line2d_60">
      <g>
       <use style="stroke:#000000;stroke-width:0.8;" x="403.245909" xlink:href="#m64d4d65f27" y="333.98"/>
      </g>
     </g>
    </g>
   </g>
   <g id="matplotlib.axis_4">
    <g id="ytick_6">
     <g id="line2d_61">
      <path clip-path="url(#pfd50b1b697)" d="M 71.57 333.98 
L 419.04 333.98 
" style="fill:none;stroke:#b0b0b0;stroke-linecap:square;stroke-width:0.8;"/>
     </g>
     <g id="line2d_62">
      <g>
       <use style="stroke:#000000;stroke-width:0.8;" x="71.57" xlink:href="#m8d07ca2e02" y="333.98"/>
      </g>
     </g>
     <g id="text_10">
      <!-- −0.1 -->
      <g transform="translate(35.430625 338.539062)scale(0.12 -0.12)">
       <use xlink:href="#DejaVuSans-8722"/>
       <use x="83.789062" xlink:href="#DejaVuSans-48"/>
       <use x="147.412109" xlink:href="#DejaVuSans-46"/>
       <use x="179.199219" xlink:href="#DejaVuSans-49"/>
      </g>
     </g>
    </g>
    <g id="ytick_7">
     <g id="line2d_63">
      <path clip-path="url(#pfd50b1b697)" d="M 71.57 291.886641 
L 419.04 291.886641 
" style="fill:none;stroke:#b0b0b0;stroke-linecap:square;stroke-width:0.8;"/>
     </g>
     <g id="line2d_64">
      <g>
       <use style="stroke:#000000;stroke-width:0.8;" x="71.57" xlink:href="#m8d07ca2e02" y="291.886641"/>
      </g>
     </g>
     <g id="text_11">
      <!-- 0.0 -->
      <g transform="translate(45.48625 296.445703)scale(0.12 -0.12)">
       <use xlink:href="#DejaVuSans-48"/>
       <use x="63.623047" xlink:href="#DejaVuSans-46"/>
       <use x="95.410156" xlink:href="#DejaVuSans-48"/>
      </g>
     </g>
    </g>
    <g id="ytick_8">
     <g id="line2d_65">
      <path clip-path="url(#pfd50b1b697)" d="M 71.57 249.793281 
L 419.04 249.793281 
" style="fill:none;stroke:#b0b0b0;stroke-linecap:square;stroke-width:0.8;"/>
     </g>
     <g id="line2d_66">
      <g>
       <use style="stroke:#000000;stroke-width:0.8;" x="71.57" xlink:href="#m8d07ca2e02" y="249.793281"/>
      </g>
     </g>
     <g id="text_12">
      <!-- 0.1 -->
      <g transform="translate(45.48625 254.352344)scale(0.12 -0.12)">
       <use xlink:href="#DejaVuSans-48"/>
       <use x="63.623047" xlink:href="#DejaVuSans-46"/>
       <use x="95.410156" xlink:href="#DejaVuSans-49"/>
      </g>
     </g>
    </g>
    <g id="ytick_9">
     <g id="line2d_67">
      <path clip-path="url(#pfd50b1b697)" d="M 71.57 207.699922 
L 419.04 207.699922 
" style="fill:none;stroke:#b0b0b0;stroke-linecap:square;stroke-width:0.8;"/>
     </g>
     <g id="line2d_68">
      <g>
       <use style="stroke:#000000;stroke-width:0.8;" x="71.57" xlink:href="#m8d07ca2e02" y="207.699922"/>
      </g>
     </g>
     <g id="text_13">
      <!-- 0.2 -->
      <g transform="translate(45.48625 212.258984)scale(0.12 -0.12)">
       <use xlink:href="#DejaVuSans-48"/>
       <use x="63.623047" xlink:href="#DejaVuSans-46"/>
       <use x="95.410156" xlink:href="#DejaVuSans-50"/>
      </g>
     </g>
    </g>
    <g id="text_14">
     <!-- CAGR -->
     <g transform="translate(28.935 283.637812)rotate(-90)scale(0.12 -0.12)">
      <use xlink:href="#DejaVuSans-67"/>
      <use x="69.824219" xlink:href="#DejaVuSans-65"/>
      <use x="136.482422" xlink:href="#DejaVuSans-71"/>
      <use x="213.972656" xlink:href="#DejaVuSans-82"/>
     </g>
    </g>
   </g>
   <g id="line2d_69">
    <path clip-path="url(#pfd50b1b697)" d="M 87.364091 322.365082 
L 90.522909 310.04812 
L 93.681727 307.115258 
L 96.840545 306.003108 
L 99.999364 304.741325 
L 103.158182 303.291024 
L 106.317 300.422432 
L 109.475818 299.840662 
L 112.634636 298.791595 
L 115.793455 297.798359 
L 118.952273 295.549267 
L 122.111091 295.08578 
L 125.269909 294.035114 
L 128.428727 292.840206 
L 131.587545 292.035559 
L 134.746364 291.225553 
L 137.905182 289.837879 
L 141.064 288.318077 
L 144.222818 286.609302 
L 147.381636 285.586644 
L 150.540455 283.329829 
L 153.699273 282.031011 
L 156.858091 280.724332 
L 160.016909 279.214923 
L 163.175727 277.034177 
L 166.334545 275.907492 
L 169.493364 275.108698 
L 172.652182 274.226708 
L 175.811 273.419222 
L 178.969818 271.889117 
L 182.128636 271.17479 
L 185.287455 270.336865 
L 188.446273 269.540457 
L 191.605091 268.562352 
L 194.763909 267.534762 
L 197.922727 266.837812 
L 201.081545 266.267109 
L 204.240364 264.923712 
L 207.399182 264.334637 
L 210.558 263.672907 
L 213.716818 263.156095 
L 216.875636 262.80258 
L 220.034455 262.474017 
L 223.193273 262.129773 
L 226.352091 261.703881 
L 229.510909 261.316947 
L 232.669727 260.82395 
L 235.828545 260.415063 
L 238.987364 259.95074 
L 242.146182 259.620061 
L 245.305 258.947851 
L 248.463818 258.526404 
L 251.622636 258.111433 
L 254.781455 256.9831 
L 257.940273 256.212153 
L 261.099091 255.569067 
L 264.257909 255.149512 
L 267.416727 254.642809 
L 270.575545 254.101432 
L 273.734364 253.721927 
L 276.893182 253.421576 
L 280.052 252.994751 
L 283.210818 252.506604 
L 286.369636 252.110274 
L 289.528455 251.788563 
L 292.687273 251.483732 
L 295.846091 251.078759 
L 299.004909 250.602349 
L 302.163727 250.17625 
L 305.322545 249.796717 
L 308.481364 249.581578 
L 311.640182 249.18153 
L 314.799 248.551192 
L 317.957818 248.250247 
L 321.116636 247.858764 
L 324.275455 247.487305 
L 327.434273 246.945428 
L 330.593091 246.296866 
L 333.751909 245.27574 
L 336.910727 244.602203 
L 340.069545 243.961287 
L 343.228364 243.250797 
L 346.387182 242.68061 
L 349.546 241.529786 
L 352.704818 240.812462 
L 355.863636 239.237111 
L 359.022455 237.881328 
L 362.181273 236.293221 
L 365.340091 234.865785 
L 368.498909 234.406344 
L 371.657727 233.698543 
L 374.816545 232.510357 
L 377.975364 230.646014 
L 381.134182 228.741871 
L 384.293 227.010605 
L 387.451818 225.417725 
L 390.610636 223.15991 
L 393.769455 220.006946 
L 396.928273 216.952025 
L 400.087091 214.0758 
L 403.245909 205.622486 
" style="fill:none;stroke:#1f77b4;stroke-linecap:square;stroke-width:3;"/>
   </g>
   <g id="line2d_70">
    <path clip-path="url(#pfd50b1b697)" d="M 87.364091 322.469265 
L 90.522909 310.95972 
L 93.681727 306.765556 
L 96.840545 304.180371 
L 99.999364 302.316818 
L 103.158182 301.182328 
L 106.317 299.955511 
L 109.475818 298.709128 
L 112.634636 296.74762 
L 115.793455 295.908155 
L 118.952273 294.517307 
L 122.111091 292.997212 
L 125.269909 291.286587 
L 128.428727 290.329686 
L 131.587545 289.163675 
L 134.746364 287.165675 
L 137.905182 286.513688 
L 141.064 285.437282 
L 144.222818 284.425531 
L 147.381636 282.821407 
L 150.540455 281.250914 
L 153.699273 280.089575 
L 156.858091 279.227437 
L 160.016909 278.04513 
L 163.175727 276.654349 
L 166.334545 276.020342 
L 169.493364 274.75311 
L 172.652182 274.068294 
L 175.811 273.083972 
L 178.969818 272.204641 
L 182.128636 271.438242 
L 185.287455 270.678989 
L 188.446273 269.83952 
L 191.605091 269.156818 
L 194.763909 268.143664 
L 197.922727 267.689514 
L 201.081545 267.095707 
L 204.240364 265.832047 
L 207.399182 265.043787 
L 210.558 264.08001 
L 213.716818 263.443123 
L 216.875636 262.627944 
L 220.034455 262.073876 
L 223.193273 261.631161 
L 226.352091 261.152797 
L 229.510909 260.985729 
L 232.669727 260.359947 
L 235.828545 259.902124 
L 238.987364 259.267928 
L 242.146182 258.725488 
L 245.305 258.517938 
L 248.463818 257.822218 
L 251.622636 257.421884 
L 254.781455 256.949047 
L 257.940273 256.24371 
L 261.099091 255.937668 
L 264.257909 255.59833 
L 267.416727 254.943688 
L 270.575545 254.550436 
L 273.734364 254.246381 
L 276.893182 253.821149 
L 280.052 253.118254 
L 283.210818 252.59528 
L 286.369636 252.402402 
L 289.528455 252.003327 
L 292.687273 251.711353 
L 295.846091 251.327981 
L 299.004909 251.010534 
L 302.163727 250.629013 
L 305.322545 250.054528 
L 308.481364 249.641935 
L 311.640182 249.34008 
L 314.799 249.14428 
L 317.957818 248.662389 
L 321.116636 248.408889 
L 324.275455 247.843512 
L 327.434273 247.399898 
L 330.593091 246.937122 
L 333.751909 246.066527 
L 336.910727 245.062465 
L 340.069545 244.687213 
L 343.228364 244.293503 
L 346.387182 243.50283 
L 349.546 243.050685 
L 352.704818 241.960976 
L 355.863636 241.068283 
L 359.022455 239.552842 
L 362.181273 238.485984 
L 365.340091 236.886202 
L 368.498909 235.990635 
L 371.657727 235.407517 
L 374.816545 235.112657 
L 377.975364 233.367187 
L 381.134182 231.785486 
L 384.293 229.378627 
L 387.451818 227.643816 
L 390.610636 226.5134 
L 393.769455 223.842713 
L 396.928273 221.361615 
L 400.087091 218.70981 
L 403.245909 212.247867 
" style="fill:none;stroke:#ff7f0e;stroke-linecap:square;stroke-width:3;"/>
   </g>
   <g id="patch_9">
    <path d="M 71.57 333.98 
L 71.57 199.28125 
" style="fill:none;stroke:#000000;stroke-linecap:square;stroke-linejoin:miter;stroke-width:0.8;"/>
   </g>
   <g id="patch_10">
    <path d="M 419.04 333.98 
L 419.04 199.28125 
" style="fill:none;stroke:#000000;stroke-linecap:square;stroke-linejoin:miter;stroke-width:0.8;"/>
   </g>
   <g id="patch_11">
    <path d="M 71.57 333.98 
L 419.04 333.98 
" style="fill:none;stroke:#000000;stroke-linecap:square;stroke-linejoin:miter;stroke-width:0.8;"/>
   </g>
   <g id="patch_12">
    <path d="M 71.57 199.28125 
L 419.04 199.28125 
" style="fill:none;stroke:#000000;stroke-linecap:square;stroke-linejoin:miter;stroke-width:0.8;"/>
   </g>
   <g id="text_15">
    <!-- 5 år investering -->
    <g transform="translate(197.903125 193.28125)scale(0.12 -0.12)">
     <defs>
      <path d="M 10.796875 72.90625 
L 49.515625 72.90625 
L 49.515625 64.59375 
L 19.828125 64.59375 
L 19.828125 46.734375 
Q 21.96875 47.46875 24.109375 47.828125 
Q 26.265625 48.1875 28.421875 48.1875 
Q 40.625 48.1875 47.75 41.5 
Q 54.890625 34.8125 54.890625 23.390625 
Q 54.890625 11.625 47.5625 5.09375 
Q 40.234375 -1.421875 26.90625 -1.421875 
Q 22.3125 -1.421875 17.546875 -0.640625 
Q 12.796875 0.140625 7.71875 1.703125 
L 7.71875 11.625 
Q 12.109375 9.234375 16.796875 8.0625 
Q 21.484375 6.890625 26.703125 6.890625 
Q 35.15625 6.890625 40.078125 11.328125 
Q 45.015625 15.765625 45.015625 23.390625 
Q 45.015625 31 40.078125 35.4375 
Q 35.15625 39.890625 26.703125 39.890625 
Q 22.75 39.890625 18.8125 39.015625 
Q 14.890625 38.140625 10.796875 36.28125 
z
" id="DejaVuSans-53"/>
     </defs>
     <use xlink:href="#DejaVuSans-53"/>
     <use x="63.623047" xlink:href="#DejaVuSans-32"/>
     <use x="95.410156" xlink:href="#DejaVuSans-229"/>
     <use x="156.689453" xlink:href="#DejaVuSans-114"/>
     <use x="197.802734" xlink:href="#DejaVuSans-32"/>
     <use x="229.589844" xlink:href="#DejaVuSans-105"/>
     <use x="257.373047" xlink:href="#DejaVuSans-110"/>
     <use x="320.751953" xlink:href="#DejaVuSans-118"/>
     <use x="379.931641" xlink:href="#DejaVuSans-101"/>
     <use x="441.455078" xlink:href="#DejaVuSans-115"/>
     <use x="493.554688" xlink:href="#DejaVuSans-116"/>
     <use x="532.763672" xlink:href="#DejaVuSans-101"/>
     <use x="594.287109" xlink:href="#DejaVuSans-114"/>
     <use x="635.400391" xlink:href="#DejaVuSans-105"/>
     <use x="663.183594" xlink:href="#DejaVuSans-110"/>
     <use x="726.5625" xlink:href="#DejaVuSans-103"/>
    </g>
   </g>
  </g>
  <g id="axes_3">
   <g id="patch_13">
    <path d="M 71.57 504.21 
L 419.04 504.21 
L 419.04 369.51125 
L 71.57 369.51125 
z
" style="fill:#ffffff;"/>
   </g>
   <g id="matplotlib.axis_5">
    <g id="xtick_23">
     <g id="line2d_71">
      <path clip-path="url(#pd5f70955e5)" d="M 87.364091 504.21 
L 87.364091 369.51125 
" style="fill:none;stroke:#b0b0b0;stroke-linecap:square;stroke-width:0.8;"/>
     </g>
     <g id="line2d_72">
      <g>
       <use style="stroke:#000000;stroke-width:0.8;" x="87.364091" xlink:href="#m64d4d65f27" y="504.21"/>
      </g>
     </g>
    </g>
    <g id="xtick_24">
     <g id="line2d_73">
      <path clip-path="url(#pd5f70955e5)" d="M 118.952273 504.21 
L 118.952273 369.51125 
" style="fill:none;stroke:#b0b0b0;stroke-linecap:square;stroke-width:0.8;"/>
     </g>
     <g id="line2d_74">
      <g>
       <use style="stroke:#000000;stroke-width:0.8;" x="118.952273" xlink:href="#m64d4d65f27" y="504.21"/>
      </g>
     </g>
    </g>
    <g id="xtick_25">
     <g id="line2d_75">
      <path clip-path="url(#pd5f70955e5)" d="M 150.540455 504.21 
L 150.540455 369.51125 
" style="fill:none;stroke:#b0b0b0;stroke-linecap:square;stroke-width:0.8;"/>
     </g>
     <g id="line2d_76">
      <g>
       <use style="stroke:#000000;stroke-width:0.8;" x="150.540455" xlink:href="#m64d4d65f27" y="504.21"/>
      </g>
     </g>
    </g>
    <g id="xtick_26">
     <g id="line2d_77">
      <path clip-path="url(#pd5f70955e5)" d="M 182.128636 504.21 
L 182.128636 369.51125 
" style="fill:none;stroke:#b0b0b0;stroke-linecap:square;stroke-width:0.8;"/>
     </g>
     <g id="line2d_78">
      <g>
       <use style="stroke:#000000;stroke-width:0.8;" x="182.128636" xlink:href="#m64d4d65f27" y="504.21"/>
      </g>
     </g>
    </g>
    <g id="xtick_27">
     <g id="line2d_79">
      <path clip-path="url(#pd5f70955e5)" d="M 213.716818 504.21 
L 213.716818 369.51125 
" style="fill:none;stroke:#b0b0b0;stroke-linecap:square;stroke-width:0.8;"/>
     </g>
     <g id="line2d_80">
      <g>
       <use style="stroke:#000000;stroke-width:0.8;" x="213.716818" xlink:href="#m64d4d65f27" y="504.21"/>
      </g>
     </g>
    </g>
    <g id="xtick_28">
     <g id="line2d_81">
      <path clip-path="url(#pd5f70955e5)" d="M 245.305 504.21 
L 245.305 369.51125 
" style="fill:none;stroke:#b0b0b0;stroke-linecap:square;stroke-width:0.8;"/>
     </g>
     <g id="line2d_82">
      <g>
       <use style="stroke:#000000;stroke-width:0.8;" x="245.305" xlink:href="#m64d4d65f27" y="504.21"/>
      </g>
     </g>
    </g>
    <g id="xtick_29">
     <g id="line2d_83">
      <path clip-path="url(#pd5f70955e5)" d="M 276.893182 504.21 
L 276.893182 369.51125 
" style="fill:none;stroke:#b0b0b0;stroke-linecap:square;stroke-width:0.8;"/>
     </g>
     <g id="line2d_84">
      <g>
       <use style="stroke:#000000;stroke-width:0.8;" x="276.893182" xlink:href="#m64d4d65f27" y="504.21"/>
      </g>
     </g>
    </g>
    <g id="xtick_30">
     <g id="line2d_85">
      <path clip-path="url(#pd5f70955e5)" d="M 308.481364 504.21 
L 308.481364 369.51125 
" style="fill:none;stroke:#b0b0b0;stroke-linecap:square;stroke-width:0.8;"/>
     </g>
     <g id="line2d_86">
      <g>
       <use style="stroke:#000000;stroke-width:0.8;" x="308.481364" xlink:href="#m64d4d65f27" y="504.21"/>
      </g>
     </g>
    </g>
    <g id="xtick_31">
     <g id="line2d_87">
      <path clip-path="url(#pd5f70955e5)" d="M 340.069545 504.21 
L 340.069545 369.51125 
" style="fill:none;stroke:#b0b0b0;stroke-linecap:square;stroke-width:0.8;"/>
     </g>
     <g id="line2d_88">
      <g>
       <use style="stroke:#000000;stroke-width:0.8;" x="340.069545" xlink:href="#m64d4d65f27" y="504.21"/>
      </g>
     </g>
    </g>
    <g id="xtick_32">
     <g id="line2d_89">
      <path clip-path="url(#pd5f70955e5)" d="M 371.657727 504.21 
L 371.657727 369.51125 
" style="fill:none;stroke:#b0b0b0;stroke-linecap:square;stroke-width:0.8;"/>
     </g>
     <g id="line2d_90">
      <g>
       <use style="stroke:#000000;stroke-width:0.8;" x="371.657727" xlink:href="#m64d4d65f27" y="504.21"/>
      </g>
     </g>
    </g>
    <g id="xtick_33">
     <g id="line2d_91">
      <path clip-path="url(#pd5f70955e5)" d="M 403.245909 504.21 
L 403.245909 369.51125 
" style="fill:none;stroke:#b0b0b0;stroke-linecap:square;stroke-width:0.8;"/>
     </g>
     <g id="line2d_92">
      <g>
       <use style="stroke:#000000;stroke-width:0.8;" x="403.245909" xlink:href="#m64d4d65f27" y="504.21"/>
      </g>
     </g>
    </g>
   </g>
   <g id="matplotlib.axis_6">
    <g id="ytick_10">
     <g id="line2d_93">
      <path clip-path="url(#pd5f70955e5)" d="M 71.57 497.795774 
L 419.04 497.795774 
" style="fill:none;stroke:#b0b0b0;stroke-linecap:square;stroke-width:0.8;"/>
     </g>
     <g id="line2d_94">
      <g>
       <use style="stroke:#000000;stroke-width:0.8;" x="71.57" xlink:href="#m8d07ca2e02" y="497.795774"/>
      </g>
     </g>
     <g id="text_16">
      <!-- −0.05 -->
      <g transform="translate(27.795625 502.354836)scale(0.12 -0.12)">
       <use xlink:href="#DejaVuSans-8722"/>
       <use x="83.789062" xlink:href="#DejaVuSans-48"/>
       <use x="147.412109" xlink:href="#DejaVuSans-46"/>
       <use x="179.199219" xlink:href="#DejaVuSans-48"/>
       <use x="242.822266" xlink:href="#DejaVuSans-53"/>
      </g>
     </g>
    </g>
    <g id="ytick_11">
     <g id="line2d_95">
      <path clip-path="url(#pd5f70955e5)" d="M 71.57 465.724643 
L 419.04 465.724643 
" style="fill:none;stroke:#b0b0b0;stroke-linecap:square;stroke-width:0.8;"/>
     </g>
     <g id="line2d_96">
      <g>
       <use style="stroke:#000000;stroke-width:0.8;" x="71.57" xlink:href="#m8d07ca2e02" y="465.724643"/>
      </g>
     </g>
     <g id="text_17">
      <!-- 0.00 -->
      <g transform="translate(37.85125 470.283705)scale(0.12 -0.12)">
       <use xlink:href="#DejaVuSans-48"/>
       <use x="63.623047" xlink:href="#DejaVuSans-46"/>
       <use x="95.410156" xlink:href="#DejaVuSans-48"/>
       <use x="159.033203" xlink:href="#DejaVuSans-48"/>
      </g>
     </g>
    </g>
    <g id="ytick_12">
     <g id="line2d_97">
      <path clip-path="url(#pd5f70955e5)" d="M 71.57 433.653512 
L 419.04 433.653512 
" style="fill:none;stroke:#b0b0b0;stroke-linecap:square;stroke-width:0.8;"/>
     </g>
     <g id="line2d_98">
      <g>
       <use style="stroke:#000000;stroke-width:0.8;" x="71.57" xlink:href="#m8d07ca2e02" y="433.653512"/>
      </g>
     </g>
     <g id="text_18">
      <!-- 0.05 -->
      <g transform="translate(37.85125 438.212574)scale(0.12 -0.12)">
       <use xlink:href="#DejaVuSans-48"/>
       <use x="63.623047" xlink:href="#DejaVuSans-46"/>
       <use x="95.410156" xlink:href="#DejaVuSans-48"/>
       <use x="159.033203" xlink:href="#DejaVuSans-53"/>
      </g>
     </g>
    </g>
    <g id="ytick_13">
     <g id="line2d_99">
      <path clip-path="url(#pd5f70955e5)" d="M 71.57 401.582381 
L 419.04 401.582381 
" style="fill:none;stroke:#b0b0b0;stroke-linecap:square;stroke-width:0.8;"/>
     </g>
     <g id="line2d_100">
      <g>
       <use style="stroke:#000000;stroke-width:0.8;" x="71.57" xlink:href="#m8d07ca2e02" y="401.582381"/>
      </g>
     </g>
     <g id="text_19">
      <!-- 0.10 -->
      <g transform="translate(37.85125 406.141443)scale(0.12 -0.12)">
       <use xlink:href="#DejaVuSans-48"/>
       <use x="63.623047" xlink:href="#DejaVuSans-46"/>
       <use x="95.410156" xlink:href="#DejaVuSans-49"/>
       <use x="159.033203" xlink:href="#DejaVuSans-48"/>
      </g>
     </g>
    </g>
    <g id="ytick_14">
     <g id="line2d_101">
      <path clip-path="url(#pd5f70955e5)" d="M 71.57 369.51125 
L 419.04 369.51125 
" style="fill:none;stroke:#b0b0b0;stroke-linecap:square;stroke-width:0.8;"/>
     </g>
     <g id="line2d_102">
      <g>
       <use style="stroke:#000000;stroke-width:0.8;" x="71.57" xlink:href="#m8d07ca2e02" y="369.51125"/>
      </g>
     </g>
     <g id="text_20">
      <!-- 0.15 -->
      <g transform="translate(37.85125 374.070313)scale(0.12 -0.12)">
       <use xlink:href="#DejaVuSans-48"/>
       <use x="63.623047" xlink:href="#DejaVuSans-46"/>
       <use x="95.410156" xlink:href="#DejaVuSans-49"/>
       <use x="159.033203" xlink:href="#DejaVuSans-53"/>
      </g>
     </g>
    </g>
    <g id="text_21">
     <!-- CAGR -->
     <g transform="translate(21.3 453.867813)rotate(-90)scale(0.12 -0.12)">
      <use xlink:href="#DejaVuSans-67"/>
      <use x="69.824219" xlink:href="#DejaVuSans-65"/>
      <use x="136.482422" xlink:href="#DejaVuSans-71"/>
      <use x="213.972656" xlink:href="#DejaVuSans-82"/>
     </g>
    </g>
   </g>
   <g id="line2d_103">
    <path clip-path="url(#pd5f70955e5)" d="M 87.364091 497.277661 
L 90.522909 483.761533 
L 93.681727 479.592837 
L 96.840545 476.21417 
L 99.999364 467.714588 
L 103.158182 461.574647 
L 106.317 459.18316 
L 109.475818 457.362917 
L 112.634636 456.721187 
L 115.793455 456.17655 
L 118.952273 454.802019 
L 122.111091 453.065769 
L 125.269909 451.302157 
L 128.428727 450.654537 
L 131.587545 449.731878 
L 134.746364 447.916938 
L 137.905182 446.394706 
L 141.064 443.845991 
L 144.222818 441.636379 
L 147.381636 439.61202 
L 150.540455 438.874511 
L 153.699273 438.149257 
L 156.858091 437.57133 
L 160.016909 436.777442 
L 163.175727 436.283777 
L 166.334545 435.835689 
L 169.493364 435.153575 
L 172.652182 434.858358 
L 175.811 434.329271 
L 178.969818 434.045723 
L 182.128636 433.446772 
L 185.287455 432.96428 
L 188.446273 432.459535 
L 191.605091 431.92442 
L 194.763909 431.637034 
L 197.922727 431.032923 
L 201.081545 430.57257 
L 204.240364 429.764882 
L 207.399182 429.140964 
L 210.558 427.872858 
L 213.716818 427.115941 
L 216.875636 426.376597 
L 220.034455 425.869133 
L 223.193273 425.002342 
L 226.352091 424.433589 
L 229.510909 423.656774 
L 232.669727 422.359395 
L 235.828545 421.471031 
L 238.987364 420.492864 
L 242.146182 419.916501 
L 245.305 419.288018 
L 248.463818 418.393075 
L 251.622636 417.941146 
L 254.781455 417.46786 
L 257.940273 417.140578 
L 261.099091 415.106571 
L 264.257909 414.463848 
L 267.416727 412.879036 
L 270.575545 411.766429 
L 273.734364 410.268821 
L 276.893182 408.855178 
L 280.052 408.041672 
L 283.210818 407.007405 
L 286.369636 406.383225 
L 289.528455 405.890074 
L 292.687273 405.152775 
L 295.846091 404.394738 
L 299.004909 404.079297 
L 302.163727 403.381586 
L 305.322545 403.081554 
L 308.481364 402.39996 
L 311.640182 402.094587 
L 314.799 401.660472 
L 317.957818 400.595138 
L 321.116636 400.324284 
L 324.275455 399.760673 
L 327.434273 399.527181 
L 330.593091 399.147053 
L 333.751909 398.395058 
L 336.910727 397.462848 
L 340.069545 396.549599 
L 343.228364 395.82815 
L 346.387182 395.53402 
L 349.546 395.251586 
L 352.704818 394.722804 
L 355.863636 393.992272 
L 359.022455 393.351026 
L 362.181273 392.768568 
L 365.340091 391.960686 
L 368.498909 391.444905 
L 371.657727 390.470441 
L 374.816545 389.232401 
L 377.975364 388.51732 
L 381.134182 387.752505 
L 384.293 385.957335 
L 387.451818 385.380127 
L 390.610636 384.678067 
L 393.769455 383.804459 
L 396.928273 382.265915 
L 400.087091 380.905006 
L 403.245909 378.153697 
" style="fill:none;stroke:#1f77b4;stroke-linecap:square;stroke-width:3;"/>
   </g>
   <g id="line2d_104">
    <path clip-path="url(#pd5f70955e5)" d="M 87.364091 492.440799 
L 90.522909 480.84891 
L 93.681727 474.001374 
L 96.840545 470.32596 
L 99.999364 466.481803 
L 103.158182 457.927 
L 106.317 455.170082 
L 109.475818 454.075193 
L 112.634636 452.6111 
L 115.793455 450.947231 
L 118.952273 450.099572 
L 122.111091 449.001331 
L 125.269909 447.624584 
L 128.428727 447.029127 
L 131.587545 446.11954 
L 134.746364 444.921172 
L 137.905182 443.402233 
L 141.064 441.986436 
L 144.222818 440.361043 
L 147.381636 439.191616 
L 150.540455 438.226847 
L 153.699273 437.348721 
L 156.858091 436.261057 
L 160.016909 435.547475 
L 163.175727 434.953963 
L 166.334545 434.627171 
L 169.493364 434.200369 
L 172.652182 433.848909 
L 175.811 433.433058 
L 178.969818 432.967554 
L 182.128636 432.683858 
L 185.287455 432.319999 
L 188.446273 431.985291 
L 191.605091 431.771753 
L 194.763909 431.502986 
L 197.922727 431.075271 
L 201.081545 430.668027 
L 204.240364 430.294295 
L 207.399182 429.946309 
L 210.558 429.59697 
L 213.716818 429.200827 
L 216.875636 428.784933 
L 220.034455 428.092554 
L 223.193273 427.075468 
L 226.352091 426.513442 
L 229.510909 425.614465 
L 232.669727 424.993232 
L 235.828545 424.050887 
L 238.987364 423.504089 
L 242.146182 422.704213 
L 245.305 422.001595 
L 248.463818 421.469761 
L 251.622636 420.488241 
L 254.781455 419.499047 
L 257.940273 418.949172 
L 261.099091 418.416836 
L 264.257909 417.617043 
L 267.416727 416.682979 
L 270.575545 415.020833 
L 273.734364 413.761257 
L 276.893182 412.707472 
L 280.052 411.698394 
L 283.210818 410.858268 
L 286.369636 409.649324 
L 289.528455 408.180642 
L 292.687273 407.860204 
L 295.846091 407.304329 
L 299.004909 406.805766 
L 302.163727 406.052373 
L 305.322545 405.594229 
L 308.481364 405.014345 
L 311.640182 404.594013 
L 314.799 404.091316 
L 317.957818 403.747853 
L 321.116636 403.463629 
L 324.275455 403.187171 
L 327.434273 402.715681 
L 330.593091 402.298944 
L 333.751909 401.773591 
L 336.910727 401.493863 
L 340.069545 400.721492 
L 343.228364 400.203909 
L 346.387182 399.901849 
L 349.546 399.316262 
L 352.704818 398.641051 
L 355.863636 398.213696 
L 359.022455 397.553332 
L 362.181273 397.332721 
L 365.340091 396.465021 
L 368.498909 395.953198 
L 371.657727 395.118039 
L 374.816545 394.24323 
L 377.975364 393.550866 
L 381.134182 393.090809 
L 384.293 391.810003 
L 387.451818 390.76432 
L 390.610636 389.727541 
L 393.769455 388.816282 
L 396.928273 387.839633 
L 400.087091 386.351755 
L 403.245909 384.636266 
" style="fill:none;stroke:#ff7f0e;stroke-linecap:square;stroke-width:3;"/>
   </g>
   <g id="patch_14">
    <path d="M 71.57 504.21 
L 71.57 369.51125 
" style="fill:none;stroke:#000000;stroke-linecap:square;stroke-linejoin:miter;stroke-width:0.8;"/>
   </g>
   <g id="patch_15">
    <path d="M 419.04 504.21 
L 419.04 369.51125 
" style="fill:none;stroke:#000000;stroke-linecap:square;stroke-linejoin:miter;stroke-width:0.8;"/>
   </g>
   <g id="patch_16">
    <path d="M 71.57 504.21 
L 419.04 504.21 
" style="fill:none;stroke:#000000;stroke-linecap:square;stroke-linejoin:miter;stroke-width:0.8;"/>
   </g>
   <g id="patch_17">
    <path d="M 71.57 369.51125 
L 419.04 369.51125 
" style="fill:none;stroke:#000000;stroke-linecap:square;stroke-linejoin:miter;stroke-width:0.8;"/>
   </g>
   <g id="text_22">
    <!-- 10 år investering -->
    <g transform="translate(194.085625 363.51125)scale(0.12 -0.12)">
     <use xlink:href="#DejaVuSans-49"/>
     <use x="63.623047" xlink:href="#DejaVuSans-48"/>
     <use x="127.246094" xlink:href="#DejaVuSans-32"/>
     <use x="159.033203" xlink:href="#DejaVuSans-229"/>
     <use x="220.3125" xlink:href="#DejaVuSans-114"/>
     <use x="261.425781" xlink:href="#DejaVuSans-32"/>
     <use x="293.212891" xlink:href="#DejaVuSans-105"/>
     <use x="320.996094" xlink:href="#DejaVuSans-110"/>
     <use x="384.375" xlink:href="#DejaVuSans-118"/>
     <use x="443.554688" xlink:href="#DejaVuSans-101"/>
     <use x="505.078125" xlink:href="#DejaVuSans-115"/>
     <use x="557.177734" xlink:href="#DejaVuSans-116"/>
     <use x="596.386719" xlink:href="#DejaVuSans-101"/>
     <use x="657.910156" xlink:href="#DejaVuSans-114"/>
     <use x="699.023438" xlink:href="#DejaVuSans-105"/>
     <use x="726.806641" xlink:href="#DejaVuSans-110"/>
     <use x="790.185547" xlink:href="#DejaVuSans-103"/>
    </g>
   </g>
  </g>
  <g id="axes_4">
   <g id="patch_18">
    <path d="M 71.57 674.44 
L 419.04 674.44 
L 419.04 539.74125 
L 71.57 539.74125 
z
" style="fill:#ffffff;"/>
   </g>
   <g id="matplotlib.axis_7">
    <g id="xtick_34">
     <g id="line2d_105">
      <path clip-path="url(#pfafbbd7135)" d="M 87.364091 674.44 
L 87.364091 539.74125 
" style="fill:none;stroke:#b0b0b0;stroke-linecap:square;stroke-width:0.8;"/>
     </g>
     <g id="line2d_106">
      <g>
       <use style="stroke:#000000;stroke-width:0.8;" x="87.364091" xlink:href="#m64d4d65f27" y="674.44"/>
      </g>
     </g>
     <g id="text_23">
      <!-- 0.0 -->
      <g transform="translate(77.822216 690.558125)scale(0.12 -0.12)">
       <use xlink:href="#DejaVuSans-48"/>
       <use x="63.623047" xlink:href="#DejaVuSans-46"/>
       <use x="95.410156" xlink:href="#DejaVuSans-48"/>
      </g>
     </g>
    </g>
    <g id="xtick_35">
     <g id="line2d_107">
      <path clip-path="url(#pfafbbd7135)" d="M 118.952273 674.44 
L 118.952273 539.74125 
" style="fill:none;stroke:#b0b0b0;stroke-linecap:square;stroke-width:0.8;"/>
     </g>
     <g id="line2d_108">
      <g>
       <use style="stroke:#000000;stroke-width:0.8;" x="118.952273" xlink:href="#m64d4d65f27" y="674.44"/>
      </g>
     </g>
     <g id="text_24">
      <!-- 0.1 -->
      <g transform="translate(109.410398 690.558125)scale(0.12 -0.12)">
       <use xlink:href="#DejaVuSans-48"/>
       <use x="63.623047" xlink:href="#DejaVuSans-46"/>
       <use x="95.410156" xlink:href="#DejaVuSans-49"/>
      </g>
     </g>
    </g>
    <g id="xtick_36">
     <g id="line2d_109">
      <path clip-path="url(#pfafbbd7135)" d="M 150.540455 674.44 
L 150.540455 539.74125 
" style="fill:none;stroke:#b0b0b0;stroke-linecap:square;stroke-width:0.8;"/>
     </g>
     <g id="line2d_110">
      <g>
       <use style="stroke:#000000;stroke-width:0.8;" x="150.540455" xlink:href="#m64d4d65f27" y="674.44"/>
      </g>
     </g>
     <g id="text_25">
      <!-- 0.2 -->
      <g transform="translate(140.99858 690.558125)scale(0.12 -0.12)">
       <use xlink:href="#DejaVuSans-48"/>
       <use x="63.623047" xlink:href="#DejaVuSans-46"/>
       <use x="95.410156" xlink:href="#DejaVuSans-50"/>
      </g>
     </g>
    </g>
    <g id="xtick_37">
     <g id="line2d_111">
      <path clip-path="url(#pfafbbd7135)" d="M 182.128636 674.44 
L 182.128636 539.74125 
" style="fill:none;stroke:#b0b0b0;stroke-linecap:square;stroke-width:0.8;"/>
     </g>
     <g id="line2d_112">
      <g>
       <use style="stroke:#000000;stroke-width:0.8;" x="182.128636" xlink:href="#m64d4d65f27" y="674.44"/>
      </g>
     </g>
     <g id="text_26">
      <!-- 0.3 -->
      <g transform="translate(172.586761 690.558125)scale(0.12 -0.12)">
       <defs>
        <path d="M 40.578125 39.3125 
Q 47.65625 37.796875 51.625 33 
Q 55.609375 28.21875 55.609375 21.1875 
Q 55.609375 10.40625 48.1875 4.484375 
Q 40.765625 -1.421875 27.09375 -1.421875 
Q 22.515625 -1.421875 17.65625 -0.515625 
Q 12.796875 0.390625 7.625 2.203125 
L 7.625 11.71875 
Q 11.71875 9.328125 16.59375 8.109375 
Q 21.484375 6.890625 26.8125 6.890625 
Q 36.078125 6.890625 40.9375 10.546875 
Q 45.796875 14.203125 45.796875 21.1875 
Q 45.796875 27.640625 41.28125 31.265625 
Q 36.765625 34.90625 28.71875 34.90625 
L 20.21875 34.90625 
L 20.21875 43.015625 
L 29.109375 43.015625 
Q 36.375 43.015625 40.234375 45.921875 
Q 44.09375 48.828125 44.09375 54.296875 
Q 44.09375 59.90625 40.109375 62.90625 
Q 36.140625 65.921875 28.71875 65.921875 
Q 24.65625 65.921875 20.015625 65.03125 
Q 15.375 64.15625 9.8125 62.3125 
L 9.8125 71.09375 
Q 15.4375 72.65625 20.34375 73.4375 
Q 25.25 74.21875 29.59375 74.21875 
Q 40.828125 74.21875 47.359375 69.109375 
Q 53.90625 64.015625 53.90625 55.328125 
Q 53.90625 49.265625 50.4375 45.09375 
Q 46.96875 40.921875 40.578125 39.3125 
z
" id="DejaVuSans-51"/>
       </defs>
       <use xlink:href="#DejaVuSans-48"/>
       <use x="63.623047" xlink:href="#DejaVuSans-46"/>
       <use x="95.410156" xlink:href="#DejaVuSans-51"/>
      </g>
     </g>
    </g>
    <g id="xtick_38">
     <g id="line2d_113">
      <path clip-path="url(#pfafbbd7135)" d="M 213.716818 674.44 
L 213.716818 539.74125 
" style="fill:none;stroke:#b0b0b0;stroke-linecap:square;stroke-width:0.8;"/>
     </g>
     <g id="line2d_114">
      <g>
       <use style="stroke:#000000;stroke-width:0.8;" x="213.716818" xlink:href="#m64d4d65f27" y="674.44"/>
      </g>
     </g>
     <g id="text_27">
      <!-- 0.4 -->
      <g transform="translate(204.174943 690.558125)scale(0.12 -0.12)">
       <use xlink:href="#DejaVuSans-48"/>
       <use x="63.623047" xlink:href="#DejaVuSans-46"/>
       <use x="95.410156" xlink:href="#DejaVuSans-52"/>
      </g>
     </g>
    </g>
    <g id="xtick_39">
     <g id="line2d_115">
      <path clip-path="url(#pfafbbd7135)" d="M 245.305 674.44 
L 245.305 539.74125 
" style="fill:none;stroke:#b0b0b0;stroke-linecap:square;stroke-width:0.8;"/>
     </g>
     <g id="line2d_116">
      <g>
       <use style="stroke:#000000;stroke-width:0.8;" x="245.305" xlink:href="#m64d4d65f27" y="674.44"/>
      </g>
     </g>
     <g id="text_28">
      <!-- 0.5 -->
      <g transform="translate(235.763125 690.558125)scale(0.12 -0.12)">
       <use xlink:href="#DejaVuSans-48"/>
       <use x="63.623047" xlink:href="#DejaVuSans-46"/>
       <use x="95.410156" xlink:href="#DejaVuSans-53"/>
      </g>
     </g>
    </g>
    <g id="xtick_40">
     <g id="line2d_117">
      <path clip-path="url(#pfafbbd7135)" d="M 276.893182 674.44 
L 276.893182 539.74125 
" style="fill:none;stroke:#b0b0b0;stroke-linecap:square;stroke-width:0.8;"/>
     </g>
     <g id="line2d_118">
      <g>
       <use style="stroke:#000000;stroke-width:0.8;" x="276.893182" xlink:href="#m64d4d65f27" y="674.44"/>
      </g>
     </g>
     <g id="text_29">
      <!-- 0.6 -->
      <g transform="translate(267.351307 690.558125)scale(0.12 -0.12)">
       <defs>
        <path d="M 33.015625 40.375 
Q 26.375 40.375 22.484375 35.828125 
Q 18.609375 31.296875 18.609375 23.390625 
Q 18.609375 15.53125 22.484375 10.953125 
Q 26.375 6.390625 33.015625 6.390625 
Q 39.65625 6.390625 43.53125 10.953125 
Q 47.40625 15.53125 47.40625 23.390625 
Q 47.40625 31.296875 43.53125 35.828125 
Q 39.65625 40.375 33.015625 40.375 
z
M 52.59375 71.296875 
L 52.59375 62.3125 
Q 48.875 64.0625 45.09375 64.984375 
Q 41.3125 65.921875 37.59375 65.921875 
Q 27.828125 65.921875 22.671875 59.328125 
Q 17.53125 52.734375 16.796875 39.40625 
Q 19.671875 43.65625 24.015625 45.921875 
Q 28.375 48.1875 33.59375 48.1875 
Q 44.578125 48.1875 50.953125 41.515625 
Q 57.328125 34.859375 57.328125 23.390625 
Q 57.328125 12.15625 50.6875 5.359375 
Q 44.046875 -1.421875 33.015625 -1.421875 
Q 20.359375 -1.421875 13.671875 8.265625 
Q 6.984375 17.96875 6.984375 36.375 
Q 6.984375 53.65625 15.1875 63.9375 
Q 23.390625 74.21875 37.203125 74.21875 
Q 40.921875 74.21875 44.703125 73.484375 
Q 48.484375 72.75 52.59375 71.296875 
z
" id="DejaVuSans-54"/>
       </defs>
       <use xlink:href="#DejaVuSans-48"/>
       <use x="63.623047" xlink:href="#DejaVuSans-46"/>
       <use x="95.410156" xlink:href="#DejaVuSans-54"/>
      </g>
     </g>
    </g>
    <g id="xtick_41">
     <g id="line2d_119">
      <path clip-path="url(#pfafbbd7135)" d="M 308.481364 674.44 
L 308.481364 539.74125 
" style="fill:none;stroke:#b0b0b0;stroke-linecap:square;stroke-width:0.8;"/>
     </g>
     <g id="line2d_120">
      <g>
       <use style="stroke:#000000;stroke-width:0.8;" x="308.481364" xlink:href="#m64d4d65f27" y="674.44"/>
      </g>
     </g>
     <g id="text_30">
      <!-- 0.7 -->
      <g transform="translate(298.939489 690.558125)scale(0.12 -0.12)">
       <defs>
        <path d="M 8.203125 72.90625 
L 55.078125 72.90625 
L 55.078125 68.703125 
L 28.609375 0 
L 18.3125 0 
L 43.21875 64.59375 
L 8.203125 64.59375 
z
" id="DejaVuSans-55"/>
       </defs>
       <use xlink:href="#DejaVuSans-48"/>
       <use x="63.623047" xlink:href="#DejaVuSans-46"/>
       <use x="95.410156" xlink:href="#DejaVuSans-55"/>
      </g>
     </g>
    </g>
    <g id="xtick_42">
     <g id="line2d_121">
      <path clip-path="url(#pfafbbd7135)" d="M 340.069545 674.44 
L 340.069545 539.74125 
" style="fill:none;stroke:#b0b0b0;stroke-linecap:square;stroke-width:0.8;"/>
     </g>
     <g id="line2d_122">
      <g>
       <use style="stroke:#000000;stroke-width:0.8;" x="340.069545" xlink:href="#m64d4d65f27" y="674.44"/>
      </g>
     </g>
     <g id="text_31">
      <!-- 0.8 -->
      <g transform="translate(330.52767 690.558125)scale(0.12 -0.12)">
       <defs>
        <path d="M 31.78125 34.625 
Q 24.75 34.625 20.71875 30.859375 
Q 16.703125 27.09375 16.703125 20.515625 
Q 16.703125 13.921875 20.71875 10.15625 
Q 24.75 6.390625 31.78125 6.390625 
Q 38.8125 6.390625 42.859375 10.171875 
Q 46.921875 13.96875 46.921875 20.515625 
Q 46.921875 27.09375 42.890625 30.859375 
Q 38.875 34.625 31.78125 34.625 
z
M 21.921875 38.8125 
Q 15.578125 40.375 12.03125 44.71875 
Q 8.5 49.078125 8.5 55.328125 
Q 8.5 64.0625 14.71875 69.140625 
Q 20.953125 74.21875 31.78125 74.21875 
Q 42.671875 74.21875 48.875 69.140625 
Q 55.078125 64.0625 55.078125 55.328125 
Q 55.078125 49.078125 51.53125 44.71875 
Q 48 40.375 41.703125 38.8125 
Q 48.828125 37.15625 52.796875 32.3125 
Q 56.78125 27.484375 56.78125 20.515625 
Q 56.78125 9.90625 50.3125 4.234375 
Q 43.84375 -1.421875 31.78125 -1.421875 
Q 19.734375 -1.421875 13.25 4.234375 
Q 6.78125 9.90625 6.78125 20.515625 
Q 6.78125 27.484375 10.78125 32.3125 
Q 14.796875 37.15625 21.921875 38.8125 
z
M 18.3125 54.390625 
Q 18.3125 48.734375 21.84375 45.5625 
Q 25.390625 42.390625 31.78125 42.390625 
Q 38.140625 42.390625 41.71875 45.5625 
Q 45.3125 48.734375 45.3125 54.390625 
Q 45.3125 60.0625 41.71875 63.234375 
Q 38.140625 66.40625 31.78125 66.40625 
Q 25.390625 66.40625 21.84375 63.234375 
Q 18.3125 60.0625 18.3125 54.390625 
z
" id="DejaVuSans-56"/>
       </defs>
       <use xlink:href="#DejaVuSans-48"/>
       <use x="63.623047" xlink:href="#DejaVuSans-46"/>
       <use x="95.410156" xlink:href="#DejaVuSans-56"/>
      </g>
     </g>
    </g>
    <g id="xtick_43">
     <g id="line2d_123">
      <path clip-path="url(#pfafbbd7135)" d="M 371.657727 674.44 
L 371.657727 539.74125 
" style="fill:none;stroke:#b0b0b0;stroke-linecap:square;stroke-width:0.8;"/>
     </g>
     <g id="line2d_124">
      <g>
       <use style="stroke:#000000;stroke-width:0.8;" x="371.657727" xlink:href="#m64d4d65f27" y="674.44"/>
      </g>
     </g>
     <g id="text_32">
      <!-- 0.9 -->
      <g transform="translate(362.115852 690.558125)scale(0.12 -0.12)">
       <defs>
        <path d="M 10.984375 1.515625 
L 10.984375 10.5 
Q 14.703125 8.734375 18.5 7.8125 
Q 22.3125 6.890625 25.984375 6.890625 
Q 35.75 6.890625 40.890625 13.453125 
Q 46.046875 20.015625 46.78125 33.40625 
Q 43.953125 29.203125 39.59375 26.953125 
Q 35.25 24.703125 29.984375 24.703125 
Q 19.046875 24.703125 12.671875 31.3125 
Q 6.296875 37.9375 6.296875 49.421875 
Q 6.296875 60.640625 12.9375 67.421875 
Q 19.578125 74.21875 30.609375 74.21875 
Q 43.265625 74.21875 49.921875 64.515625 
Q 56.59375 54.828125 56.59375 36.375 
Q 56.59375 19.140625 48.40625 8.859375 
Q 40.234375 -1.421875 26.421875 -1.421875 
Q 22.703125 -1.421875 18.890625 -0.6875 
Q 15.09375 0.046875 10.984375 1.515625 
z
M 30.609375 32.421875 
Q 37.25 32.421875 41.125 36.953125 
Q 45.015625 41.5 45.015625 49.421875 
Q 45.015625 57.28125 41.125 61.84375 
Q 37.25 66.40625 30.609375 66.40625 
Q 23.96875 66.40625 20.09375 61.84375 
Q 16.21875 57.28125 16.21875 49.421875 
Q 16.21875 41.5 20.09375 36.953125 
Q 23.96875 32.421875 30.609375 32.421875 
z
" id="DejaVuSans-57"/>
       </defs>
       <use xlink:href="#DejaVuSans-48"/>
       <use x="63.623047" xlink:href="#DejaVuSans-46"/>
       <use x="95.410156" xlink:href="#DejaVuSans-57"/>
      </g>
     </g>
    </g>
    <g id="xtick_44">
     <g id="line2d_125">
      <path clip-path="url(#pfafbbd7135)" d="M 403.245909 674.44 
L 403.245909 539.74125 
" style="fill:none;stroke:#b0b0b0;stroke-linecap:square;stroke-width:0.8;"/>
     </g>
     <g id="line2d_126">
      <g>
       <use style="stroke:#000000;stroke-width:0.8;" x="403.245909" xlink:href="#m64d4d65f27" y="674.44"/>
      </g>
     </g>
     <g id="text_33">
      <!-- 1.0 -->
      <g transform="translate(393.704034 690.558125)scale(0.12 -0.12)">
       <use xlink:href="#DejaVuSans-49"/>
       <use x="63.623047" xlink:href="#DejaVuSans-46"/>
       <use x="95.410156" xlink:href="#DejaVuSans-48"/>
      </g>
     </g>
    </g>
    <g id="text_34">
     <!-- Fraktil -->
     <g transform="translate(226.985313 706.171875)scale(0.12 -0.12)">
      <defs>
       <path d="M 9.8125 72.90625 
L 51.703125 72.90625 
L 51.703125 64.59375 
L 19.671875 64.59375 
L 19.671875 43.109375 
L 48.578125 43.109375 
L 48.578125 34.8125 
L 19.671875 34.8125 
L 19.671875 0 
L 9.8125 0 
z
" id="DejaVuSans-70"/>
      </defs>
      <use xlink:href="#DejaVuSans-70"/>
      <use x="50.269531" xlink:href="#DejaVuSans-114"/>
      <use x="91.382812" xlink:href="#DejaVuSans-97"/>
      <use x="152.662109" xlink:href="#DejaVuSans-107"/>
      <use x="210.572266" xlink:href="#DejaVuSans-116"/>
      <use x="249.78125" xlink:href="#DejaVuSans-105"/>
      <use x="277.564453" xlink:href="#DejaVuSans-108"/>
     </g>
    </g>
   </g>
   <g id="matplotlib.axis_8">
    <g id="ytick_15">
     <g id="line2d_127">
      <path clip-path="url(#pfafbbd7135)" d="M 71.57 632.994231 
L 419.04 632.994231 
" style="fill:none;stroke:#b0b0b0;stroke-linecap:square;stroke-width:0.8;"/>
     </g>
     <g id="line2d_128">
      <g>
       <use style="stroke:#000000;stroke-width:0.8;" x="71.57" xlink:href="#m8d07ca2e02" y="632.994231"/>
      </g>
     </g>
     <g id="text_35">
      <!-- 0.05 -->
      <g transform="translate(37.85125 637.553293)scale(0.12 -0.12)">
       <use xlink:href="#DejaVuSans-48"/>
       <use x="63.623047" xlink:href="#DejaVuSans-46"/>
       <use x="95.410156" xlink:href="#DejaVuSans-48"/>
       <use x="159.033203" xlink:href="#DejaVuSans-53"/>
      </g>
     </g>
    </g>
    <g id="ytick_16">
     <g id="line2d_129">
      <path clip-path="url(#pfafbbd7135)" d="M 71.57 581.187019 
L 419.04 581.187019 
" style="fill:none;stroke:#b0b0b0;stroke-linecap:square;stroke-width:0.8;"/>
     </g>
     <g id="line2d_130">
      <g>
       <use style="stroke:#000000;stroke-width:0.8;" x="71.57" xlink:href="#m8d07ca2e02" y="581.187019"/>
      </g>
     </g>
     <g id="text_36">
      <!-- 0.10 -->
      <g transform="translate(37.85125 585.746082)scale(0.12 -0.12)">
       <use xlink:href="#DejaVuSans-48"/>
       <use x="63.623047" xlink:href="#DejaVuSans-46"/>
       <use x="95.410156" xlink:href="#DejaVuSans-49"/>
       <use x="159.033203" xlink:href="#DejaVuSans-48"/>
      </g>
     </g>
    </g>
    <g id="text_37">
     <!-- CAGR -->
     <g transform="translate(31.355625 624.097813)rotate(-90)scale(0.12 -0.12)">
      <use xlink:href="#DejaVuSans-67"/>
      <use x="69.824219" xlink:href="#DejaVuSans-65"/>
      <use x="136.482422" xlink:href="#DejaVuSans-71"/>
      <use x="213.972656" xlink:href="#DejaVuSans-82"/>
     </g>
    </g>
   </g>
   <g id="line2d_131">
    <path clip-path="url(#pfafbbd7135)" d="M 87.364091 651.882355 
L 90.522909 646.378558 
L 93.681727 645.657407 
L 96.840545 644.201671 
L 99.999364 642.205384 
L 103.158182 640.57581 
L 106.317 639.327366 
L 109.475818 638.444562 
L 112.634636 637.784157 
L 115.793455 637.129507 
L 118.952273 635.825759 
L 122.111091 635.110126 
L 125.269909 634.367595 
L 128.428727 633.689595 
L 131.587545 633.3662 
L 134.746364 632.872188 
L 137.905182 632.480889 
L 141.064 632.277067 
L 144.222818 631.99531 
L 147.381636 631.829784 
L 150.540455 631.370219 
L 153.699273 630.875304 
L 156.858091 630.671716 
L 160.016909 630.432929 
L 163.175727 629.662366 
L 166.334545 629.313401 
L 169.493364 629.006736 
L 172.652182 628.621729 
L 175.811 628.089563 
L 178.969818 627.602928 
L 182.128636 627.275039 
L 185.287455 626.882473 
L 188.446273 626.193524 
L 191.605091 625.82442 
L 194.763909 625.54263 
L 197.922727 624.625684 
L 201.081545 624.358936 
L 204.240364 623.531522 
L 207.399182 622.849776 
L 210.558 622.385855 
L 213.716818 621.859077 
L 216.875636 621.321403 
L 220.034455 620.863239 
L 223.193273 620.576028 
L 226.352091 620.034819 
L 229.510909 619.312055 
L 232.669727 618.715657 
L 235.828545 617.623411 
L 238.987364 616.362589 
L 242.146182 615.825974 
L 245.305 615.303247 
L 248.463818 614.580215 
L 251.622636 613.930887 
L 254.781455 612.14117 
L 257.940273 609.328905 
L 261.099091 608.287881 
L 264.257909 606.922216 
L 267.416727 606.422231 
L 270.575545 606.078294 
L 273.734364 605.650234 
L 276.893182 605.240829 
L 280.052 604.769194 
L 283.210818 604.165865 
L 286.369636 603.442834 
L 289.528455 602.796694 
L 292.687273 601.706501 
L 295.846091 601.269843 
L 299.004909 600.937692 
L 302.163727 600.246119 
L 305.322545 599.801595 
L 308.481364 599.438603 
L 311.640182 599.098966 
L 314.799 598.473544 
L 317.957818 597.772728 
L 321.116636 596.850688 
L 324.275455 595.910352 
L 327.434273 594.91414 
L 330.593091 593.726011 
L 333.751909 592.666654 
L 336.910727 592.039131 
L 340.069545 590.998647 
L 343.228364 589.696795 
L 346.387182 587.756126 
L 349.546 586.251653 
L 352.704818 585.636901 
L 355.863636 584.122179 
L 359.022455 582.854533 
L 362.181273 580.859168 
L 365.340091 578.864326 
L 368.498909 576.684831 
L 371.657727 573.495401 
L 374.816545 571.448014 
L 377.975364 570.658239 
L 381.134182 567.401502 
L 384.293 564.756258 
L 387.451818 561.968596 
L 390.610636 558.426535 
L 393.769455 555.932768 
L 396.928273 555.017685 
L 400.087091 553.416559 
L 403.245909 551.13414 
" style="fill:none;stroke:#1f77b4;stroke-linecap:square;stroke-width:3;"/>
   </g>
   <g id="line2d_132">
    <path clip-path="url(#pfafbbd7135)" d="M 87.364091 649.230131 
L 90.522909 643.76407 
L 93.681727 642.46436 
L 96.840545 642.061203 
L 99.999364 640.789628 
L 103.158182 640.249336 
L 106.317 639.329538 
L 109.475818 638.713105 
L 112.634636 637.922435 
L 115.793455 637.290177 
L 118.952273 636.745028 
L 122.111091 636.237123 
L 125.269909 635.68025 
L 128.428727 634.999135 
L 131.587545 634.659258 
L 134.746364 634.163612 
L 137.905182 633.795323 
L 141.064 633.081395 
L 144.222818 632.935762 
L 147.381636 632.596735 
L 150.540455 632.258819 
L 153.699273 631.941921 
L 156.858091 631.756793 
L 160.016909 631.387201 
L 163.175727 631.106085 
L 166.334545 631.037075 
L 169.493364 630.710252 
L 172.652182 630.540278 
L 175.811 630.340899 
L 178.969818 629.888182 
L 182.128636 629.647027 
L 185.287455 629.362502 
L 188.446273 628.798561 
L 191.605091 628.549687 
L 194.763909 628.193331 
L 197.922727 627.423912 
L 201.081545 626.861729 
L 204.240364 626.777193 
L 207.399182 626.409361 
L 210.558 625.784738 
L 213.716818 625.50916 
L 216.875636 625.009805 
L 220.034455 624.504346 
L 223.193273 624.118024 
L 226.352091 623.270026 
L 229.510909 622.456374 
L 232.669727 621.632271 
L 235.828545 620.665966 
L 238.987364 620.050183 
L 242.146182 619.341904 
L 245.305 618.330078 
L 248.463818 617.238953 
L 251.622636 616.560345 
L 254.781455 614.968971 
L 257.940273 613.977963 
L 261.099091 612.788165 
L 264.257909 611.89259 
L 267.416727 610.857983 
L 270.575545 610.427102 
L 273.734364 609.845538 
L 276.893182 609.167243 
L 280.052 609.055466 
L 283.210818 608.881818 
L 286.369636 608.575601 
L 289.528455 608.303478 
L 292.687273 607.995632 
L 295.846091 607.671901 
L 299.004909 607.437322 
L 302.163727 607.131561 
L 305.322545 606.776276 
L 308.481364 606.620107 
L 311.640182 606.292996 
L 314.799 606.036892 
L 317.957818 605.70067 
L 321.116636 605.116159 
L 324.275455 604.649308 
L 327.434273 604.221905 
L 330.593091 603.850765 
L 333.751909 603.484528 
L 336.910727 602.764759 
L 340.069545 601.873957 
L 343.228364 600.815678 
L 346.387182 599.909664 
L 349.546 599.446836 
L 352.704818 597.760837 
L 355.863636 593.191833 
L 359.022455 591.405941 
L 362.181273 590.668061 
L 365.340091 589.775024 
L 368.498909 589.111968 
L 371.657727 588.408423 
L 374.816545 587.536251 
L 377.975364 584.95394 
L 381.134182 581.139892 
L 384.293 577.853699 
L 387.451818 575.656758 
L 390.610636 572.603779 
L 393.769455 571.006804 
L 396.928273 570.307758 
L 400.087091 568.941369 
L 403.245909 567.387735 
" style="fill:none;stroke:#ff7f0e;stroke-linecap:square;stroke-width:3;"/>
   </g>
   <g id="patch_19">
    <path d="M 71.57 674.44 
L 71.57 539.74125 
" style="fill:none;stroke:#000000;stroke-linecap:square;stroke-linejoin:miter;stroke-width:0.8;"/>
   </g>
   <g id="patch_20">
    <path d="M 419.04 674.44 
L 419.04 539.74125 
" style="fill:none;stroke:#000000;stroke-linecap:square;stroke-linejoin:miter;stroke-width:0.8;"/>
   </g>
   <g id="patch_21">
    <path d="M 71.57 674.44 
L 419.04 674.44 
" style="fill:none;stroke:#000000;stroke-linecap:square;stroke-linejoin:miter;stroke-width:0.8;"/>
   </g>
   <g id="patch_22">
    <path d="M 71.57 539.74125 
L 419.04 539.74125 
" style="fill:none;stroke:#000000;stroke-linecap:square;stroke-linejoin:miter;stroke-width:0.8;"/>
   </g>
   <g id="text_38">
    <!-- 20 år investering -->
    <g transform="translate(194.085625 533.74125)scale(0.12 -0.12)">
     <use xlink:href="#DejaVuSans-50"/>
     <use x="63.623047" xlink:href="#DejaVuSans-48"/>
     <use x="127.246094" xlink:href="#DejaVuSans-32"/>
     <use x="159.033203" xlink:href="#DejaVuSans-229"/>
     <use x="220.3125" xlink:href="#DejaVuSans-114"/>
     <use x="261.425781" xlink:href="#DejaVuSans-32"/>
     <use x="293.212891" xlink:href="#DejaVuSans-105"/>
     <use x="320.996094" xlink:href="#DejaVuSans-110"/>
     <use x="384.375" xlink:href="#DejaVuSans-118"/>
     <use x="443.554688" xlink:href="#DejaVuSans-101"/>
     <use x="505.078125" xlink:href="#DejaVuSans-115"/>
     <use x="557.177734" xlink:href="#DejaVuSans-116"/>
     <use x="596.386719" xlink:href="#DejaVuSans-101"/>
     <use x="657.910156" xlink:href="#DejaVuSans-114"/>
     <use x="699.023438" xlink:href="#DejaVuSans-105"/>
     <use x="726.806641" xlink:href="#DejaVuSans-110"/>
     <use x="790.185547" xlink:href="#DejaVuSans-103"/>
    </g>
   </g>
  </g>
 </g>
 <defs>
  <clipPath id="pa0e505506f">
   <rect height="134.69875" width="347.47" x="71.57" y="29.05125"/>
  </clipPath>
  <clipPath id="pfd50b1b697">
   <rect height="134.69875" width="347.47" x="71.57" y="199.28125"/>
  </clipPath>
  <clipPath id="pd5f70955e5">
   <rect height="134.69875" width="347.47" x="71.57" y="369.51125"/>
  </clipPath>
  <clipPath id="pfafbbd7135">
   <rect height="134.69875" width="347.47" x="71.57" y="539.74125"/>
  </clipPath>
 </defs>
</svg>
