<?xml version="1.0" encoding="utf-8" standalone="no"?>
<!DOCTYPE svg PUBLIC "-//W3C//DTD SVG 1.1//EN"
  "http://www.w3.org/Graphics/SVG/1.1/DTD/svg11.dtd">
<svg xmlns:xlink="http://www.w3.org/1999/xlink" width="432pt" height="432pt" viewBox="0 0 432 432" xmlns="http://www.w3.org/2000/svg" version="1.1">
 <metadata>
  <rdf:RDF xmlns:dc="http://purl.org/dc/elements/1.1/" xmlns:cc="http://creativecommons.org/ns#" xmlns:rdf="http://www.w3.org/1999/02/22-rdf-syntax-ns#">
   <cc:Work>
    <dc:type rdf:resource="http://purl.org/dc/dcmitype/StillImage"/>
    <dc:date>2023-07-27T01:03:51.099922</dc:date>
    <dc:format>image/svg+xml</dc:format>
    <dc:creator>
     <cc:Agent>
      <dc:title>Matplotlib v3.7.1, https://matplotlib.org/</dc:title>
     </cc:Agent>
    </dc:creator>
   </cc:Work>
  </rdf:RDF>
 </metadata>
 <defs>
  <style type="text/css">*{stroke-linejoin: round; stroke-linecap: butt}</style>
 </defs>
 <g id="figure_1">
  <g id="patch_1">
   <path d="M 0 432
L 432 432
L 432 0
L 0 0
z
" style="fill: #ffffff"/>
  </g>
  <g id="axes_1">
   <g id="patch_2">
    <path d="M 63.92 213.44
L 415.510298 213.44
L 415.510298 59.88
L 63.92 59.88
z
" style="fill: #ffffff"/>
   </g>
   <g id="matplotlib.axis_1">
    <g id="xtick_1">
     <g id="line2d_1">
      <defs>
       <path id="md126707525" d="M 0 0
L 0 3.5
" style="stroke: #000000; stroke-width: 0.8"/>
      </defs>
      <g>
       <use xlink:href="#md126707525" x="63.92" y="213.44" style="stroke: #000000; stroke-width: 0.8"/>
      </g>
     </g>
    </g>
    <g id="xtick_2">
     <g id="line2d_2">
      <g>
       <use xlink:href="#md126707525" x="119.877334" y="213.44" style="stroke: #000000; stroke-width: 0.8"/>
      </g>
     </g>
    </g>
    <g id="xtick_3">
     <g id="line2d_3">
      <g>
       <use xlink:href="#md126707525" x="175.834668" y="213.44" style="stroke: #000000; stroke-width: 0.8"/>
      </g>
     </g>
    </g>
    <g id="xtick_4">
     <g id="line2d_4">
      <g>
       <use xlink:href="#md126707525" x="231.792002" y="213.44" style="stroke: #000000; stroke-width: 0.8"/>
      </g>
     </g>
    </g>
    <g id="xtick_5">
     <g id="line2d_5">
      <g>
       <use xlink:href="#md126707525" x="287.749336" y="213.44" style="stroke: #000000; stroke-width: 0.8"/>
      </g>
     </g>
    </g>
    <g id="xtick_6">
     <g id="line2d_6">
      <g>
       <use xlink:href="#md126707525" x="343.70667" y="213.44" style="stroke: #000000; stroke-width: 0.8"/>
      </g>
     </g>
    </g>
    <g id="xtick_7">
     <g id="line2d_7">
      <g>
       <use xlink:href="#md126707525" x="399.664003" y="213.44" style="stroke: #000000; stroke-width: 0.8"/>
      </g>
     </g>
    </g>
   </g>
   <g id="matplotlib.axis_2">
    <g id="ytick_1">
     <g id="line2d_8">
      <defs>
       <path id="me4803a9d91" d="M 0 0
L -3.5 0
" style="stroke: #000000; stroke-width: 0.8"/>
      </defs>
      <g>
       <use xlink:href="#me4803a9d91" x="63.92" y="213.44" style="stroke: #000000; stroke-width: 0.8"/>
      </g>
     </g>
     <g id="text_1">
      <!-- −1.0 -->
      <g transform="translate(27.780625 217.999063) scale(0.12 -0.12)">
       <defs>
        <path id="DejaVuSans-2212" d="M 678 2272
L 4684 2272
L 4684 1741
L 678 1741
L 678 2272
z
" transform="scale(0.015625)"/>
        <path id="DejaVuSans-31" d="M 794 531
L 1825 531
L 1825 4091
L 703 3866
L 703 4441
L 1819 4666
L 2450 4666
L 2450 531
L 3481 531
L 3481 0
L 794 0
L 794 531
z
" transform="scale(0.015625)"/>
        <path id="DejaVuSans-2e" d="M 684 794
L 1344 794
L 1344 0
L 684 0
L 684 794
z
" transform="scale(0.015625)"/>
        <path id="DejaVuSans-30" d="M 2034 4250
Q 1547 4250 1301 3770
Q 1056 3291 1056 2328
Q 1056 1369 1301 889
Q 1547 409 2034 409
Q 2525 409 2770 889
Q 3016 1369 3016 2328
Q 3016 3291 2770 3770
Q 2525 4250 2034 4250
z
M 2034 4750
Q 2819 4750 3233 4129
Q 3647 3509 3647 2328
Q 3647 1150 3233 529
Q 2819 -91 2034 -91
Q 1250 -91 836 529
Q 422 1150 422 2328
Q 422 3509 836 4129
Q 1250 4750 2034 4750
z
" transform="scale(0.015625)"/>
       </defs>
       <use xlink:href="#DejaVuSans-2212"/>
       <use xlink:href="#DejaVuSans-31" x="83.789062"/>
       <use xlink:href="#DejaVuSans-2e" x="147.412109"/>
       <use xlink:href="#DejaVuSans-30" x="179.199219"/>
      </g>
     </g>
    </g>
    <g id="ytick_2">
     <g id="line2d_9">
      <g>
       <use xlink:href="#me4803a9d91" x="63.92" y="175.05" style="stroke: #000000; stroke-width: 0.8"/>
      </g>
     </g>
     <g id="text_2">
      <!-- −0.5 -->
      <g transform="translate(27.780625 179.609063) scale(0.12 -0.12)">
       <defs>
        <path id="DejaVuSans-35" d="M 691 4666
L 3169 4666
L 3169 4134
L 1269 4134
L 1269 2991
Q 1406 3038 1543 3061
Q 1681 3084 1819 3084
Q 2600 3084 3056 2656
Q 3513 2228 3513 1497
Q 3513 744 3044 326
Q 2575 -91 1722 -91
Q 1428 -91 1123 -41
Q 819 9 494 109
L 494 744
Q 775 591 1075 516
Q 1375 441 1709 441
Q 2250 441 2565 725
Q 2881 1009 2881 1497
Q 2881 1984 2565 2268
Q 2250 2553 1709 2553
Q 1456 2553 1204 2497
Q 953 2441 691 2322
L 691 4666
z
" transform="scale(0.015625)"/>
       </defs>
       <use xlink:href="#DejaVuSans-2212"/>
       <use xlink:href="#DejaVuSans-30" x="83.789062"/>
       <use xlink:href="#DejaVuSans-2e" x="147.412109"/>
       <use xlink:href="#DejaVuSans-35" x="179.199219"/>
      </g>
     </g>
    </g>
    <g id="ytick_3">
     <g id="line2d_10">
      <g>
       <use xlink:href="#me4803a9d91" x="63.92" y="136.66" style="stroke: #000000; stroke-width: 0.8"/>
      </g>
     </g>
     <g id="text_3">
      <!-- 0.0 -->
      <g transform="translate(37.83625 141.219063) scale(0.12 -0.12)">
       <use xlink:href="#DejaVuSans-30"/>
       <use xlink:href="#DejaVuSans-2e" x="63.623047"/>
       <use xlink:href="#DejaVuSans-30" x="95.410156"/>
      </g>
     </g>
    </g>
    <g id="ytick_4">
     <g id="line2d_11">
      <g>
       <use xlink:href="#me4803a9d91" x="63.92" y="98.27" style="stroke: #000000; stroke-width: 0.8"/>
      </g>
     </g>
     <g id="text_4">
      <!-- 0.5 -->
      <g transform="translate(37.83625 102.829063) scale(0.12 -0.12)">
       <use xlink:href="#DejaVuSans-30"/>
       <use xlink:href="#DejaVuSans-2e" x="63.623047"/>
       <use xlink:href="#DejaVuSans-35" x="95.410156"/>
      </g>
     </g>
    </g>
    <g id="ytick_5">
     <g id="line2d_12">
      <g>
       <use xlink:href="#me4803a9d91" x="63.92" y="59.88" style="stroke: #000000; stroke-width: 0.8"/>
      </g>
     </g>
     <g id="text_5">
      <!-- 1.0 -->
      <g transform="translate(37.83625 64.439062) scale(0.12 -0.12)">
       <use xlink:href="#DejaVuSans-31"/>
       <use xlink:href="#DejaVuSans-2e" x="63.623047"/>
       <use xlink:href="#DejaVuSans-30" x="95.410156"/>
      </g>
     </g>
    </g>
    <g id="text_6">
     <!-- CI coefficient -->
     <g transform="translate(21.285 175.8925) rotate(-90) scale(0.12 -0.12)">
      <defs>
       <path id="DejaVuSans-43" d="M 4122 4306
L 4122 3641
Q 3803 3938 3442 4084
Q 3081 4231 2675 4231
Q 1875 4231 1450 3742
Q 1025 3253 1025 2328
Q 1025 1406 1450 917
Q 1875 428 2675 428
Q 3081 428 3442 575
Q 3803 722 4122 1019
L 4122 359
Q 3791 134 3420 21
Q 3050 -91 2638 -91
Q 1578 -91 968 557
Q 359 1206 359 2328
Q 359 3453 968 4101
Q 1578 4750 2638 4750
Q 3056 4750 3426 4639
Q 3797 4528 4122 4306
z
" transform="scale(0.015625)"/>
       <path id="DejaVuSans-49" d="M 628 4666
L 1259 4666
L 1259 0
L 628 0
L 628 4666
z
" transform="scale(0.015625)"/>
       <path id="DejaVuSans-20" transform="scale(0.015625)"/>
       <path id="DejaVuSans-63" d="M 3122 3366
L 3122 2828
Q 2878 2963 2633 3030
Q 2388 3097 2138 3097
Q 1578 3097 1268 2742
Q 959 2388 959 1747
Q 959 1106 1268 751
Q 1578 397 2138 397
Q 2388 397 2633 464
Q 2878 531 3122 666
L 3122 134
Q 2881 22 2623 -34
Q 2366 -91 2075 -91
Q 1284 -91 818 406
Q 353 903 353 1747
Q 353 2603 823 3093
Q 1294 3584 2113 3584
Q 2378 3584 2631 3529
Q 2884 3475 3122 3366
z
" transform="scale(0.015625)"/>
       <path id="DejaVuSans-6f" d="M 1959 3097
Q 1497 3097 1228 2736
Q 959 2375 959 1747
Q 959 1119 1226 758
Q 1494 397 1959 397
Q 2419 397 2687 759
Q 2956 1122 2956 1747
Q 2956 2369 2687 2733
Q 2419 3097 1959 3097
z
M 1959 3584
Q 2709 3584 3137 3096
Q 3566 2609 3566 1747
Q 3566 888 3137 398
Q 2709 -91 1959 -91
Q 1206 -91 779 398
Q 353 888 353 1747
Q 353 2609 779 3096
Q 1206 3584 1959 3584
z
" transform="scale(0.015625)"/>
       <path id="DejaVuSans-65" d="M 3597 1894
L 3597 1613
L 953 1613
Q 991 1019 1311 708
Q 1631 397 2203 397
Q 2534 397 2845 478
Q 3156 559 3463 722
L 3463 178
Q 3153 47 2828 -22
Q 2503 -91 2169 -91
Q 1331 -91 842 396
Q 353 884 353 1716
Q 353 2575 817 3079
Q 1281 3584 2069 3584
Q 2775 3584 3186 3129
Q 3597 2675 3597 1894
z
M 3022 2063
Q 3016 2534 2758 2815
Q 2500 3097 2075 3097
Q 1594 3097 1305 2825
Q 1016 2553 972 2059
L 3022 2063
z
" transform="scale(0.015625)"/>
       <path id="DejaVuSans-66" d="M 2375 4863
L 2375 4384
L 1825 4384
Q 1516 4384 1395 4259
Q 1275 4134 1275 3809
L 1275 3500
L 2222 3500
L 2222 3053
L 1275 3053
L 1275 0
L 697 0
L 697 3053
L 147 3053
L 147 3500
L 697 3500
L 697 3744
Q 697 4328 969 4595
Q 1241 4863 1831 4863
L 2375 4863
z
" transform="scale(0.015625)"/>
       <path id="DejaVuSans-69" d="M 603 3500
L 1178 3500
L 1178 0
L 603 0
L 603 3500
z
M 603 4863
L 1178 4863
L 1178 4134
L 603 4134
L 603 4863
z
" transform="scale(0.015625)"/>
       <path id="DejaVuSans-6e" d="M 3513 2113
L 3513 0
L 2938 0
L 2938 2094
Q 2938 2591 2744 2837
Q 2550 3084 2163 3084
Q 1697 3084 1428 2787
Q 1159 2491 1159 1978
L 1159 0
L 581 0
L 581 3500
L 1159 3500
L 1159 2956
Q 1366 3272 1645 3428
Q 1925 3584 2291 3584
Q 2894 3584 3203 3211
Q 3513 2838 3513 2113
z
" transform="scale(0.015625)"/>
       <path id="DejaVuSans-74" d="M 1172 4494
L 1172 3500
L 2356 3500
L 2356 3053
L 1172 3053
L 1172 1153
Q 1172 725 1289 603
Q 1406 481 1766 481
L 2356 481
L 2356 0
L 1766 0
Q 1100 0 847 248
Q 594 497 594 1153
L 594 3053
L 172 3053
L 172 3500
L 594 3500
L 594 4494
L 1172 4494
z
" transform="scale(0.015625)"/>
      </defs>
      <use xlink:href="#DejaVuSans-43"/>
      <use xlink:href="#DejaVuSans-49" x="69.824219"/>
      <use xlink:href="#DejaVuSans-20" x="99.316406"/>
      <use xlink:href="#DejaVuSans-63" x="131.103516"/>
      <use xlink:href="#DejaVuSans-6f" x="186.083984"/>
      <use xlink:href="#DejaVuSans-65" x="247.265625"/>
      <use xlink:href="#DejaVuSans-66" x="308.789062"/>
      <use xlink:href="#DejaVuSans-66" x="343.994141"/>
      <use xlink:href="#DejaVuSans-69" x="379.199219"/>
      <use xlink:href="#DejaVuSans-63" x="406.982422"/>
      <use xlink:href="#DejaVuSans-69" x="461.962891"/>
      <use xlink:href="#DejaVuSans-65" x="489.746094"/>
      <use xlink:href="#DejaVuSans-6e" x="551.269531"/>
      <use xlink:href="#DejaVuSans-74" x="614.648438"/>
     </g>
    </g>
   </g>
   <g id="line2d_13">
    <path d="M 63.92 136.66
L 415.510298 136.66
" clip-path="url(#p0b5d03d35e)" style="fill: none; stroke-dasharray: 5.55,2.4; stroke-dashoffset: 0; stroke: #808080; stroke-opacity: 0.4; stroke-width: 1.5"/>
   </g>
   <g id="line2d_14">
    <path d="M 63.92 134.627378
L 76.85476 122.196321
L 85.085971 114.591511
L 90.965408 109.41709
L 96.844844 104.515424
L 102.72428 99.946627
L 107.42783 96.566181
L 112.131379 93.455588
L 116.834928 90.633832
L 121.538477 88.124489
L 125.066139 86.457241
L 128.593801 84.981185
L 132.121463 83.701292
L 135.649124 82.622215
L 139.176786 81.750661
L 142.704448 81.091347
L 146.23211 80.644163
L 149.759772 80.409288
L 153.287434 80.390851
L 156.815096 80.588705
L 160.342757 81.000738
L 163.870419 81.625257
L 167.398081 82.460646
L 170.925743 83.504636
L 174.453405 84.750989
L 177.981067 86.195294
L 181.508729 87.829348
L 186.212278 90.301071
L 190.915827 93.084912
L 195.619376 96.159857
L 200.322925 99.509882
L 205.026474 103.10448
L 210.905911 107.911538
L 216.785347 113.01251
L 223.840671 119.440745
L 232.071882 127.23798
L 248.534304 143.141912
L 257.941402 151.986275
L 264.996726 158.312432
L 270.876162 163.301089
L 276.755599 167.97367
L 281.459148 171.449207
L 286.162697 174.665267
L 290.866246 177.60058
L 295.569795 180.224569
L 300.273344 182.536982
L 304.976893 184.501
L 308.504555 185.746857
L 312.032217 186.788332
L 315.559879 187.624874
L 319.087541 188.249581
L 322.615203 188.662726
L 326.142865 188.860539
L 329.670526 188.842456
L 333.198188 188.608721
L 336.72585 188.16176
L 340.253512 187.501026
L 343.781174 186.629306
L 347.308836 185.550858
L 350.836498 184.271252
L 354.364159 182.795638
L 359.067709 180.530658
L 363.771258 177.940267
L 368.474807 175.045258
L 373.178356 171.86362
L 377.881905 168.420179
L 383.761342 163.784404
L 389.640778 158.824358
L 396.696102 152.52554
L 404.927313 144.826873
L 415.510298 134.625793
L 415.510298 134.625793
" clip-path="url(#p0b5d03d35e)" style="fill: none; stroke: #1f77b4; stroke-width: 1.5; stroke-linecap: square"/>
   </g>
   <g id="line2d_15">
    <path d="M 63.92 213.386041
L 67.447662 213.233673
L 70.975324 212.776553
L 74.502986 212.017982
L 78.030647 210.959612
L 81.558309 209.606129
L 85.085971 207.963032
L 88.613633 206.037052
L 92.141295 203.836308
L 95.668957 201.364976
L 99.196619 198.640088
L 102.72428 195.665257
L 106.251942 192.458306
L 110.955491 187.839836
L 115.659041 182.859716
L 120.36259 177.552575
L 126.242026 170.51733
L 132.121463 163.108935
L 139.176786 153.846057
L 148.583885 141.093607
L 165.046307 118.689636
L 172.10163 109.448948
L 177.981067 102.078257
L 183.860503 95.084082
L 188.564052 89.817911
L 193.267601 84.882187
L 197.97115 80.311495
L 201.498812 77.142714
L 205.026474 74.211527
L 208.554136 71.528046
L 212.081798 69.100671
L 215.60946 66.943265
L 219.137122 65.06337
L 222.664783 63.467987
L 226.192445 62.163341
L 229.720107 61.15461
L 233.247769 60.445051
L 236.775431 60.039765
L 240.303093 59.938154
L 243.830755 60.141372
L 247.358416 60.64866
L 250.886078 61.457998
L 254.41374 62.565921
L 257.941402 63.968139
L 261.469064 65.659387
L 264.996726 67.63279
L 268.524388 69.880526
L 272.052049 72.393715
L 275.579711 75.16235
L 279.107373 78.175528
L 282.635035 81.421151
L 287.338584 86.087175
L 292.042133 91.105461
L 296.745682 96.450491
L 302.625119 103.526436
L 308.504555 110.968006
L 315.559879 120.262373
L 324.966977 133.032509
L 341.429399 155.413043
L 348.484723 164.621804
L 354.364159 171.95987
L 360.243596 178.906083
L 364.947145 184.137146
L 369.650694 189.026462
L 374.354243 193.551114
L 377.881905 196.68196
L 381.409567 199.570644
L 384.937229 202.214167
L 388.464891 204.596484
L 391.992553 206.708462
L 395.520214 208.541852
L 399.047876 210.088221
L 402.575538 211.344793
L 406.1032 212.304173
L 409.630862 212.962867
L 413.158524 213.31831
L 415.510298 213.38608
L 415.510298 213.38608
" clip-path="url(#p0b5d03d35e)" style="fill: none; stroke: #ff7f0e; stroke-width: 1.5; stroke-linecap: square"/>
   </g>
   <g id="line2d_16">
    <path d="M 63.92 134.622472
L 76.85476 147.055053
L 85.085971 154.660775
L 92.141295 160.840233
L 98.020731 165.678404
L 102.72428 169.304698
L 107.42783 172.685254
L 112.131379 175.798147
L 116.834928 178.618995
L 121.538477 181.13135
L 125.066139 182.80096
L 128.593801 184.278785
L 132.121463 185.557827
L 135.649124 186.632234
L 139.176786 187.500656
L 142.704448 188.1621
L 146.23211 188.610592
L 149.759772 188.842943
L 153.287434 188.860485
L 156.815096 188.663197
L 160.342757 188.251103
L 163.870419 187.625627
L 167.398081 186.787346
L 170.925743 185.745377
L 174.453405 184.500374
L 177.981067 183.055957
L 181.508729 181.413895
L 186.212278 178.946388
L 190.915827 176.164662
L 195.619376 173.087184
L 200.322925 169.740835
L 205.026474 166.145314
L 210.905911 161.340957
L 216.785347 156.240275
L 223.840671 149.810932
L 233.247769 140.899094
L 256.765515 118.348912
L 263.820838 111.969622
L 269.700275 106.923923
L 275.579711 102.183478
L 280.28326 98.646338
L 284.98681 95.363879
L 289.690359 92.361662
L 294.393908 89.659781
L 297.92157 87.832064
L 302.625119 85.691798
L 306.152781 84.312564
L 309.680443 83.133279
L 313.208104 82.158617
L 316.735766 81.392812
L 320.263428 80.839282
L 323.79109 80.49622
L 327.318752 80.372927
L 330.846414 80.462401
L 334.374076 80.767818
L 337.901737 81.286621
L 341.429399 82.015543
L 344.957061 82.956932
L 348.484723 84.101797
L 352.012385 85.447963
L 355.540047 86.98642
L 360.243596 89.335158
L 364.947145 92.005874
L 369.650694 94.969362
L 374.354243 98.22155
L 379.057792 101.729062
L 384.937229 106.433128
L 390.816665 111.452205
L 397.871989 117.805932
L 406.1032 125.546765
L 415.510298 134.625519
L 415.510298 134.625519
" clip-path="url(#p0b5d03d35e)" style="fill: none; stroke: #2ca02c; stroke-width: 1.5; stroke-linecap: square"/>
   </g>
   <g id="line2d_17">
    <path d="M 152.111546 213.44
L 152.111546 59.88
" clip-path="url(#p0b5d03d35e)" style="fill: none; stroke-dasharray: 5.55,2.4; stroke-dashoffset: 0; stroke: #000000; stroke-width: 1.5"/>
   </g>
   <g id="patch_3">
    <path d="M 63.92 213.44
L 63.92 59.88
" style="fill: none; stroke: #000000; stroke-width: 0.8; stroke-linejoin: miter; stroke-linecap: square"/>
   </g>
   <g id="patch_4">
    <path d="M 415.510298 213.44
L 415.510298 59.88
" style="fill: none; stroke: #000000; stroke-width: 0.8; stroke-linejoin: miter; stroke-linecap: square"/>
   </g>
   <g id="patch_5">
    <path d="M 63.92 213.44
L 415.510298 213.44
" style="fill: none; stroke: #000000; stroke-width: 0.8; stroke-linejoin: miter; stroke-linecap: square"/>
   </g>
   <g id="patch_6">
    <path d="M 63.92 59.88
L 415.510298 59.88
" style="fill: none; stroke: #000000; stroke-width: 0.8; stroke-linejoin: miter; stroke-linecap: square"/>
   </g>
   <g id="legend_1">
    <g id="line2d_18">
     <path d="M 73.847024 21.852125
L 85.847024 21.852125
L 97.847024 21.852125
" style="fill: none; stroke: #1f77b4; stroke-width: 1.5; stroke-linecap: square"/>
    </g>
    <g id="text_7">
     <!-- $\left|1100\right&gt;$ -->
     <g transform="translate(107.447024 26.052125) scale(0.12 -0.12)">
      <defs>
       <path id="DejaVuSans-7c" d="M 1344 4891
L 1344 -1509
L 813 -1509
L 813 4891
L 1344 4891
z
" transform="scale(0.015625)"/>
       <path id="DejaVuSans-27e9" d="M 1925 2006
L 1044 -844
L 513 -844
L 1394 2006
L 513 4856
L 1044 4856
L 1925 2006
z
" transform="scale(0.015625)"/>
      </defs>
      <use xlink:href="#DejaVuSans-7c" transform="translate(0 16.546875) scale(0.756406)"/>
      <use xlink:href="#DejaVuSans-31" transform="translate(25.48439 0.125)"/>
      <use xlink:href="#DejaVuSans-31" transform="translate(89.107437 0.125)"/>
      <use xlink:href="#DejaVuSans-30" transform="translate(152.730484 0.125)"/>
      <use xlink:href="#DejaVuSans-30" transform="translate(216.353531 0.125)"/>
      <use xlink:href="#DejaVuSans-27e9" transform="translate(279.976578 0.125)"/>
     </g>
    </g>
    <g id="line2d_19">
     <path d="M 73.847024 41.74775
L 85.847024 41.74775
L 97.847024 41.74775
" style="fill: none; stroke: #ff7f0e; stroke-width: 1.5; stroke-linecap: square"/>
    </g>
    <g id="text_8">
     <!-- $\frac{1}{\sqrt{2}}\left(\left|1010\right&gt; - \left|0101\right&gt;\right)$ -->
     <g transform="translate(107.447024 45.94775) scale(0.12 -0.12)">
      <defs>
       <path id="STIXSizeOneSym-Regular-221a" d="M 6970 9933
L 3373 -1888
L 3104 -1888
L 1626 2918
Q 1555 3149 1465 3251
Q 1376 3354 1229 3354
Q 1011 3354 794 3181
L 717 3309
L 1766 4115
L 1926 4115
L 3379 -602
L 3405 -602
L 6605 9933
L 6970 9933
z
" transform="scale(0.015625)"/>
       <path id="DejaVuSans-32" d="M 1228 531
L 3431 531
L 3431 0
L 469 0
L 469 531
Q 828 903 1448 1529
Q 2069 2156 2228 2338
Q 2531 2678 2651 2914
Q 2772 3150 2772 3378
Q 2772 3750 2511 3984
Q 2250 4219 1831 4219
Q 1534 4219 1204 4116
Q 875 4013 500 3803
L 500 4441
Q 881 4594 1212 4672
Q 1544 4750 1819 4750
Q 2544 4750 2975 4387
Q 3406 4025 3406 3419
Q 3406 3131 3298 2873
Q 3191 2616 2906 2266
Q 2828 2175 2409 1742
Q 1991 1309 1228 531
z
" transform="scale(0.015625)"/>
       <path id="DejaVuSans-28" d="M 1984 4856
Q 1566 4138 1362 3434
Q 1159 2731 1159 2009
Q 1159 1288 1364 580
Q 1569 -128 1984 -844
L 1484 -844
Q 1016 -109 783 600
Q 550 1309 550 2009
Q 550 2706 781 3412
Q 1013 4119 1484 4856
L 1984 4856
z
" transform="scale(0.015625)"/>
       <path id="DejaVuSans-29" d="M 513 4856
L 1013 4856
Q 1481 4119 1714 3412
Q 1947 2706 1947 2009
Q 1947 1309 1714 600
Q 1481 -109 1013 -844
L 513 -844
Q 928 -128 1133 580
Q 1338 1288 1338 2009
Q 1338 2731 1133 3434
Q 928 4138 513 4856
z
" transform="scale(0.015625)"/>
      </defs>
      <use xlink:href="#DejaVuSans-31" transform="translate(30 43.965625) scale(0.7)"/>
      <use xlink:href="#STIXSizeOneSym-Regular-221a" transform="translate(0 -53.510937) scale(0.399712)"/>
      <use xlink:href="#DejaVuSans-32" transform="translate(50.993658 -65.6125) scale(0.7)"/>
      <use xlink:href="#DejaVuSans-28" transform="translate(116.779791 0.16875)"/>
      <use xlink:href="#DejaVuSans-7c" transform="translate(155.793463 16.590625) scale(0.756406)"/>
      <use xlink:href="#DejaVuSans-31" transform="translate(181.277853 0.16875)"/>
      <use xlink:href="#DejaVuSans-30" transform="translate(244.9009 0.16875)"/>
      <use xlink:href="#DejaVuSans-31" transform="translate(308.523947 0.16875)"/>
      <use xlink:href="#DejaVuSans-30" transform="translate(372.146994 0.16875)"/>
      <use xlink:href="#DejaVuSans-27e9" transform="translate(435.770041 0.16875)"/>
      <use xlink:href="#DejaVuSans-2212" transform="translate(494.266135 0.16875)"/>
      <use xlink:href="#DejaVuSans-7c" transform="translate(597.537619 16.590625) scale(0.756406)"/>
      <use xlink:href="#DejaVuSans-30" transform="translate(623.022009 0.16875)"/>
      <use xlink:href="#DejaVuSans-31" transform="translate(686.645056 0.16875)"/>
      <use xlink:href="#DejaVuSans-30" transform="translate(750.268103 0.16875)"/>
      <use xlink:href="#DejaVuSans-31" transform="translate(813.89115 0.16875)"/>
      <use xlink:href="#DejaVuSans-27e9" transform="translate(877.514197 0.16875)"/>
      <use xlink:href="#DejaVuSans-29" transform="translate(916.527869 0.16875)"/>
      <path d="M 0 18.965625
L 0 25.215625
L 104.279791 25.215625
L 104.279791 18.965625
L 0 18.965625
z
"/>
      <path d="M 42.243658 3.965625
L 42.243658 8.340625
L 104.279791 8.340625
L 104.279791 3.965625
L 42.243658 3.965625
z
"/>
     </g>
    </g>
    <g id="line2d_20">
     <path d="M 246.167024 21.852125
L 258.167024 21.852125
L 270.167024 21.852125
" style="fill: none; stroke: #2ca02c; stroke-width: 1.5; stroke-linecap: square"/>
    </g>
    <g id="text_9">
     <!-- $\left|0011\right&gt;$ -->
     <g transform="translate(279.767024 26.052125) scale(0.12 -0.12)">
      <use xlink:href="#DejaVuSans-7c" transform="translate(0 16.546875) scale(0.756406)"/>
      <use xlink:href="#DejaVuSans-30" transform="translate(25.48439 0.125)"/>
      <use xlink:href="#DejaVuSans-30" transform="translate(89.107437 0.125)"/>
      <use xlink:href="#DejaVuSans-31" transform="translate(152.730484 0.125)"/>
      <use xlink:href="#DejaVuSans-31" transform="translate(216.353531 0.125)"/>
      <use xlink:href="#DejaVuSans-27e9" transform="translate(279.976578 0.125)"/>
     </g>
    </g>
    <g id="line2d_21">
     <path d="M 246.167024 39.465875
L 258.167024 39.465875
L 270.167024 39.465875
" style="fill: none; stroke-dasharray: 5.55,2.4; stroke-dashoffset: 0; stroke: #000000; stroke-width: 1.5"/>
    </g>
    <g id="text_10">
     <!-- Hartree-Fock orbitals -->
     <g transform="translate(279.767024 43.665875) scale(0.12 -0.12)">
      <defs>
       <path id="DejaVuSans-48" d="M 628 4666
L 1259 4666
L 1259 2753
L 3553 2753
L 3553 4666
L 4184 4666
L 4184 0
L 3553 0
L 3553 2222
L 1259 2222
L 1259 0
L 628 0
L 628 4666
z
" transform="scale(0.015625)"/>
       <path id="DejaVuSans-61" d="M 2194 1759
Q 1497 1759 1228 1600
Q 959 1441 959 1056
Q 959 750 1161 570
Q 1363 391 1709 391
Q 2188 391 2477 730
Q 2766 1069 2766 1631
L 2766 1759
L 2194 1759
z
M 3341 1997
L 3341 0
L 2766 0
L 2766 531
Q 2569 213 2275 61
Q 1981 -91 1556 -91
Q 1019 -91 701 211
Q 384 513 384 1019
Q 384 1609 779 1909
Q 1175 2209 1959 2209
L 2766 2209
L 2766 2266
Q 2766 2663 2505 2880
Q 2244 3097 1772 3097
Q 1472 3097 1187 3025
Q 903 2953 641 2809
L 641 3341
Q 956 3463 1253 3523
Q 1550 3584 1831 3584
Q 2591 3584 2966 3190
Q 3341 2797 3341 1997
z
" transform="scale(0.015625)"/>
       <path id="DejaVuSans-72" d="M 2631 2963
Q 2534 3019 2420 3045
Q 2306 3072 2169 3072
Q 1681 3072 1420 2755
Q 1159 2438 1159 1844
L 1159 0
L 581 0
L 581 3500
L 1159 3500
L 1159 2956
Q 1341 3275 1631 3429
Q 1922 3584 2338 3584
Q 2397 3584 2469 3576
Q 2541 3569 2628 3553
L 2631 2963
z
" transform="scale(0.015625)"/>
       <path id="DejaVuSans-2d" d="M 313 2009
L 1997 2009
L 1997 1497
L 313 1497
L 313 2009
z
" transform="scale(0.015625)"/>
       <path id="DejaVuSans-46" d="M 628 4666
L 3309 4666
L 3309 4134
L 1259 4134
L 1259 2759
L 3109 2759
L 3109 2228
L 1259 2228
L 1259 0
L 628 0
L 628 4666
z
" transform="scale(0.015625)"/>
       <path id="DejaVuSans-6b" d="M 581 4863
L 1159 4863
L 1159 1991
L 2875 3500
L 3609 3500
L 1753 1863
L 3688 0
L 2938 0
L 1159 1709
L 1159 0
L 581 0
L 581 4863
z
" transform="scale(0.015625)"/>
       <path id="DejaVuSans-62" d="M 3116 1747
Q 3116 2381 2855 2742
Q 2594 3103 2138 3103
Q 1681 3103 1420 2742
Q 1159 2381 1159 1747
Q 1159 1113 1420 752
Q 1681 391 2138 391
Q 2594 391 2855 752
Q 3116 1113 3116 1747
z
M 1159 2969
Q 1341 3281 1617 3432
Q 1894 3584 2278 3584
Q 2916 3584 3314 3078
Q 3713 2572 3713 1747
Q 3713 922 3314 415
Q 2916 -91 2278 -91
Q 1894 -91 1617 61
Q 1341 213 1159 525
L 1159 0
L 581 0
L 581 4863
L 1159 4863
L 1159 2969
z
" transform="scale(0.015625)"/>
       <path id="DejaVuSans-6c" d="M 603 4863
L 1178 4863
L 1178 0
L 603 0
L 603 4863
z
" transform="scale(0.015625)"/>
       <path id="DejaVuSans-73" d="M 2834 3397
L 2834 2853
Q 2591 2978 2328 3040
Q 2066 3103 1784 3103
Q 1356 3103 1142 2972
Q 928 2841 928 2578
Q 928 2378 1081 2264
Q 1234 2150 1697 2047
L 1894 2003
Q 2506 1872 2764 1633
Q 3022 1394 3022 966
Q 3022 478 2636 193
Q 2250 -91 1575 -91
Q 1294 -91 989 -36
Q 684 19 347 128
L 347 722
Q 666 556 975 473
Q 1284 391 1588 391
Q 1994 391 2212 530
Q 2431 669 2431 922
Q 2431 1156 2273 1281
Q 2116 1406 1581 1522
L 1381 1569
Q 847 1681 609 1914
Q 372 2147 372 2553
Q 372 3047 722 3315
Q 1072 3584 1716 3584
Q 2034 3584 2315 3537
Q 2597 3491 2834 3397
z
" transform="scale(0.015625)"/>
      </defs>
      <use xlink:href="#DejaVuSans-48"/>
      <use xlink:href="#DejaVuSans-61" x="75.195312"/>
      <use xlink:href="#DejaVuSans-72" x="136.474609"/>
      <use xlink:href="#DejaVuSans-74" x="177.587891"/>
      <use xlink:href="#DejaVuSans-72" x="216.796875"/>
      <use xlink:href="#DejaVuSans-65" x="255.660156"/>
      <use xlink:href="#DejaVuSans-65" x="317.183594"/>
      <use xlink:href="#DejaVuSans-2d" x="378.707031"/>
      <use xlink:href="#DejaVuSans-46" x="414.791016"/>
      <use xlink:href="#DejaVuSans-6f" x="468.685547"/>
      <use xlink:href="#DejaVuSans-63" x="529.867188"/>
      <use xlink:href="#DejaVuSans-6b" x="584.847656"/>
      <use xlink:href="#DejaVuSans-20" x="642.757812"/>
      <use xlink:href="#DejaVuSans-6f" x="674.544922"/>
      <use xlink:href="#DejaVuSans-72" x="735.726562"/>
      <use xlink:href="#DejaVuSans-62" x="776.839844"/>
      <use xlink:href="#DejaVuSans-69" x="840.316406"/>
      <use xlink:href="#DejaVuSans-74" x="868.099609"/>
      <use xlink:href="#DejaVuSans-61" x="907.308594"/>
      <use xlink:href="#DejaVuSans-6c" x="968.587891"/>
      <use xlink:href="#DejaVuSans-73" x="996.371094"/>
     </g>
    </g>
   </g>
  </g>
  <g id="axes_2">
   <g id="patch_7">
    <path d="M 63.92 386.44
L 415.510298 386.44
L 415.510298 232.88
L 63.92 232.88
z
" style="fill: #ffffff"/>
   </g>
   <g id="matplotlib.axis_3">
    <g id="xtick_8">
     <g id="line2d_22">
      <g>
       <use xlink:href="#md126707525" x="63.92" y="386.44" style="stroke: #000000; stroke-width: 0.8"/>
      </g>
     </g>
     <g id="text_11">
      <!-- 0.0 -->
      <g transform="translate(54.378125 402.558125) scale(0.12 -0.12)">
       <use xlink:href="#DejaVuSans-30"/>
       <use xlink:href="#DejaVuSans-2e" x="63.623047"/>
       <use xlink:href="#DejaVuSans-30" x="95.410156"/>
      </g>
     </g>
    </g>
    <g id="xtick_9">
     <g id="line2d_23">
      <g>
       <use xlink:href="#md126707525" x="119.877334" y="386.44" style="stroke: #000000; stroke-width: 0.8"/>
      </g>
     </g>
     <g id="text_12">
      <!-- 0.5 -->
      <g transform="translate(110.335459 402.558125) scale(0.12 -0.12)">
       <use xlink:href="#DejaVuSans-30"/>
       <use xlink:href="#DejaVuSans-2e" x="63.623047"/>
       <use xlink:href="#DejaVuSans-35" x="95.410156"/>
      </g>
     </g>
    </g>
    <g id="xtick_10">
     <g id="line2d_24">
      <g>
       <use xlink:href="#md126707525" x="175.834668" y="386.44" style="stroke: #000000; stroke-width: 0.8"/>
      </g>
     </g>
     <g id="text_13">
      <!-- 1.0 -->
      <g transform="translate(166.292793 402.558125) scale(0.12 -0.12)">
       <use xlink:href="#DejaVuSans-31"/>
       <use xlink:href="#DejaVuSans-2e" x="63.623047"/>
       <use xlink:href="#DejaVuSans-30" x="95.410156"/>
      </g>
     </g>
    </g>
    <g id="xtick_11">
     <g id="line2d_25">
      <g>
       <use xlink:href="#md126707525" x="231.792002" y="386.44" style="stroke: #000000; stroke-width: 0.8"/>
      </g>
     </g>
     <g id="text_14">
      <!-- 1.5 -->
      <g transform="translate(222.250127 402.558125) scale(0.12 -0.12)">
       <use xlink:href="#DejaVuSans-31"/>
       <use xlink:href="#DejaVuSans-2e" x="63.623047"/>
       <use xlink:href="#DejaVuSans-35" x="95.410156"/>
      </g>
     </g>
    </g>
    <g id="xtick_12">
     <g id="line2d_26">
      <g>
       <use xlink:href="#md126707525" x="287.749336" y="386.44" style="stroke: #000000; stroke-width: 0.8"/>
      </g>
     </g>
     <g id="text_15">
      <!-- 2.0 -->
      <g transform="translate(278.207461 402.558125) scale(0.12 -0.12)">
       <use xlink:href="#DejaVuSans-32"/>
       <use xlink:href="#DejaVuSans-2e" x="63.623047"/>
       <use xlink:href="#DejaVuSans-30" x="95.410156"/>
      </g>
     </g>
    </g>
    <g id="xtick_13">
     <g id="line2d_27">
      <g>
       <use xlink:href="#md126707525" x="343.70667" y="386.44" style="stroke: #000000; stroke-width: 0.8"/>
      </g>
     </g>
     <g id="text_16">
      <!-- 2.5 -->
      <g transform="translate(334.164795 402.558125) scale(0.12 -0.12)">
       <use xlink:href="#DejaVuSans-32"/>
       <use xlink:href="#DejaVuSans-2e" x="63.623047"/>
       <use xlink:href="#DejaVuSans-35" x="95.410156"/>
      </g>
     </g>
    </g>
    <g id="xtick_14">
     <g id="line2d_28">
      <g>
       <use xlink:href="#md126707525" x="399.664003" y="386.44" style="stroke: #000000; stroke-width: 0.8"/>
      </g>
     </g>
     <g id="text_17">
      <!-- 3.0 -->
      <g transform="translate(390.122128 402.558125) scale(0.12 -0.12)">
       <defs>
        <path id="DejaVuSans-33" d="M 2597 2516
Q 3050 2419 3304 2112
Q 3559 1806 3559 1356
Q 3559 666 3084 287
Q 2609 -91 1734 -91
Q 1441 -91 1130 -33
Q 819 25 488 141
L 488 750
Q 750 597 1062 519
Q 1375 441 1716 441
Q 2309 441 2620 675
Q 2931 909 2931 1356
Q 2931 1769 2642 2001
Q 2353 2234 1838 2234
L 1294 2234
L 1294 2753
L 1863 2753
Q 2328 2753 2575 2939
Q 2822 3125 2822 3475
Q 2822 3834 2567 4026
Q 2313 4219 1838 4219
Q 1578 4219 1281 4162
Q 984 4106 628 3988
L 628 4550
Q 988 4650 1302 4700
Q 1616 4750 1894 4750
Q 2613 4750 3031 4423
Q 3450 4097 3450 3541
Q 3450 3153 3228 2886
Q 3006 2619 2597 2516
z
" transform="scale(0.015625)"/>
       </defs>
       <use xlink:href="#DejaVuSans-33"/>
       <use xlink:href="#DejaVuSans-2e" x="63.623047"/>
       <use xlink:href="#DejaVuSans-30" x="95.410156"/>
      </g>
     </g>
    </g>
    <g id="text_18">
     <!-- $\kappa$ -->
     <g transform="translate(236.175149 418.171875) scale(0.12 -0.12)">
      <defs>
       <path id="DejaVuSans-Oblique-3ba" d="M 938 3500
L 1531 3500
L 1247 2047
L 3041 3500
L 3741 3500
L 2106 2181
L 3275 0
L 2572 0
L 1628 1806
L 1122 1403
L 850 0
L 256 0
L 938 3500
z
" transform="scale(0.015625)"/>
      </defs>
      <use xlink:href="#DejaVuSans-Oblique-3ba" transform="translate(0 0.3125)"/>
     </g>
    </g>
   </g>
   <g id="matplotlib.axis_4">
    <g id="ytick_6">
     <g id="line2d_29">
      <g>
       <use xlink:href="#me4803a9d91" x="63.92" y="386.44" style="stroke: #000000; stroke-width: 0.8"/>
      </g>
     </g>
     <g id="text_19">
      <!-- 0.0 -->
      <g transform="translate(37.83625 390.999062) scale(0.12 -0.12)">
       <use xlink:href="#DejaVuSans-30"/>
       <use xlink:href="#DejaVuSans-2e" x="63.623047"/>
       <use xlink:href="#DejaVuSans-30" x="95.410156"/>
      </g>
     </g>
    </g>
    <g id="ytick_7">
     <g id="line2d_30">
      <g>
       <use xlink:href="#me4803a9d91" x="63.92" y="358.52" style="stroke: #000000; stroke-width: 0.8"/>
      </g>
     </g>
     <g id="text_20">
      <!-- 0.2 -->
      <g transform="translate(37.83625 363.079062) scale(0.12 -0.12)">
       <use xlink:href="#DejaVuSans-30"/>
       <use xlink:href="#DejaVuSans-2e" x="63.623047"/>
       <use xlink:href="#DejaVuSans-32" x="95.410156"/>
      </g>
     </g>
    </g>
    <g id="ytick_8">
     <g id="line2d_31">
      <g>
       <use xlink:href="#me4803a9d91" x="63.92" y="330.6" style="stroke: #000000; stroke-width: 0.8"/>
      </g>
     </g>
     <g id="text_21">
      <!-- 0.4 -->
      <g transform="translate(37.83625 335.159063) scale(0.12 -0.12)">
       <defs>
        <path id="DejaVuSans-34" d="M 2419 4116
L 825 1625
L 2419 1625
L 2419 4116
z
M 2253 4666
L 3047 4666
L 3047 1625
L 3713 1625
L 3713 1100
L 3047 1100
L 3047 0
L 2419 0
L 2419 1100
L 313 1100
L 313 1709
L 2253 4666
z
" transform="scale(0.015625)"/>
       </defs>
       <use xlink:href="#DejaVuSans-30"/>
       <use xlink:href="#DejaVuSans-2e" x="63.623047"/>
       <use xlink:href="#DejaVuSans-34" x="95.410156"/>
      </g>
     </g>
    </g>
    <g id="ytick_9">
     <g id="line2d_32">
      <g>
       <use xlink:href="#me4803a9d91" x="63.92" y="302.68" style="stroke: #000000; stroke-width: 0.8"/>
      </g>
     </g>
     <g id="text_22">
      <!-- 0.6 -->
      <g transform="translate(37.83625 307.239062) scale(0.12 -0.12)">
       <defs>
        <path id="DejaVuSans-36" d="M 2113 2584
Q 1688 2584 1439 2293
Q 1191 2003 1191 1497
Q 1191 994 1439 701
Q 1688 409 2113 409
Q 2538 409 2786 701
Q 3034 994 3034 1497
Q 3034 2003 2786 2293
Q 2538 2584 2113 2584
z
M 3366 4563
L 3366 3988
Q 3128 4100 2886 4159
Q 2644 4219 2406 4219
Q 1781 4219 1451 3797
Q 1122 3375 1075 2522
Q 1259 2794 1537 2939
Q 1816 3084 2150 3084
Q 2853 3084 3261 2657
Q 3669 2231 3669 1497
Q 3669 778 3244 343
Q 2819 -91 2113 -91
Q 1303 -91 875 529
Q 447 1150 447 2328
Q 447 3434 972 4092
Q 1497 4750 2381 4750
Q 2619 4750 2861 4703
Q 3103 4656 3366 4563
z
" transform="scale(0.015625)"/>
       </defs>
       <use xlink:href="#DejaVuSans-30"/>
       <use xlink:href="#DejaVuSans-2e" x="63.623047"/>
       <use xlink:href="#DejaVuSans-36" x="95.410156"/>
      </g>
     </g>
    </g>
    <g id="ytick_10">
     <g id="line2d_33">
      <g>
       <use xlink:href="#me4803a9d91" x="63.92" y="274.76" style="stroke: #000000; stroke-width: 0.8"/>
      </g>
     </g>
     <g id="text_23">
      <!-- 0.8 -->
      <g transform="translate(37.83625 279.319062) scale(0.12 -0.12)">
       <defs>
        <path id="DejaVuSans-38" d="M 2034 2216
Q 1584 2216 1326 1975
Q 1069 1734 1069 1313
Q 1069 891 1326 650
Q 1584 409 2034 409
Q 2484 409 2743 651
Q 3003 894 3003 1313
Q 3003 1734 2745 1975
Q 2488 2216 2034 2216
z
M 1403 2484
Q 997 2584 770 2862
Q 544 3141 544 3541
Q 544 4100 942 4425
Q 1341 4750 2034 4750
Q 2731 4750 3128 4425
Q 3525 4100 3525 3541
Q 3525 3141 3298 2862
Q 3072 2584 2669 2484
Q 3125 2378 3379 2068
Q 3634 1759 3634 1313
Q 3634 634 3220 271
Q 2806 -91 2034 -91
Q 1263 -91 848 271
Q 434 634 434 1313
Q 434 1759 690 2068
Q 947 2378 1403 2484
z
M 1172 3481
Q 1172 3119 1398 2916
Q 1625 2713 2034 2713
Q 2441 2713 2670 2916
Q 2900 3119 2900 3481
Q 2900 3844 2670 4047
Q 2441 4250 2034 4250
Q 1625 4250 1398 4047
Q 1172 3844 1172 3481
z
" transform="scale(0.015625)"/>
       </defs>
       <use xlink:href="#DejaVuSans-30"/>
       <use xlink:href="#DejaVuSans-2e" x="63.623047"/>
       <use xlink:href="#DejaVuSans-38" x="95.410156"/>
      </g>
     </g>
    </g>
    <g id="ytick_11">
     <g id="line2d_34">
      <g>
       <use xlink:href="#me4803a9d91" x="63.92" y="246.84" style="stroke: #000000; stroke-width: 0.8"/>
      </g>
     </g>
     <g id="text_24">
      <!-- 1.0 -->
      <g transform="translate(37.83625 251.399063) scale(0.12 -0.12)">
       <use xlink:href="#DejaVuSans-31"/>
       <use xlink:href="#DejaVuSans-2e" x="63.623047"/>
       <use xlink:href="#DejaVuSans-30" x="95.410156"/>
      </g>
     </g>
    </g>
    <g id="text_25">
     <!-- Entropy -->
     <g transform="translate(31.340625 332.969063) rotate(-90) scale(0.12 -0.12)">
      <defs>
       <path id="DejaVuSans-45" d="M 628 4666
L 3578 4666
L 3578 4134
L 1259 4134
L 1259 2753
L 3481 2753
L 3481 2222
L 1259 2222
L 1259 531
L 3634 531
L 3634 0
L 628 0
L 628 4666
z
" transform="scale(0.015625)"/>
       <path id="DejaVuSans-70" d="M 1159 525
L 1159 -1331
L 581 -1331
L 581 3500
L 1159 3500
L 1159 2969
Q 1341 3281 1617 3432
Q 1894 3584 2278 3584
Q 2916 3584 3314 3078
Q 3713 2572 3713 1747
Q 3713 922 3314 415
Q 2916 -91 2278 -91
Q 1894 -91 1617 61
Q 1341 213 1159 525
z
M 3116 1747
Q 3116 2381 2855 2742
Q 2594 3103 2138 3103
Q 1681 3103 1420 2742
Q 1159 2381 1159 1747
Q 1159 1113 1420 752
Q 1681 391 2138 391
Q 2594 391 2855 752
Q 3116 1113 3116 1747
z
" transform="scale(0.015625)"/>
       <path id="DejaVuSans-79" d="M 2059 -325
Q 1816 -950 1584 -1140
Q 1353 -1331 966 -1331
L 506 -1331
L 506 -850
L 844 -850
Q 1081 -850 1212 -737
Q 1344 -625 1503 -206
L 1606 56
L 191 3500
L 800 3500
L 1894 763
L 2988 3500
L 3597 3500
L 2059 -325
z
" transform="scale(0.015625)"/>
      </defs>
      <use xlink:href="#DejaVuSans-45"/>
      <use xlink:href="#DejaVuSans-6e" x="63.183594"/>
      <use xlink:href="#DejaVuSans-74" x="126.5625"/>
      <use xlink:href="#DejaVuSans-72" x="165.771484"/>
      <use xlink:href="#DejaVuSans-6f" x="204.634766"/>
      <use xlink:href="#DejaVuSans-70" x="265.816406"/>
      <use xlink:href="#DejaVuSans-79" x="329.292969"/>
     </g>
    </g>
   </g>
   <g id="line2d_35">
    <path d="M 63.92 384.819807
L 65.095887 384.493367
L 66.271775 383.445073
L 67.447662 381.604852
L 68.623549 379.204825
L 69.799436 376.304923
L 70.975324 373.018863
L 73.327098 365.485569
L 75.678873 356.929973
L 79.206535 342.793352
L 85.085971 317.602221
L 89.78952 297.617733
L 93.317182 283.500679
L 95.668957 274.753297
L 98.020731 266.656647
L 100.372506 259.303077
L 102.72428 252.756123
L 105.076055 247.10609
L 107.42783 242.394444
L 108.603717 240.40297
L 109.779604 238.65943
L 110.955491 237.166385
L 112.131379 235.925549
L 113.307266 234.937651
L 114.483153 234.202683
L 115.659041 233.721027
L 116.834928 233.488707
L 118.010815 233.503921
L 119.186702 233.763005
L 120.36259 234.261391
L 121.538477 234.993502
L 122.714364 235.952758
L 123.890252 237.131707
L 125.066139 238.52195
L 126.242026 240.113982
L 128.593801 243.860864
L 130.945575 248.275936
L 133.29735 253.24531
L 136.825012 261.439981
L 143.880335 278.332823
L 146.23211 283.256599
L 147.407997 285.413297
L 148.583885 287.271435
L 149.759772 288.764238
L 150.935659 289.770501
L 152.111546 290.027769
L 153.287434 289.338926
L 154.463321 288.073989
L 155.639208 286.383492
L 156.815096 284.36876
L 159.16687 279.63213
L 161.518645 274.276386
L 170.925743 251.950376
L 173.277518 247.106205
L 175.629292 242.854708
L 177.981067 239.2917
L 179.156954 237.79982
L 180.332841 236.514549
L 181.508729 235.444399
L 182.684616 234.598631
L 183.860503 233.983211
L 185.03639 233.604193
L 186.212278 233.466668
L 187.388165 233.574937
L 188.564052 233.932075
L 189.739939 234.540344
L 190.915827 235.401222
L 192.091714 236.515275
L 193.267601 237.882099
L 194.443489 239.500979
L 195.619376 241.368543
L 196.795263 243.482423
L 199.147038 248.432583
L 201.498812 254.309514
L 203.850587 261.051849
L 206.202361 268.605755
L 208.554136 276.870124
L 212.081798 290.424417
L 215.60946 304.996791
L 227.368333 354.666333
L 229.720107 363.430196
L 232.071882 371.25231
L 233.247769 374.717771
L 234.423656 377.810054
L 235.599544 380.460039
L 236.775431 382.606591
L 237.951318 384.07324
L 239.127205 384.739668
L 240.303093 384.739718
L 241.47898 384.072957
L 242.654867 382.605985
L 243.830755 380.460217
L 245.006642 377.799645
L 246.182529 374.708914
L 248.534304 367.475291
L 250.886078 359.144087
L 253.237853 350.014046
L 256.765515 335.348988
L 267.3485 290.420702
L 270.876162 276.875267
L 273.227937 268.603625
L 275.579711 261.052361
L 277.931486 254.303485
L 280.28326 248.426316
L 282.635035 243.476208
L 283.810922 241.362525
L 284.98681 239.495157
L 286.162697 237.877226
L 287.338584 236.510822
L 288.514471 235.39724
L 289.690359 234.536838
L 290.866246 233.928793
L 292.042133 233.573723
L 293.218021 233.46497
L 294.393908 233.601513
L 295.569795 233.982925
L 296.745682 234.59873
L 297.92157 235.445249
L 299.097457 236.515667
L 300.273344 237.802225
L 301.449232 239.292794
L 303.801006 242.856975
L 306.152781 247.115534
L 308.504555 251.957501
L 312.032217 260.027821
L 320.263428 279.629295
L 322.615203 284.36948
L 323.79109 286.385884
L 324.966977 288.070917
L 326.142865 289.33829
L 327.318752 290.026738
L 328.494639 289.771557
L 329.670526 288.76879
L 330.846414 287.273032
L 332.022301 285.413558
L 334.374076 280.88855
L 336.72585 275.65624
L 341.429399 264.289695
L 344.957061 255.890347
L 347.308836 250.692508
L 349.66061 245.986289
L 352.012385 241.893836
L 354.364159 238.520283
L 355.540047 237.131567
L 356.715934 235.952575
L 357.891821 234.993549
L 359.067709 234.261635
L 360.243596 233.764846
L 361.419483 233.504399
L 362.59537 233.489295
L 363.771258 233.721582
L 364.947145 234.204015
L 366.123032 234.938488
L 367.29892 235.926127
L 368.474807 237.16676
L 369.650694 238.656772
L 370.826581 240.399976
L 372.002469 242.391278
L 373.178356 244.627163
L 375.530131 249.813999
L 377.881905 255.91506
L 380.23368 262.871501
L 382.585454 270.598654
L 384.937229 279.038262
L 388.464891 292.785258
L 391.992553 307.486747
L 402.575538 352.35269
L 404.927313 361.311005
L 407.279087 369.398896
L 409.630862 376.303311
L 410.806749 379.187877
L 411.982636 381.6041
L 413.158524 383.44437
L 414.334411 384.493318
L 415.510298 384.820831
L 415.510298 384.820831
" clip-path="url(#p991493ac04)" style="fill: none; stroke: #1f77b4; stroke-width: 1.5; stroke-linecap: square"/>
   </g>
   <g id="patch_8">
    <path d="M 63.92 386.44
L 63.92 232.88
" style="fill: none; stroke: #000000; stroke-width: 0.8; stroke-linejoin: miter; stroke-linecap: square"/>
   </g>
   <g id="patch_9">
    <path d="M 415.510298 386.44
L 415.510298 232.88
" style="fill: none; stroke: #000000; stroke-width: 0.8; stroke-linejoin: miter; stroke-linecap: square"/>
   </g>
   <g id="patch_10">
    <path d="M 63.92 386.44
L 415.510298 386.44
" style="fill: none; stroke: #000000; stroke-width: 0.8; stroke-linejoin: miter; stroke-linecap: square"/>
   </g>
   <g id="patch_11">
    <path d="M 63.92 232.88
L 415.510298 232.88
" style="fill: none; stroke: #000000; stroke-width: 0.8; stroke-linejoin: miter; stroke-linecap: square"/>
   </g>
  </g>
 </g>
 <defs>
  <clipPath id="p0b5d03d35e">
   <rect x="63.92" y="59.88" width="351.590298" height="153.56"/>
  </clipPath>
  <clipPath id="p991493ac04">
   <rect x="63.92" y="232.88" width="351.590298" height="153.56"/>
  </clipPath>
 </defs>
</svg>
