<?xml version="1.0" encoding="utf-8" standalone="no"?>
<!DOCTYPE svg PUBLIC "-//W3C//DTD SVG 1.1//EN"
  "http://www.w3.org/Graphics/SVG/1.1/DTD/svg11.dtd">
<svg xmlns:xlink="http://www.w3.org/1999/xlink" width="432pt" height="360pt" viewBox="0 0 432 360" xmlns="http://www.w3.org/2000/svg" version="1.1">
 <metadata>
  <rdf:RDF xmlns:dc="http://purl.org/dc/elements/1.1/" xmlns:cc="http://creativecommons.org/ns#" xmlns:rdf="http://www.w3.org/1999/02/22-rdf-syntax-ns#">
   <cc:Work>
    <dc:type rdf:resource="http://purl.org/dc/dcmitype/StillImage"/>
    <dc:date>2023-07-27T00:18:21.436498</dc:date>
    <dc:format>image/svg+xml</dc:format>
    <dc:creator>
     <cc:Agent>
      <dc:title>Matplotlib v3.7.1, https://matplotlib.org/</dc:title>
     </cc:Agent>
    </dc:creator>
   </cc:Work>
  </rdf:RDF>
 </metadata>
 <defs>
  <style type="text/css">*{stroke-linejoin: round; stroke-linecap: butt}</style>
 </defs>
 <g id="figure_1">
  <g id="patch_1">
   <path d="M 0 360
L 432 360
L 432 0
L 0 0
z
" style="fill: #ffffff"/>
  </g>
  <g id="axes_1">
   <g id="patch_2">
    <path d="M 71.57 314.44
L 415.510298 314.44
L 415.510298 76.26
L 71.57 76.26
z
" style="fill: #ffffff"/>
   </g>
   <g id="matplotlib.axis_1">
    <g id="xtick_1">
     <g id="line2d_1">
      <defs>
       <path id="mb49655efb7" d="M 0 0
L 0 3.5
" style="stroke: #000000; stroke-width: 0.8"/>
      </defs>
      <g>
       <use xlink:href="#mb49655efb7" x="71.57" y="314.44" style="stroke: #000000; stroke-width: 0.8"/>
      </g>
     </g>
     <g id="text_1">
      <!-- 0.0 -->
      <g transform="translate(62.028125 330.558125) scale(0.12 -0.12)">
       <defs>
        <path id="DejaVuSans-30" d="M 2034 4250
Q 1547 4250 1301 3770
Q 1056 3291 1056 2328
Q 1056 1369 1301 889
Q 1547 409 2034 409
Q 2525 409 2770 889
Q 3016 1369 3016 2328
Q 3016 3291 2770 3770
Q 2525 4250 2034 4250
z
M 2034 4750
Q 2819 4750 3233 4129
Q 3647 3509 3647 2328
Q 3647 1150 3233 529
Q 2819 -91 2034 -91
Q 1250 -91 836 529
Q 422 1150 422 2328
Q 422 3509 836 4129
Q 1250 4750 2034 4750
z
" transform="scale(0.015625)"/>
        <path id="DejaVuSans-2e" d="M 684 794
L 1344 794
L 1344 0
L 684 0
L 684 794
z
" transform="scale(0.015625)"/>
       </defs>
       <use xlink:href="#DejaVuSans-30"/>
       <use xlink:href="#DejaVuSans-2e" x="63.623047"/>
       <use xlink:href="#DejaVuSans-30" x="95.410156"/>
      </g>
     </g>
    </g>
    <g id="xtick_2">
     <g id="line2d_2">
      <g>
       <use xlink:href="#mb49655efb7" x="126.309799" y="314.44" style="stroke: #000000; stroke-width: 0.8"/>
      </g>
     </g>
     <g id="text_2">
      <!-- 0.5 -->
      <g transform="translate(116.767924 330.558125) scale(0.12 -0.12)">
       <defs>
        <path id="DejaVuSans-35" d="M 691 4666
L 3169 4666
L 3169 4134
L 1269 4134
L 1269 2991
Q 1406 3038 1543 3061
Q 1681 3084 1819 3084
Q 2600 3084 3056 2656
Q 3513 2228 3513 1497
Q 3513 744 3044 326
Q 2575 -91 1722 -91
Q 1428 -91 1123 -41
Q 819 9 494 109
L 494 744
Q 775 591 1075 516
Q 1375 441 1709 441
Q 2250 441 2565 725
Q 2881 1009 2881 1497
Q 2881 1984 2565 2268
Q 2250 2553 1709 2553
Q 1456 2553 1204 2497
Q 953 2441 691 2322
L 691 4666
z
" transform="scale(0.015625)"/>
       </defs>
       <use xlink:href="#DejaVuSans-30"/>
       <use xlink:href="#DejaVuSans-2e" x="63.623047"/>
       <use xlink:href="#DejaVuSans-35" x="95.410156"/>
      </g>
     </g>
    </g>
    <g id="xtick_3">
     <g id="line2d_3">
      <g>
       <use xlink:href="#mb49655efb7" x="181.049597" y="314.44" style="stroke: #000000; stroke-width: 0.8"/>
      </g>
     </g>
     <g id="text_3">
      <!-- 1.0 -->
      <g transform="translate(171.507722 330.558125) scale(0.12 -0.12)">
       <defs>
        <path id="DejaVuSans-31" d="M 794 531
L 1825 531
L 1825 4091
L 703 3866
L 703 4441
L 1819 4666
L 2450 4666
L 2450 531
L 3481 531
L 3481 0
L 794 0
L 794 531
z
" transform="scale(0.015625)"/>
       </defs>
       <use xlink:href="#DejaVuSans-31"/>
       <use xlink:href="#DejaVuSans-2e" x="63.623047"/>
       <use xlink:href="#DejaVuSans-30" x="95.410156"/>
      </g>
     </g>
    </g>
    <g id="xtick_4">
     <g id="line2d_4">
      <g>
       <use xlink:href="#mb49655efb7" x="235.789396" y="314.44" style="stroke: #000000; stroke-width: 0.8"/>
      </g>
     </g>
     <g id="text_4">
      <!-- 1.5 -->
      <g transform="translate(226.247521 330.558125) scale(0.12 -0.12)">
       <use xlink:href="#DejaVuSans-31"/>
       <use xlink:href="#DejaVuSans-2e" x="63.623047"/>
       <use xlink:href="#DejaVuSans-35" x="95.410156"/>
      </g>
     </g>
    </g>
    <g id="xtick_5">
     <g id="line2d_5">
      <g>
       <use xlink:href="#mb49655efb7" x="290.529194" y="314.44" style="stroke: #000000; stroke-width: 0.8"/>
      </g>
     </g>
     <g id="text_5">
      <!-- 2.0 -->
      <g transform="translate(280.987319 330.558125) scale(0.12 -0.12)">
       <defs>
        <path id="DejaVuSans-32" d="M 1228 531
L 3431 531
L 3431 0
L 469 0
L 469 531
Q 828 903 1448 1529
Q 2069 2156 2228 2338
Q 2531 2678 2651 2914
Q 2772 3150 2772 3378
Q 2772 3750 2511 3984
Q 2250 4219 1831 4219
Q 1534 4219 1204 4116
Q 875 4013 500 3803
L 500 4441
Q 881 4594 1212 4672
Q 1544 4750 1819 4750
Q 2544 4750 2975 4387
Q 3406 4025 3406 3419
Q 3406 3131 3298 2873
Q 3191 2616 2906 2266
Q 2828 2175 2409 1742
Q 1991 1309 1228 531
z
" transform="scale(0.015625)"/>
       </defs>
       <use xlink:href="#DejaVuSans-32"/>
       <use xlink:href="#DejaVuSans-2e" x="63.623047"/>
       <use xlink:href="#DejaVuSans-30" x="95.410156"/>
      </g>
     </g>
    </g>
    <g id="xtick_6">
     <g id="line2d_6">
      <g>
       <use xlink:href="#mb49655efb7" x="345.268993" y="314.44" style="stroke: #000000; stroke-width: 0.8"/>
      </g>
     </g>
     <g id="text_6">
      <!-- 2.5 -->
      <g transform="translate(335.727118 330.558125) scale(0.12 -0.12)">
       <use xlink:href="#DejaVuSans-32"/>
       <use xlink:href="#DejaVuSans-2e" x="63.623047"/>
       <use xlink:href="#DejaVuSans-35" x="95.410156"/>
      </g>
     </g>
    </g>
    <g id="xtick_7">
     <g id="line2d_7">
      <g>
       <use xlink:href="#mb49655efb7" x="400.008792" y="314.44" style="stroke: #000000; stroke-width: 0.8"/>
      </g>
     </g>
     <g id="text_7">
      <!-- 3.0 -->
      <g transform="translate(390.466917 330.558125) scale(0.12 -0.12)">
       <defs>
        <path id="DejaVuSans-33" d="M 2597 2516
Q 3050 2419 3304 2112
Q 3559 1806 3559 1356
Q 3559 666 3084 287
Q 2609 -91 1734 -91
Q 1441 -91 1130 -33
Q 819 25 488 141
L 488 750
Q 750 597 1062 519
Q 1375 441 1716 441
Q 2309 441 2620 675
Q 2931 909 2931 1356
Q 2931 1769 2642 2001
Q 2353 2234 1838 2234
L 1294 2234
L 1294 2753
L 1863 2753
Q 2328 2753 2575 2939
Q 2822 3125 2822 3475
Q 2822 3834 2567 4026
Q 2313 4219 1838 4219
Q 1578 4219 1281 4162
Q 984 4106 628 3988
L 628 4550
Q 988 4650 1302 4700
Q 1616 4750 1894 4750
Q 2613 4750 3031 4423
Q 3450 4097 3450 3541
Q 3450 3153 3228 2886
Q 3006 2619 2597 2516
z
" transform="scale(0.015625)"/>
       </defs>
       <use xlink:href="#DejaVuSans-33"/>
       <use xlink:href="#DejaVuSans-2e" x="63.623047"/>
       <use xlink:href="#DejaVuSans-30" x="95.410156"/>
      </g>
     </g>
    </g>
    <g id="text_8">
     <!-- $\kappa}$ -->
     <g transform="translate(240.000149 346.171875) scale(0.12 -0.12)">
      <defs>
       <path id="DejaVuSans-Oblique-3ba" d="M 938 3500
L 1531 3500
L 1247 2047
L 3041 3500
L 3741 3500
L 2106 2181
L 3275 0
L 2572 0
L 1628 1806
L 1122 1403
L 850 0
L 256 0
L 938 3500
z
" transform="scale(0.015625)"/>
      </defs>
      <use xlink:href="#DejaVuSans-Oblique-3ba" transform="translate(0 0.3125)"/>
     </g>
    </g>
   </g>
   <g id="matplotlib.axis_2">
    <g id="ytick_1">
     <g id="line2d_8">
      <defs>
       <path id="m6bc46732f0" d="M 0 0
L -3.5 0
" style="stroke: #000000; stroke-width: 0.8"/>
      </defs>
      <g>
       <use xlink:href="#m6bc46732f0" x="71.57" y="314.44" style="stroke: #000000; stroke-width: 0.8"/>
      </g>
     </g>
     <g id="text_9">
      <!-- −1.00 -->
      <g transform="translate(27.795625 318.999062) scale(0.12 -0.12)">
       <defs>
        <path id="DejaVuSans-2212" d="M 678 2272
L 4684 2272
L 4684 1741
L 678 1741
L 678 2272
z
" transform="scale(0.015625)"/>
       </defs>
       <use xlink:href="#DejaVuSans-2212"/>
       <use xlink:href="#DejaVuSans-31" x="83.789062"/>
       <use xlink:href="#DejaVuSans-2e" x="147.412109"/>
       <use xlink:href="#DejaVuSans-30" x="179.199219"/>
       <use xlink:href="#DejaVuSans-30" x="242.822266"/>
      </g>
     </g>
    </g>
    <g id="ytick_2">
     <g id="line2d_9">
      <g>
       <use xlink:href="#m6bc46732f0" x="71.57" y="284.6675" style="stroke: #000000; stroke-width: 0.8"/>
      </g>
     </g>
     <g id="text_10">
      <!-- −0.75 -->
      <g transform="translate(27.795625 289.226562) scale(0.12 -0.12)">
       <defs>
        <path id="DejaVuSans-37" d="M 525 4666
L 3525 4666
L 3525 4397
L 1831 0
L 1172 0
L 2766 4134
L 525 4134
L 525 4666
z
" transform="scale(0.015625)"/>
       </defs>
       <use xlink:href="#DejaVuSans-2212"/>
       <use xlink:href="#DejaVuSans-30" x="83.789062"/>
       <use xlink:href="#DejaVuSans-2e" x="147.412109"/>
       <use xlink:href="#DejaVuSans-37" x="179.199219"/>
       <use xlink:href="#DejaVuSans-35" x="242.822266"/>
      </g>
     </g>
    </g>
    <g id="ytick_3">
     <g id="line2d_10">
      <g>
       <use xlink:href="#m6bc46732f0" x="71.57" y="254.895" style="stroke: #000000; stroke-width: 0.8"/>
      </g>
     </g>
     <g id="text_11">
      <!-- −0.50 -->
      <g transform="translate(27.795625 259.454062) scale(0.12 -0.12)">
       <use xlink:href="#DejaVuSans-2212"/>
       <use xlink:href="#DejaVuSans-30" x="83.789062"/>
       <use xlink:href="#DejaVuSans-2e" x="147.412109"/>
       <use xlink:href="#DejaVuSans-35" x="179.199219"/>
       <use xlink:href="#DejaVuSans-30" x="242.822266"/>
      </g>
     </g>
    </g>
    <g id="ytick_4">
     <g id="line2d_11">
      <g>
       <use xlink:href="#m6bc46732f0" x="71.57" y="225.1225" style="stroke: #000000; stroke-width: 0.8"/>
      </g>
     </g>
     <g id="text_12">
      <!-- −0.25 -->
      <g transform="translate(27.795625 229.681562) scale(0.12 -0.12)">
       <use xlink:href="#DejaVuSans-2212"/>
       <use xlink:href="#DejaVuSans-30" x="83.789062"/>
       <use xlink:href="#DejaVuSans-2e" x="147.412109"/>
       <use xlink:href="#DejaVuSans-32" x="179.199219"/>
       <use xlink:href="#DejaVuSans-35" x="242.822266"/>
      </g>
     </g>
    </g>
    <g id="ytick_5">
     <g id="line2d_12">
      <g>
       <use xlink:href="#m6bc46732f0" x="71.57" y="195.35" style="stroke: #000000; stroke-width: 0.8"/>
      </g>
     </g>
     <g id="text_13">
      <!-- 0.00 -->
      <g transform="translate(37.85125 199.909062) scale(0.12 -0.12)">
       <use xlink:href="#DejaVuSans-30"/>
       <use xlink:href="#DejaVuSans-2e" x="63.623047"/>
       <use xlink:href="#DejaVuSans-30" x="95.410156"/>
       <use xlink:href="#DejaVuSans-30" x="159.033203"/>
      </g>
     </g>
    </g>
    <g id="ytick_6">
     <g id="line2d_13">
      <g>
       <use xlink:href="#m6bc46732f0" x="71.57" y="165.5775" style="stroke: #000000; stroke-width: 0.8"/>
      </g>
     </g>
     <g id="text_14">
      <!-- 0.25 -->
      <g transform="translate(37.85125 170.136562) scale(0.12 -0.12)">
       <use xlink:href="#DejaVuSans-30"/>
       <use xlink:href="#DejaVuSans-2e" x="63.623047"/>
       <use xlink:href="#DejaVuSans-32" x="95.410156"/>
       <use xlink:href="#DejaVuSans-35" x="159.033203"/>
      </g>
     </g>
    </g>
    <g id="ytick_7">
     <g id="line2d_14">
      <g>
       <use xlink:href="#m6bc46732f0" x="71.57" y="135.805" style="stroke: #000000; stroke-width: 0.8"/>
      </g>
     </g>
     <g id="text_15">
      <!-- 0.50 -->
      <g transform="translate(37.85125 140.364062) scale(0.12 -0.12)">
       <use xlink:href="#DejaVuSans-30"/>
       <use xlink:href="#DejaVuSans-2e" x="63.623047"/>
       <use xlink:href="#DejaVuSans-35" x="95.410156"/>
       <use xlink:href="#DejaVuSans-30" x="159.033203"/>
      </g>
     </g>
    </g>
    <g id="ytick_8">
     <g id="line2d_15">
      <g>
       <use xlink:href="#m6bc46732f0" x="71.57" y="106.0325" style="stroke: #000000; stroke-width: 0.8"/>
      </g>
     </g>
     <g id="text_16">
      <!-- 0.75 -->
      <g transform="translate(37.85125 110.591562) scale(0.12 -0.12)">
       <use xlink:href="#DejaVuSans-30"/>
       <use xlink:href="#DejaVuSans-2e" x="63.623047"/>
       <use xlink:href="#DejaVuSans-37" x="95.410156"/>
       <use xlink:href="#DejaVuSans-35" x="159.033203"/>
      </g>
     </g>
    </g>
    <g id="ytick_9">
     <g id="line2d_16">
      <g>
       <use xlink:href="#m6bc46732f0" x="71.57" y="76.26" style="stroke: #000000; stroke-width: 0.8"/>
      </g>
     </g>
     <g id="text_17">
      <!-- 1.00 -->
      <g transform="translate(37.85125 80.819062) scale(0.12 -0.12)">
       <use xlink:href="#DejaVuSans-31"/>
       <use xlink:href="#DejaVuSans-2e" x="63.623047"/>
       <use xlink:href="#DejaVuSans-30" x="95.410156"/>
       <use xlink:href="#DejaVuSans-30" x="159.033203"/>
      </g>
     </g>
    </g>
    <g id="text_18">
     <!-- CI coefficient -->
     <g transform="translate(21.3 234.5825) rotate(-90) scale(0.12 -0.12)">
      <defs>
       <path id="DejaVuSans-43" d="M 4122 4306
L 4122 3641
Q 3803 3938 3442 4084
Q 3081 4231 2675 4231
Q 1875 4231 1450 3742
Q 1025 3253 1025 2328
Q 1025 1406 1450 917
Q 1875 428 2675 428
Q 3081 428 3442 575
Q 3803 722 4122 1019
L 4122 359
Q 3791 134 3420 21
Q 3050 -91 2638 -91
Q 1578 -91 968 557
Q 359 1206 359 2328
Q 359 3453 968 4101
Q 1578 4750 2638 4750
Q 3056 4750 3426 4639
Q 3797 4528 4122 4306
z
" transform="scale(0.015625)"/>
       <path id="DejaVuSans-49" d="M 628 4666
L 1259 4666
L 1259 0
L 628 0
L 628 4666
z
" transform="scale(0.015625)"/>
       <path id="DejaVuSans-20" transform="scale(0.015625)"/>
       <path id="DejaVuSans-63" d="M 3122 3366
L 3122 2828
Q 2878 2963 2633 3030
Q 2388 3097 2138 3097
Q 1578 3097 1268 2742
Q 959 2388 959 1747
Q 959 1106 1268 751
Q 1578 397 2138 397
Q 2388 397 2633 464
Q 2878 531 3122 666
L 3122 134
Q 2881 22 2623 -34
Q 2366 -91 2075 -91
Q 1284 -91 818 406
Q 353 903 353 1747
Q 353 2603 823 3093
Q 1294 3584 2113 3584
Q 2378 3584 2631 3529
Q 2884 3475 3122 3366
z
" transform="scale(0.015625)"/>
       <path id="DejaVuSans-6f" d="M 1959 3097
Q 1497 3097 1228 2736
Q 959 2375 959 1747
Q 959 1119 1226 758
Q 1494 397 1959 397
Q 2419 397 2687 759
Q 2956 1122 2956 1747
Q 2956 2369 2687 2733
Q 2419 3097 1959 3097
z
M 1959 3584
Q 2709 3584 3137 3096
Q 3566 2609 3566 1747
Q 3566 888 3137 398
Q 2709 -91 1959 -91
Q 1206 -91 779 398
Q 353 888 353 1747
Q 353 2609 779 3096
Q 1206 3584 1959 3584
z
" transform="scale(0.015625)"/>
       <path id="DejaVuSans-65" d="M 3597 1894
L 3597 1613
L 953 1613
Q 991 1019 1311 708
Q 1631 397 2203 397
Q 2534 397 2845 478
Q 3156 559 3463 722
L 3463 178
Q 3153 47 2828 -22
Q 2503 -91 2169 -91
Q 1331 -91 842 396
Q 353 884 353 1716
Q 353 2575 817 3079
Q 1281 3584 2069 3584
Q 2775 3584 3186 3129
Q 3597 2675 3597 1894
z
M 3022 2063
Q 3016 2534 2758 2815
Q 2500 3097 2075 3097
Q 1594 3097 1305 2825
Q 1016 2553 972 2059
L 3022 2063
z
" transform="scale(0.015625)"/>
       <path id="DejaVuSans-66" d="M 2375 4863
L 2375 4384
L 1825 4384
Q 1516 4384 1395 4259
Q 1275 4134 1275 3809
L 1275 3500
L 2222 3500
L 2222 3053
L 1275 3053
L 1275 0
L 697 0
L 697 3053
L 147 3053
L 147 3500
L 697 3500
L 697 3744
Q 697 4328 969 4595
Q 1241 4863 1831 4863
L 2375 4863
z
" transform="scale(0.015625)"/>
       <path id="DejaVuSans-69" d="M 603 3500
L 1178 3500
L 1178 0
L 603 0
L 603 3500
z
M 603 4863
L 1178 4863
L 1178 4134
L 603 4134
L 603 4863
z
" transform="scale(0.015625)"/>
       <path id="DejaVuSans-6e" d="M 3513 2113
L 3513 0
L 2938 0
L 2938 2094
Q 2938 2591 2744 2837
Q 2550 3084 2163 3084
Q 1697 3084 1428 2787
Q 1159 2491 1159 1978
L 1159 0
L 581 0
L 581 3500
L 1159 3500
L 1159 2956
Q 1366 3272 1645 3428
Q 1925 3584 2291 3584
Q 2894 3584 3203 3211
Q 3513 2838 3513 2113
z
" transform="scale(0.015625)"/>
       <path id="DejaVuSans-74" d="M 1172 4494
L 1172 3500
L 2356 3500
L 2356 3053
L 1172 3053
L 1172 1153
Q 1172 725 1289 603
Q 1406 481 1766 481
L 2356 481
L 2356 0
L 1766 0
Q 1100 0 847 248
Q 594 497 594 1153
L 594 3053
L 172 3053
L 172 3500
L 594 3500
L 594 4494
L 1172 4494
z
" transform="scale(0.015625)"/>
      </defs>
      <use xlink:href="#DejaVuSans-43"/>
      <use xlink:href="#DejaVuSans-49" x="69.824219"/>
      <use xlink:href="#DejaVuSans-20" x="99.316406"/>
      <use xlink:href="#DejaVuSans-63" x="131.103516"/>
      <use xlink:href="#DejaVuSans-6f" x="186.083984"/>
      <use xlink:href="#DejaVuSans-65" x="247.265625"/>
      <use xlink:href="#DejaVuSans-66" x="308.789062"/>
      <use xlink:href="#DejaVuSans-66" x="343.994141"/>
      <use xlink:href="#DejaVuSans-69" x="379.199219"/>
      <use xlink:href="#DejaVuSans-63" x="406.982422"/>
      <use xlink:href="#DejaVuSans-69" x="461.962891"/>
      <use xlink:href="#DejaVuSans-65" x="489.746094"/>
      <use xlink:href="#DejaVuSans-6e" x="551.269531"/>
      <use xlink:href="#DejaVuSans-74" x="614.648438"/>
     </g>
    </g>
   </g>
   <g id="line2d_17">
    <path d="M 71.57 195.35
L 415.510298 195.35
" clip-path="url(#pd6d8506406)" style="fill: none; stroke-dasharray: 5.55,2.4; stroke-dashoffset: 0; stroke: #808080; stroke-opacity: 0.4; stroke-width: 1.5"/>
   </g>
   <g id="line2d_18">
    <path d="M 71.57 135.846367
L 81.922718 124.035193
L 88.82453 116.449063
L 94.57604 110.40613
L 100.32755 104.68793
L 104.928758 100.389712
L 109.529966 96.370125
L 114.131174 92.657555
L 118.732382 89.278219
L 122.183288 86.976847
L 125.634194 84.885534
L 129.0851 83.012593
L 132.536006 81.365461
L 135.986912 79.950684
L 139.437818 78.773882
L 142.888724 77.83973
L 146.33963 77.151939
L 149.790536 76.713244
L 153.241442 76.525386
L 156.692348 76.589295
L 160.143254 76.904484
L 163.59416 77.469661
L 167.045066 78.282559
L 170.495972 79.339976
L 173.946878 80.637719
L 177.397784 82.170652
L 180.84869 83.932704
L 184.299596 85.916895
L 187.750502 88.115366
L 192.35171 91.364797
L 196.952918 94.956662
L 201.554126 98.865622
L 206.155334 103.06407
L 211.906844 108.67388
L 217.658354 114.627643
L 224.560166 122.133439
L 232.61228 131.237072
L 257.918924 160.127174
L 264.820736 167.510485
L 270.572246 173.332586
L 275.173454 177.727331
L 279.774662 181.854609
L 284.37587 185.685226
L 288.977078 189.19198
L 293.578286 192.350339
L 297.029192 194.47902
L 300.480098 196.388017
L 303.931004 198.074206
L 307.38191 199.527766
L 310.832816 200.742395
L 314.283722 201.716989
L 317.734628 202.447186
L 321.185534 202.928968
L 324.63644 203.163199
L 328.087346 203.135251
L 331.538252 202.865456
L 334.989158 202.340416
L 338.440064 201.56885
L 341.89097 200.555745
L 345.341876 199.293988
L 348.792782 197.798986
L 352.243688 196.072888
L 355.694594 194.126046
L 359.1455 191.959648
L 362.596406 189.589602
L 367.197614 186.123635
L 371.798822 182.330645
L 376.40003 178.237644
L 381.001238 173.873528
L 386.752748 168.084302
L 392.504258 161.983675
L 399.40607 154.34682
L 409.758788 142.495483
L 415.510298 135.844275
L 415.510298 135.844275
" clip-path="url(#pd6d8506406)" style="fill: none; stroke: #1f77b4; stroke-width: 1.5; stroke-linecap: square"/>
   </g>
   <g id="line2d_19">
    <path d="M 71.57 284.735302
L 73.870604 284.419332
L 76.171208 283.944244
L 78.471812 283.313704
L 81.922718 282.077028
L 85.373624 280.495788
L 88.82453 278.576267
L 92.275436 276.32609
L 95.726342 273.754193
L 99.177248 270.870804
L 102.628154 267.68737
L 106.07906 264.216539
L 109.529966 260.472103
L 114.131174 255.079777
L 118.732382 249.265687
L 123.33359 243.070882
L 127.934798 236.539116
L 133.686308 227.971001
L 140.58812 217.222943
L 149.790536 202.382363
L 168.195368 172.529062
L 175.09718 161.821186
L 180.84869 153.297161
L 185.449898 146.807203
L 190.051106 140.659704
L 194.652314 134.898111
L 199.253522 129.563169
L 202.704428 125.864769
L 206.155334 122.442376
L 209.60624 119.309618
L 213.057146 116.478968
L 216.508052 113.961688
L 219.958958 111.767799
L 223.409864 109.906031
L 226.86077 108.383783
L 230.311676 107.207114
L 232.61228 106.617019
L 234.912884 106.183662
L 237.213488 105.907806
L 239.514092 105.789936
L 241.814696 105.830261
L 244.1153 106.028705
L 246.415904 106.384915
L 248.716508 106.898416
L 251.017112 107.567975
L 254.468018 108.862537
L 257.918924 110.500697
L 261.36983 112.475949
L 264.820736 114.780455
L 268.271642 117.405058
L 271.722548 120.339345
L 275.173454 123.571669
L 278.62436 127.0892
L 282.075266 130.877994
L 286.676474 136.32557
L 291.277682 142.190326
L 295.87889 148.431174
L 300.480098 155.000381
L 306.231608 163.607207
L 313.13342 174.389756
L 322.335836 189.259616
L 341.89097 220.886032
L 348.792782 231.480211
L 354.544292 239.875342
L 359.1455 246.240624
L 363.746708 252.24973
L 368.347916 257.85643
L 371.798822 261.773684
L 375.249728 265.426959
L 378.700634 268.801756
L 382.15154 271.884706
L 385.602446 274.663559
L 389.053352 277.127307
L 392.504258 279.266165
L 395.955164 281.071635
L 399.40607 282.536557
L 402.856976 283.655111
L 405.15758 284.206137
L 407.458184 284.600569
L 409.758788 284.836971
L 412.059392 284.915304
L 414.359996 284.835421
L 415.510298 284.736183
L 415.510298 284.736183
" clip-path="url(#pd6d8506406)" style="fill: none; stroke: #ff7f0e; stroke-width: 1.5; stroke-linecap: square"/>
   </g>
   <g id="line2d_20">
    <path d="M 71.57 143.852295
L 80.772416 154.371028
L 88.82453 163.249243
L 94.57604 169.29218
L 100.32755 175.010378
L 104.928758 179.308599
L 109.529966 183.328185
L 114.131174 187.040756
L 118.732382 190.42009
L 122.183288 192.721462
L 125.634194 194.812775
L 129.0851 196.685712
L 132.536006 198.332848
L 135.986912 199.747617
L 139.437818 200.924423
L 142.888724 201.858571
L 146.33963 202.546359
L 149.790536 202.985058
L 153.241442 203.172915
L 156.692348 203.109163
L 160.143254 202.793819
L 163.59416 202.228694
L 167.045066 201.415699
L 170.495972 200.358295
L 173.946878 199.060615
L 177.397784 197.527795
L 180.84869 195.765897
L 184.299596 193.781895
L 187.750502 191.583641
L 192.35171 188.334516
L 196.952918 184.742946
L 201.554126 180.834252
L 206.155334 176.636004
L 211.906844 171.026345
L 217.658354 165.072602
L 224.560166 157.56667
L 232.61228 148.462703
L 257.918924 119.571531
L 264.820736 112.187882
L 270.572246 106.365469
L 275.173454 101.970447
L 279.774662 97.842844
L 284.37587 94.0118
L 288.977078 90.504323
L 293.578286 87.345087
L 297.029192 85.219079
L 300.480098 83.308673
L 303.931004 81.624012
L 307.38191 80.17008
L 310.832816 78.953219
L 314.283722 77.978584
L 317.734628 77.249067
L 321.185534 76.768978
L 324.63644 76.539539
L 328.087346 76.560758
L 331.538252 76.834138
L 334.989158 77.357833
L 338.440064 78.129674
L 341.89097 79.14656
L 345.341876 80.404974
L 348.792782 81.899401
L 352.243688 83.62333
L 355.694594 85.571976
L 359.1455 87.734583
L 362.596406 90.105681
L 367.197614 93.572637
L 371.798822 97.366233
L 376.40003 101.459734
L 381.001238 105.82426
L 386.752748 111.613942
L 392.504258 117.714997
L 399.40607 125.352345
L 409.758788 137.204406
L 415.510298 143.856243
L 415.510298 143.856243
" clip-path="url(#pd6d8506406)" style="fill: none; stroke: #2ca02c; stroke-width: 1.5; stroke-linecap: square"/>
   </g>
   <g id="line2d_21">
    <path d="M 154.391744 314.44
L 154.391744 76.26
" clip-path="url(#pd6d8506406)" style="fill: none; stroke-dasharray: 5.55,2.4; stroke-dashoffset: 0; stroke: #000000; stroke-width: 1.5"/>
   </g>
   <g id="patch_3">
    <path d="M 71.57 314.44
L 71.57 76.26
" style="fill: none; stroke: #000000; stroke-width: 0.8; stroke-linejoin: miter; stroke-linecap: square"/>
   </g>
   <g id="patch_4">
    <path d="M 415.510298 314.44
L 415.510298 76.26
" style="fill: none; stroke: #000000; stroke-width: 0.8; stroke-linejoin: miter; stroke-linecap: square"/>
   </g>
   <g id="patch_5">
    <path d="M 71.57 314.44
L 415.510298 314.44
" style="fill: none; stroke: #000000; stroke-width: 0.8; stroke-linejoin: miter; stroke-linecap: square"/>
   </g>
   <g id="patch_6">
    <path d="M 71.57 76.26
L 415.510298 76.26
" style="fill: none; stroke: #000000; stroke-width: 0.8; stroke-linejoin: miter; stroke-linecap: square"/>
   </g>
   <g id="legend_1">
    <g id="line2d_22">
     <path d="M 77.672024 32.433125
L 89.672024 32.433125
L 101.672024 32.433125
" style="fill: none; stroke: #1f77b4; stroke-width: 1.5; stroke-linecap: square"/>
    </g>
    <g id="text_19">
     <!-- $\left|1100\right&gt;$ -->
     <g transform="translate(111.272024 36.633125) scale(0.12 -0.12)">
      <defs>
       <path id="DejaVuSans-7c" d="M 1344 4891
L 1344 -1509
L 813 -1509
L 813 4891
L 1344 4891
z
" transform="scale(0.015625)"/>
       <path id="DejaVuSans-27e9" d="M 1925 2006
L 1044 -844
L 513 -844
L 1394 2006
L 513 4856
L 1044 4856
L 1925 2006
z
" transform="scale(0.015625)"/>
      </defs>
      <use xlink:href="#DejaVuSans-7c" transform="translate(0 16.546875) scale(0.756406)"/>
      <use xlink:href="#DejaVuSans-31" transform="translate(25.48439 0.125)"/>
      <use xlink:href="#DejaVuSans-31" transform="translate(89.107437 0.125)"/>
      <use xlink:href="#DejaVuSans-30" transform="translate(152.730484 0.125)"/>
      <use xlink:href="#DejaVuSans-30" transform="translate(216.353531 0.125)"/>
      <use xlink:href="#DejaVuSans-27e9" transform="translate(279.976578 0.125)"/>
     </g>
    </g>
    <g id="line2d_23">
     <path d="M 77.672024 52.32875
L 89.672024 52.32875
L 101.672024 52.32875
" style="fill: none; stroke: #ff7f0e; stroke-width: 1.5; stroke-linecap: square"/>
    </g>
    <g id="text_20">
     <!-- $\frac{1}{\sqrt{2}}\left(\left|1001\right&gt; - \left|0110\right&gt;\right)$ -->
     <g transform="translate(111.272024 56.52875) scale(0.12 -0.12)">
      <defs>
       <path id="STIXSizeOneSym-Regular-221a" d="M 6970 9933
L 3373 -1888
L 3104 -1888
L 1626 2918
Q 1555 3149 1465 3251
Q 1376 3354 1229 3354
Q 1011 3354 794 3181
L 717 3309
L 1766 4115
L 1926 4115
L 3379 -602
L 3405 -602
L 6605 9933
L 6970 9933
z
" transform="scale(0.015625)"/>
       <path id="DejaVuSans-28" d="M 1984 4856
Q 1566 4138 1362 3434
Q 1159 2731 1159 2009
Q 1159 1288 1364 580
Q 1569 -128 1984 -844
L 1484 -844
Q 1016 -109 783 600
Q 550 1309 550 2009
Q 550 2706 781 3412
Q 1013 4119 1484 4856
L 1984 4856
z
" transform="scale(0.015625)"/>
       <path id="DejaVuSans-29" d="M 513 4856
L 1013 4856
Q 1481 4119 1714 3412
Q 1947 2706 1947 2009
Q 1947 1309 1714 600
Q 1481 -109 1013 -844
L 513 -844
Q 928 -128 1133 580
Q 1338 1288 1338 2009
Q 1338 2731 1133 3434
Q 928 4138 513 4856
z
" transform="scale(0.015625)"/>
      </defs>
      <use xlink:href="#DejaVuSans-31" transform="translate(30 43.965625) scale(0.7)"/>
      <use xlink:href="#STIXSizeOneSym-Regular-221a" transform="translate(0 -53.510937) scale(0.399712)"/>
      <use xlink:href="#DejaVuSans-32" transform="translate(50.993658 -65.6125) scale(0.7)"/>
      <use xlink:href="#DejaVuSans-28" transform="translate(116.779791 0.16875)"/>
      <use xlink:href="#DejaVuSans-7c" transform="translate(155.793463 16.590625) scale(0.756406)"/>
      <use xlink:href="#DejaVuSans-31" transform="translate(181.277853 0.16875)"/>
      <use xlink:href="#DejaVuSans-30" transform="translate(244.9009 0.16875)"/>
      <use xlink:href="#DejaVuSans-30" transform="translate(308.523947 0.16875)"/>
      <use xlink:href="#DejaVuSans-31" transform="translate(372.146994 0.16875)"/>
      <use xlink:href="#DejaVuSans-27e9" transform="translate(435.770041 0.16875)"/>
      <use xlink:href="#DejaVuSans-2212" transform="translate(494.266135 0.16875)"/>
      <use xlink:href="#DejaVuSans-7c" transform="translate(597.537619 16.590625) scale(0.756406)"/>
      <use xlink:href="#DejaVuSans-30" transform="translate(623.022009 0.16875)"/>
      <use xlink:href="#DejaVuSans-31" transform="translate(686.645056 0.16875)"/>
      <use xlink:href="#DejaVuSans-31" transform="translate(750.268103 0.16875)"/>
      <use xlink:href="#DejaVuSans-30" transform="translate(813.89115 0.16875)"/>
      <use xlink:href="#DejaVuSans-27e9" transform="translate(877.514197 0.16875)"/>
      <use xlink:href="#DejaVuSans-29" transform="translate(916.527869 0.16875)"/>
      <path d="M 0 18.965625
L 0 25.215625
L 104.279791 25.215625
L 104.279791 18.965625
L 0 18.965625
z
"/>
      <path d="M 42.243658 3.965625
L 42.243658 8.340625
L 104.279791 8.340625
L 104.279791 3.965625
L 42.243658 3.965625
z
"/>
     </g>
    </g>
    <g id="line2d_24">
     <path d="M 249.992024 32.433125
L 261.992024 32.433125
L 273.992024 32.433125
" style="fill: none; stroke: #2ca02c; stroke-width: 1.5; stroke-linecap: square"/>
    </g>
    <g id="text_21">
     <!-- $\left|0011\right&gt;$ -->
     <g transform="translate(283.592024 36.633125) scale(0.12 -0.12)">
      <use xlink:href="#DejaVuSans-7c" transform="translate(0 16.546875) scale(0.756406)"/>
      <use xlink:href="#DejaVuSans-30" transform="translate(25.48439 0.125)"/>
      <use xlink:href="#DejaVuSans-30" transform="translate(89.107437 0.125)"/>
      <use xlink:href="#DejaVuSans-31" transform="translate(152.730484 0.125)"/>
      <use xlink:href="#DejaVuSans-31" transform="translate(216.353531 0.125)"/>
      <use xlink:href="#DejaVuSans-27e9" transform="translate(279.976578 0.125)"/>
     </g>
    </g>
    <g id="line2d_25">
     <path d="M 249.992024 50.046875
L 261.992024 50.046875
L 273.992024 50.046875
" style="fill: none; stroke-dasharray: 5.55,2.4; stroke-dashoffset: 0; stroke: #000000; stroke-width: 1.5"/>
    </g>
    <g id="text_22">
     <!-- Hartree-Fock orbitals -->
     <g transform="translate(283.592024 54.246875) scale(0.12 -0.12)">
      <defs>
       <path id="DejaVuSans-48" d="M 628 4666
L 1259 4666
L 1259 2753
L 3553 2753
L 3553 4666
L 4184 4666
L 4184 0
L 3553 0
L 3553 2222
L 1259 2222
L 1259 0
L 628 0
L 628 4666
z
" transform="scale(0.015625)"/>
       <path id="DejaVuSans-61" d="M 2194 1759
Q 1497 1759 1228 1600
Q 959 1441 959 1056
Q 959 750 1161 570
Q 1363 391 1709 391
Q 2188 391 2477 730
Q 2766 1069 2766 1631
L 2766 1759
L 2194 1759
z
M 3341 1997
L 3341 0
L 2766 0
L 2766 531
Q 2569 213 2275 61
Q 1981 -91 1556 -91
Q 1019 -91 701 211
Q 384 513 384 1019
Q 384 1609 779 1909
Q 1175 2209 1959 2209
L 2766 2209
L 2766 2266
Q 2766 2663 2505 2880
Q 2244 3097 1772 3097
Q 1472 3097 1187 3025
Q 903 2953 641 2809
L 641 3341
Q 956 3463 1253 3523
Q 1550 3584 1831 3584
Q 2591 3584 2966 3190
Q 3341 2797 3341 1997
z
" transform="scale(0.015625)"/>
       <path id="DejaVuSans-72" d="M 2631 2963
Q 2534 3019 2420 3045
Q 2306 3072 2169 3072
Q 1681 3072 1420 2755
Q 1159 2438 1159 1844
L 1159 0
L 581 0
L 581 3500
L 1159 3500
L 1159 2956
Q 1341 3275 1631 3429
Q 1922 3584 2338 3584
Q 2397 3584 2469 3576
Q 2541 3569 2628 3553
L 2631 2963
z
" transform="scale(0.015625)"/>
       <path id="DejaVuSans-2d" d="M 313 2009
L 1997 2009
L 1997 1497
L 313 1497
L 313 2009
z
" transform="scale(0.015625)"/>
       <path id="DejaVuSans-46" d="M 628 4666
L 3309 4666
L 3309 4134
L 1259 4134
L 1259 2759
L 3109 2759
L 3109 2228
L 1259 2228
L 1259 0
L 628 0
L 628 4666
z
" transform="scale(0.015625)"/>
       <path id="DejaVuSans-6b" d="M 581 4863
L 1159 4863
L 1159 1991
L 2875 3500
L 3609 3500
L 1753 1863
L 3688 0
L 2938 0
L 1159 1709
L 1159 0
L 581 0
L 581 4863
z
" transform="scale(0.015625)"/>
       <path id="DejaVuSans-62" d="M 3116 1747
Q 3116 2381 2855 2742
Q 2594 3103 2138 3103
Q 1681 3103 1420 2742
Q 1159 2381 1159 1747
Q 1159 1113 1420 752
Q 1681 391 2138 391
Q 2594 391 2855 752
Q 3116 1113 3116 1747
z
M 1159 2969
Q 1341 3281 1617 3432
Q 1894 3584 2278 3584
Q 2916 3584 3314 3078
Q 3713 2572 3713 1747
Q 3713 922 3314 415
Q 2916 -91 2278 -91
Q 1894 -91 1617 61
Q 1341 213 1159 525
L 1159 0
L 581 0
L 581 4863
L 1159 4863
L 1159 2969
z
" transform="scale(0.015625)"/>
       <path id="DejaVuSans-6c" d="M 603 4863
L 1178 4863
L 1178 0
L 603 0
L 603 4863
z
" transform="scale(0.015625)"/>
       <path id="DejaVuSans-73" d="M 2834 3397
L 2834 2853
Q 2591 2978 2328 3040
Q 2066 3103 1784 3103
Q 1356 3103 1142 2972
Q 928 2841 928 2578
Q 928 2378 1081 2264
Q 1234 2150 1697 2047
L 1894 2003
Q 2506 1872 2764 1633
Q 3022 1394 3022 966
Q 3022 478 2636 193
Q 2250 -91 1575 -91
Q 1294 -91 989 -36
Q 684 19 347 128
L 347 722
Q 666 556 975 473
Q 1284 391 1588 391
Q 1994 391 2212 530
Q 2431 669 2431 922
Q 2431 1156 2273 1281
Q 2116 1406 1581 1522
L 1381 1569
Q 847 1681 609 1914
Q 372 2147 372 2553
Q 372 3047 722 3315
Q 1072 3584 1716 3584
Q 2034 3584 2315 3537
Q 2597 3491 2834 3397
z
" transform="scale(0.015625)"/>
      </defs>
      <use xlink:href="#DejaVuSans-48"/>
      <use xlink:href="#DejaVuSans-61" x="75.195312"/>
      <use xlink:href="#DejaVuSans-72" x="136.474609"/>
      <use xlink:href="#DejaVuSans-74" x="177.587891"/>
      <use xlink:href="#DejaVuSans-72" x="216.796875"/>
      <use xlink:href="#DejaVuSans-65" x="255.660156"/>
      <use xlink:href="#DejaVuSans-65" x="317.183594"/>
      <use xlink:href="#DejaVuSans-2d" x="378.707031"/>
      <use xlink:href="#DejaVuSans-46" x="414.791016"/>
      <use xlink:href="#DejaVuSans-6f" x="468.685547"/>
      <use xlink:href="#DejaVuSans-63" x="529.867188"/>
      <use xlink:href="#DejaVuSans-6b" x="584.847656"/>
      <use xlink:href="#DejaVuSans-20" x="642.757812"/>
      <use xlink:href="#DejaVuSans-6f" x="674.544922"/>
      <use xlink:href="#DejaVuSans-72" x="735.726562"/>
      <use xlink:href="#DejaVuSans-62" x="776.839844"/>
      <use xlink:href="#DejaVuSans-69" x="840.316406"/>
      <use xlink:href="#DejaVuSans-74" x="868.099609"/>
      <use xlink:href="#DejaVuSans-61" x="907.308594"/>
      <use xlink:href="#DejaVuSans-6c" x="968.587891"/>
      <use xlink:href="#DejaVuSans-73" x="996.371094"/>
     </g>
    </g>
   </g>
  </g>
 </g>
 <defs>
  <clipPath id="pd6d8506406">
   <rect x="71.57" y="76.26" width="343.940298" height="238.18"/>
  </clipPath>
 </defs>
</svg>
